<svg width="91" height="91" viewBox="0 0 91 91" fill="none" xmlns="http://www.w3.org/2000/svg">
<path fill-rule="evenodd" clip-rule="evenodd" d="M82.8242 73.2266H85.668C88.6082 73.2266 91 75.6183 91 78.5586C91 81.4988 88.6082 83.8906 85.668 83.8906H31.8596C29.8184 88.1896 25.45 91 20.6172 91C13.7571 91 8.17578 85.4187 8.17578 78.5586C8.17578 73.7257 10.9862 69.3574 15.2852 67.3162V10.6641H5.33203C2.39178 10.6641 0 8.27229 0 5.33203C0 2.39178 2.39178 0 5.33203 0H20.6172C23.5574 0 25.9492 2.39178 25.9492 5.33203V67.3162C28.5514 68.5465 30.63 70.6251 31.8596 73.2266H33.0586V8.88672C33.0586 7.90501 33.8542 7.10938 34.8359 7.10938H70.3828C71.3645 7.10938 72.1602 7.90501 72.1602 8.88672V33.0586H81.0469C82.0286 33.0586 82.8242 33.8542 82.8242 34.8359V73.2266ZM36.6133 36.6133V73.2266H79.2695V36.6133H66.8281V55.4531C66.8281 56.1266 66.4477 56.7417 65.8457 57.043C65.2445 57.3436 64.5238 57.2798 63.9844 56.875L57.9414 52.3428L51.8984 56.875C51.3597 57.2791 50.639 57.3443 50.0371 57.043C49.4352 56.7417 49.0547 56.1266 49.0547 55.4531V36.6133H36.6133ZM52.6094 36.6133H63.2734V51.8984L59.0078 48.6992C58.6919 48.4625 58.3163 48.3438 57.9414 48.3438C57.5665 48.3438 57.1909 48.4625 56.875 48.6992L52.6094 51.8984V36.6133ZM56.1641 10.6641H49.0547V20.8505L51.6235 19.1384C51.922 18.9391 52.2657 18.8398 52.6094 18.8398C52.953 18.8398 53.2967 18.9391 53.5952 19.1384L56.1641 20.8505V10.6641ZM45.5 10.6641V24.1719C45.5 24.8273 45.861 25.4292 46.4387 25.7389C47.017 26.0485 47.7182 26.0138 48.2632 25.6507L52.6094 22.7535L56.9555 25.6507C57.5012 26.0145 58.2031 26.0478 58.7801 25.7389C59.3577 25.4299 59.7188 24.8273 59.7188 24.1719V10.6641H68.6055V33.0586H36.6133V10.6641H45.5ZM3.55469 5.33203C3.55469 6.31235 4.35172 7.10938 5.33203 7.10938H17.0625C18.0442 7.10938 18.8398 7.90501 18.8398 8.88672V66.2456C19.4258 66.1616 20.0187 66.1172 20.6172 66.1172C21.2157 66.1172 21.8086 66.1616 22.3945 66.2456V5.33203C22.3945 4.35172 21.5975 3.55469 20.6172 3.55469H5.33203C4.35172 3.55469 3.55469 4.35172 3.55469 5.33203ZM20.6172 87.4453C15.717 87.4453 11.7305 83.4588 11.7305 78.5586C11.7305 73.7112 15.6517 69.6719 20.6172 69.6719C25.5813 69.6719 29.5039 73.7153 29.5039 78.5586C29.5039 83.524 25.4646 87.4453 20.6172 87.4453ZM32.9302 80.3359H85.668C86.6483 80.3359 87.4453 79.5389 87.4453 78.5586C87.4453 77.5783 86.6483 76.7812 85.668 76.7812H32.9302C33.0135 77.3672 33.0586 77.9601 33.0586 78.5586C33.0586 79.1571 33.0142 79.75 32.9302 80.3359ZM15.2852 78.5586C15.2852 75.6183 17.6769 73.2266 20.6172 73.2266C23.5574 73.2266 25.9492 75.6183 25.9492 78.5586C25.9492 81.4988 23.5574 83.8906 20.6172 83.8906C17.6769 83.8906 15.2852 81.4988 15.2852 78.5586ZM18.8398 78.5586C18.8398 79.5389 19.6369 80.3359 20.6172 80.3359C21.5975 80.3359 22.3945 79.5389 22.3945 78.5586C22.3945 77.5783 21.5975 76.7812 20.6172 76.7812C19.6369 76.7812 18.8398 77.5783 18.8398 78.5586ZM75.7148 67.8945C75.7148 68.8762 74.9192 69.6719 73.9375 69.6719C72.9558 69.6719 72.1602 68.8762 72.1602 67.8945V64.3398C72.1602 63.3581 72.9558 62.5625 73.9375 62.5625C74.9192 62.5625 75.7148 63.3581 75.7148 64.3398V67.8945ZM73.9375 55.4531C74.9185 55.4531 75.7148 56.2495 75.7148 57.2305C75.7148 58.2115 74.9185 59.0078 73.9375 59.0078C72.9565 59.0078 72.1602 58.2115 72.1602 57.2305C72.1602 56.2495 72.9565 55.4531 73.9375 55.4531ZM65.0508 64.3398C65.0508 63.3581 65.8464 62.5625 66.8281 62.5625C67.8098 62.5625 68.6055 63.3581 68.6055 64.3398V67.8945C68.6055 68.8762 67.8098 69.6719 66.8281 69.6719C65.8464 69.6719 65.0508 68.8762 65.0508 67.8945V64.3398Z" fill="#0A1430"/>
</svg>
