<svg width="21" height="21" viewBox="0 0 21 21" fill="none" xmlns="http://www.w3.org/2000/svg">
<path d="M10.5 0C4.7104 0 0 4.7104 0 10.5C0 16.2896 4.7104 21 10.5 21C16.2896 21 21 16.2896 21 10.5C21 4.7104 16.2896 0 10.5 0ZM10.5 19.6875C5.43392 19.6875 1.31251 15.5661 1.31251 10.5C1.31251 5.43392 5.43392 1.31251 10.5 1.31251C15.5661 1.31251 19.6875 5.43392 19.6875 10.5C19.6875 15.5661 15.5661 19.6875 10.5 19.6875Z" fill="white"/>
<path d="M11.1563 4.59375C11.1563 4.23131 10.8624 3.9375 10.5 3.9375C10.1376 3.9375 9.84375 4.23131 9.84375 4.59375V9.94329C9.84375 10.4737 10.0545 10.9824 10.4295 11.3575L13.5095 14.4375C13.7658 14.6937 14.1812 14.6937 14.4375 14.4375C14.6937 14.1812 14.6937 13.7657 14.4375 13.5095L11.1563 10.2283V4.59375Z" fill="white"/>
</svg>
