<svg width="21" height="21" viewBox="0 0 21 21" fill="none" xmlns="http://www.w3.org/2000/svg">
<path d="M20.6685 8.06343L18.7476 7.58276C18.6463 7.29951 18.5275 7.0158 18.3926 6.73423L19.4132 5.03295C19.5166 4.86076 19.4893 4.6403 19.3474 4.49847L16.5016 1.65215C16.3597 1.50987 16.1384 1.48337 15.9671 1.58636L14.2654 2.60749C13.9842 2.47246 13.7005 2.35368 13.4173 2.25245L12.9366 0.331529C12.8879 0.136705 12.7131 0 12.5123 0H8.48769C8.28688 0 8.11215 0.136705 8.06343 0.331529L7.58276 2.25241C7.29951 2.35368 7.0158 2.47246 6.73468 2.60745L5.03295 1.58632C4.86076 1.48378 4.6403 1.50983 4.49847 1.65211L1.6526 4.49843C1.51077 4.64026 1.48341 4.86072 1.58681 5.0329L2.60749 6.73419C2.47246 7.01576 2.35368 7.29943 2.25245 7.58272L0.331529 8.06343C0.136705 8.11211 0 8.28688 0 8.48769V12.5123C0 12.7132 0.136705 12.8879 0.331529 12.9366L2.25241 13.4173C2.35368 13.7005 2.47246 13.9842 2.60745 14.2658L1.58677 15.9671C1.48337 16.1393 1.51073 16.3597 1.65256 16.5016L4.49843 19.3474C4.63944 19.4889 4.86031 19.5158 5.0329 19.4132L6.73419 18.3926C7.01576 18.5276 7.29943 18.6464 7.58272 18.7476L8.06339 20.6685C8.11211 20.8633 8.28684 21 8.48765 21H12.5123C12.7131 21 12.8878 20.8633 12.9366 20.6685L13.4172 18.7476C13.7005 18.6463 13.9842 18.5275 14.2658 18.3926L15.9671 19.4132C16.1392 19.5162 16.3597 19.4897 16.5015 19.3474L19.3474 16.5016C19.4892 16.3597 19.5166 16.1393 19.4132 15.9671L18.3925 14.2658C18.5275 13.9842 18.6463 13.7006 18.7475 13.4173L20.6684 12.9366C20.8633 12.8879 21 12.7132 21 12.5123V8.48769C21 8.28688 20.8633 8.11211 20.6685 8.06343ZM20.125 12.171L18.3041 12.6264C18.1575 12.6627 18.04 12.7726 17.9939 12.9161C17.8683 13.3049 17.7038 13.6984 17.5051 14.0859C17.4359 14.2201 17.4414 14.3807 17.5192 14.5106L18.4873 16.1243L16.1242 18.4874L14.511 17.5193C14.3815 17.4424 14.2217 17.4364 14.0863 17.5052C13.6984 17.7039 13.3049 17.8683 12.9161 17.994C12.7725 18.0401 12.6627 18.1576 12.6264 18.3042L12.1709 20.1251H8.82902L8.37359 18.3042C8.33729 18.1576 8.22745 18.0401 8.08389 17.994C7.69511 17.8683 7.3016 17.7039 6.91368 17.5052C6.77865 17.4355 6.61803 17.4415 6.489 17.5193L4.87573 18.4874L2.51262 16.1243L3.48075 14.5105C3.55852 14.3807 3.56405 14.22 3.49486 14.0859C3.29618 13.6984 3.13171 13.3049 3.00608 12.9161C2.95993 12.7725 2.84242 12.6627 2.69587 12.6264L0.874986 12.171V8.82902L2.69592 8.37359C2.84246 8.33729 2.95997 8.22745 3.00612 8.08389C3.13175 7.69511 3.29622 7.3016 3.4949 6.91409C3.56413 6.77992 3.55856 6.61927 3.48079 6.48941L2.51262 4.87573L4.87573 2.51221L6.48945 3.48079C6.61935 3.55897 6.77996 3.56495 6.91413 3.4949C7.30164 3.29622 7.69515 3.13175 8.08393 3.00612C8.22749 2.95997 8.33729 2.84246 8.37363 2.69592L8.82906 0.874986H12.171L12.6264 2.69592C12.6627 2.84246 12.7726 2.95997 12.9161 3.00612C13.3049 3.13175 13.6984 3.29622 14.0859 3.4949C14.2196 3.56413 14.3807 3.55815 14.5106 3.48079L16.1243 2.51221L18.4874 4.87573L17.5193 6.48945C17.4415 6.61935 17.436 6.77996 17.5052 6.91413C17.7039 7.30164 17.8683 7.69515 17.994 8.08393C18.0401 8.22749 18.1576 8.33729 18.3042 8.37363L20.1251 8.82906V12.171H20.125Z" fill="white"/>
<path d="M10.5 5.25C7.60499 5.25 5.25 7.60499 5.25 10.5C5.25 13.395 7.60499 15.75 10.5 15.75C13.395 15.75 15.75 13.395 15.75 10.5C15.75 7.60499 13.395 5.25 10.5 5.25ZM10.5 14.875C8.08775 14.875 6.12499 12.9123 6.12499 10.5C6.12499 8.08775 8.08779 6.12499 10.5 6.12499C12.9122 6.12499 14.875 8.08779 14.875 10.5C14.875 12.9122 12.9123 14.875 10.5 14.875Z" fill="white"/>
</svg>
