<svg width="17" height="21" viewBox="0 0 17 21" fill="none" xmlns="http://www.w3.org/2000/svg">
<path d="M11.3925 7.6084C11.1218 7.6084 10.9023 7.82856 10.9023 8.1002V17.3953C10.9023 17.6667 11.1218 17.8871 11.3925 17.8871C11.6633 17.8871 11.8827 17.6667 11.8827 17.3953V8.1002C11.8827 7.82856 11.6633 7.6084 11.3925 7.6084Z" fill="white"/>
<path d="M5.60836 7.6084C5.3376 7.6084 5.11816 7.82856 5.11816 8.1002V17.3953C5.11816 17.6667 5.3376 17.8871 5.60836 17.8871C5.87911 17.8871 6.09855 17.6667 6.09855 17.3953V8.1002C6.09855 7.82856 5.87911 7.6084 5.60836 7.6084Z" fill="white"/>
<path d="M1.39222 6.2519V18.3689C1.39222 19.085 1.65398 19.7576 2.11123 20.2402C2.56639 20.7241 3.19981 20.9988 3.86271 21H13.1373C13.8004 20.9988 14.4338 20.7241 14.8888 20.2402C15.346 19.7576 15.6078 19.085 15.6078 18.3689V6.2519C16.5167 6.00984 17.1057 5.12883 16.9841 4.19306C16.8624 3.25748 16.0679 2.55763 15.1274 2.55743H12.6176V1.94268C12.6205 1.42571 12.4167 0.929301 12.052 0.5641C11.6872 0.199091 11.1916 -0.0041618 10.6764 6.46187e-05H6.32363C5.80835 -0.0041618 5.3128 0.199091 4.94803 0.5641C4.58326 0.929301 4.37952 1.42571 4.38239 1.94268V2.55743H1.87265C0.932095 2.55763 0.13764 3.25748 0.015858 4.19306C-0.105732 5.12883 0.483263 6.00984 1.39222 6.2519ZM13.1373 20.0164H3.86271C3.0246 20.0164 2.37261 19.2941 2.37261 18.3689V6.29513H14.6274V18.3689C14.6274 19.2941 13.9754 20.0164 13.1373 20.0164ZM5.36277 1.94268C5.35952 1.6866 5.45986 1.44012 5.641 1.25935C5.82195 1.07857 6.06819 0.97925 6.32363 0.983668H10.6764C10.9318 0.97925 11.1781 1.07857 11.359 1.25935C11.5401 1.43993 11.6405 1.6866 11.6372 1.94268V2.55743H5.36277V1.94268ZM1.87265 3.54104H15.1274C15.6147 3.54104 16.0097 3.93736 16.0097 4.42628C16.0097 4.9152 15.6147 5.31152 15.1274 5.31152H1.87265C1.38533 5.31152 0.990305 4.9152 0.990305 4.42628C0.990305 3.93736 1.38533 3.54104 1.87265 3.54104Z" fill="white"/>
<path d="M8.49995 7.6084C8.2292 7.6084 8.00977 7.82856 8.00977 8.1002V17.3953C8.00977 17.6667 8.2292 17.8871 8.49995 17.8871C8.77071 17.8871 8.99014 17.6667 8.99014 17.3953V8.1002C8.99014 7.82856 8.77071 7.6084 8.49995 7.6084Z" fill="white"/>
</svg>
