<svg width="34" height="34" viewBox="0 0 34 34" fill="none" xmlns="http://www.w3.org/2000/svg">
<circle cx="17" cy="17" r="17" fill="#2A3042"/>
<g clip-path="url(#clip0)">
<path d="M23.5938 12.7812H20.8843L20.535 11.0349C20.4477 10.5982 20.0611 10.2812 19.6157 10.2812H14.3843C13.939 10.2812 13.5523 10.5982 13.465 11.0349L13.1157 12.7812H10.4062C9.63084 12.7812 9 13.4121 9 14.1875V22.3125C9 23.0879 9.63084 23.7188 10.4062 23.7188H23.5938C24.3692 23.7188 25 23.0879 25 22.3125V14.1875C25 13.4121 24.3692 12.7812 23.5938 12.7812ZM14.3843 11.2188H19.6157L19.9282 12.7812H14.0718L14.3843 11.2188ZM24.0625 22.3125C24.0625 22.571 23.8522 22.7812 23.5938 22.7812H10.4062C10.1478 22.7812 9.9375 22.571 9.9375 22.3125V14.1875C9.9375 13.929 10.1478 13.7188 10.4062 13.7188H23.5938C23.8522 13.7188 24.0625 13.929 24.0625 14.1875V22.3125Z" fill="white"/>
<path d="M17 14.7812C15.0873 14.7812 13.5312 16.3373 13.5312 18.25C13.5312 20.1627 15.0873 21.7188 17 21.7188C18.9127 21.7188 20.4688 20.1627 20.4688 18.25C20.4688 16.3373 18.9127 14.7812 17 14.7812ZM17 20.7812C15.6042 20.7812 14.4688 19.6457 14.4688 18.25C14.4688 16.8543 15.6042 15.7188 17 15.7188C18.3958 15.7188 19.5312 16.8543 19.5312 18.25C19.5312 19.6457 18.3958 20.7812 17 20.7812Z" fill="white"/>
<path d="M13 14.7812H11.5C11.2411 14.7812 11.0312 14.9911 11.0312 15.25C11.0312 15.5089 11.2411 15.7188 11.5 15.7188H13C13.2589 15.7188 13.4688 15.5089 13.4688 15.25C13.4688 14.9911 13.2589 14.7812 13 14.7812Z" fill="white"/>
</g>
<defs>
<clipPath id="clip0">
<rect width="16" height="16" fill="white" transform="translate(9 9)"/>
</clipPath>
</defs>
</svg>
