<svg width="91" height="81" viewBox="0 0 91 81" fill="none" xmlns="http://www.w3.org/2000/svg">
<path fill-rule="evenodd" clip-rule="evenodd" d="M89.9361 19.9196C90.5843 20.2127 90.9988 20.8568 90.9991 21.5655L90.9996 21.5656C90.9999 21.5657 91.0001 21.5658 91 21.5658V59.4462C91 60.1567 90.5823 60.8015 89.9329 61.0938L46.2536 80.7529L46.2513 80.754L46.2456 80.7564L46.2452 80.7561C46.0094 80.8623 45.755 80.9165 45.4998 80.9165C45.2465 80.9165 44.9924 80.8635 44.7544 80.7563L1.06712 61.0935C0.417676 60.801 0 60.1564 0 59.4458V21.566H0.000888672C0.00106641 20.8572 0.415721 20.2127 1.06392 19.9196L44.751 0.16055L44.7514 0.162499C45.2231 -0.0510782 45.7686 -0.0565727 46.2488 0.16055L89.9361 19.9196ZM3.6256 58.2783L43.6873 76.3094V41.6444L6.32308 25.4867L3.6256 24.3201V58.2783ZM43.6875 37.7033L41.5292 36.7699L9.88168 23.0846H43.6875V37.7033ZM10.8375 19.4691H43.6875V4.61167L10.8375 19.4691ZM47.3129 23.0848H63.6277C64.6287 23.0848 65.4404 22.2753 65.4404 21.2771C65.4404 20.2789 64.6287 19.4694 63.6277 19.4694H47.3129V4.61167L84.7165 21.5288L49.4711 36.7701L47.3129 37.7034V23.0848ZM47.3129 76.3092L87.3746 58.2783V24.3201L84.6771 25.4867L47.3129 41.644V76.3092ZM71.2413 19.469H69.9724C68.9714 19.469 68.1597 20.2785 68.1597 21.2767C68.1597 22.2749 68.9714 23.0844 69.9724 23.0844H71.2413C72.2423 23.0844 73.054 22.2749 73.054 21.2767C73.054 20.2785 72.2423 19.469 71.2413 19.469ZM76.37 39.4282C75.8595 39.0941 75.2143 39.0389 74.654 39.281L60.8232 45.2617C60.1606 45.5485 59.7317 46.1999 59.7317 46.9204V59.1565C59.7317 59.7705 60.044 60.3423 60.561 60.675C60.8587 60.8667 61.2007 60.9642 61.5446 60.9642C61.7979 60.9642 62.0522 60.9112 62.2902 60.804L76.1208 54.5789C76.7704 54.2866 77.1879 53.6418 77.1879 52.9312V40.9393C77.1881 40.3305 76.8804 39.7623 76.37 39.4282ZM73.5627 51.764L63.3575 56.3573V48.1066L73.5627 43.6938V51.764Z" fill="#0A1430"/>
</svg>
