<svg width="9" height="9" viewBox="0 0 9 9" fill="none" xmlns="http://www.w3.org/2000/svg">
<path d="M8.764 6.6051L7.50538 5.34912C7.05587 4.90056 6.29171 5.08 6.1119 5.66312C5.97705 6.06684 5.52754 6.29112 5.12299 6.20139C4.22397 5.97711 3.01031 4.81085 2.78555 3.86886C2.6507 3.46514 2.9204 3.01657 3.32496 2.88202C3.90932 2.7026 4.08912 1.94004 3.63962 1.49147L2.381 0.235496C2.02139 -0.0784986 1.48198 -0.0784986 1.16733 0.235496L0.313265 1.08777C-0.540799 1.98489 0.403166 4.36228 2.51585 6.47053C4.62853 8.57878 7.01092 9.56564 7.90993 8.66849L8.764 7.81622C9.07867 7.45737 9.07867 6.9191 8.764 6.6051Z" fill="#50A5F1"/>
</svg>
