<svg width="90" height="67" viewBox="0 0 90 67" fill="none" xmlns="http://www.w3.org/2000/svg">
<path fill-rule="evenodd" clip-rule="evenodd" d="M79.5808 19.6895L82.6117 31.8498C86.7947 32.5248 90 36.1695 90 40.5526V51.1316C90 53.4326 88.5265 55.3948 86.4768 56.1201C86.4776 56.1504 86.4787 56.1806 86.4797 56.2108C86.482 56.2809 86.4844 56.3508 86.4844 56.4211C86.4844 62.2546 81.7534 67 75.9375 67C70.1216 67 65.3906 62.2546 65.3906 56.4211H32.6953C32.6953 62.2546 27.9643 67 22.1484 67C16.3326 67 11.6016 62.2546 11.6016 56.4211H5.27344C2.36549 56.4211 0 54.0484 0 51.1316V5.28947C0 2.37269 2.36549 0 5.27344 0H56.6016C59.5095 0 61.875 2.37269 61.875 5.28947V10.5789H75.9375C78.8454 10.5789 81.2109 12.9516 81.2109 15.8684C81.2109 17.2845 80.6582 18.6557 79.5808 19.6895ZM78.9594 31.7368L76.3227 21.1579H61.875V29.2429L65.9056 25.2008C66.5923 24.512 67.7046 24.512 68.3913 25.2008C69.0779 25.8895 69.0779 27.0052 68.3913 27.694L64.3607 31.7368H78.9594ZM77.6953 15.8684C77.6953 16.8416 76.9077 17.6316 75.9375 17.6316H61.875V14.1053H75.9375C76.907 14.1053 77.6953 14.8959 77.6953 15.8684ZM15.1172 56.4211C15.1172 60.3096 18.2716 63.4737 22.1484 63.4737C26.0252 63.4737 29.1797 60.3096 29.1797 56.4211C29.1797 52.4877 25.9772 49.3684 22.1484 49.3684C18.3286 49.3684 15.1172 52.4794 15.1172 56.4211ZM32.0918 52.8947C30.6237 48.7341 26.6501 45.8421 22.1484 45.8421C17.6447 45.8421 13.6697 48.7362 12.2044 52.8947H5.27344C4.30389 52.8947 3.51562 52.1041 3.51562 51.1316V5.28947C3.51562 4.31698 4.30389 3.52632 5.27344 3.52632H56.6016C57.5711 3.52632 58.3594 4.31698 58.3594 5.28947V52.8947H32.0918ZM68.9062 56.4211C68.9062 60.3096 72.0607 63.4737 75.9375 63.4737C79.8143 63.4737 82.9688 60.3096 82.9688 56.4211C82.9688 52.4877 79.7662 49.3684 75.9375 49.3684C72.1177 49.3684 68.9062 52.4794 68.9062 56.4211ZM85.7558 52.5579C84.1965 48.5784 80.3169 45.8421 75.9375 45.8421C71.4338 45.8421 67.4588 48.7362 65.9935 52.8947H61.875V35.2632H81.2109C83.5023 35.2632 85.4565 36.737 86.1823 38.7895H81.2109C80.24 38.7895 79.4531 39.5788 79.4531 40.5526C79.4531 41.5265 80.24 42.3158 81.2109 42.3158H86.4844V51.1316C86.4844 51.7177 86.196 52.237 85.7558 52.5579ZM72.4219 40.5526C72.4219 39.5795 73.2095 38.7895 74.1797 38.7895C75.1499 38.7895 75.9375 39.5795 75.9375 40.5526C75.9375 41.5258 75.1499 42.3158 74.1797 42.3158C73.2095 42.3158 72.4219 41.5258 72.4219 40.5526ZM72.4219 56.4211C72.4219 54.4726 73.995 52.8947 75.9375 52.8947C77.88 52.8947 79.4531 54.4726 79.4531 56.4211C79.4531 58.3695 77.88 59.9474 75.9375 59.9474C73.995 59.9474 72.4219 58.3695 72.4219 56.4211ZM22.1484 52.8947C20.2059 52.8947 18.6328 54.4726 18.6328 56.4211C18.6328 58.3695 20.2059 59.9474 22.1484 59.9474C24.091 59.9474 25.6641 58.3695 25.6641 56.4211C25.6641 54.4726 24.091 52.8947 22.1484 52.8947ZM15.1172 26.4474C15.1172 17.6977 22.2144 10.579 30.9375 10.579C39.6606 10.579 46.7578 17.6977 46.7578 26.4474C46.7578 35.1971 39.6606 42.3158 30.9375 42.3158C22.2144 42.3158 15.1172 35.1971 15.1172 26.4474ZM18.6328 26.4474C18.6328 33.2527 24.1528 38.7895 30.9375 38.7895C37.7222 38.7895 43.2422 33.2527 43.2422 26.4474C43.2422 19.642 37.7222 14.1053 30.9375 14.1053C24.1528 14.1053 18.6328 19.642 18.6328 26.4474ZM32.6953 24.6842H37.9688C38.9397 24.6842 39.7266 25.4735 39.7266 26.4474C39.7266 27.4212 38.9397 28.2105 37.9688 28.2105H30.9375C29.9666 28.2105 29.1797 27.4212 29.1797 26.4474V19.3947C29.1797 18.4209 29.9666 17.6316 30.9375 17.6316C31.9084 17.6316 32.6953 18.4209 32.6953 19.3947V24.6842Z" fill="#0A1430"/>
</svg>
