<svg width="18" height="18" viewBox="0 0 18 18" fill="none" xmlns="http://www.w3.org/2000/svg">
<path d="M12.8033 12.6967C11.9864 11.8798 11.0141 11.2751 9.95329 10.909C11.0895 10.1265 11.8359 8.81684 11.8359 7.33594C11.8359 4.94511 9.89083 3 7.5 3C5.10917 3 3.16406 4.94511 3.16406 7.33594C3.16406 8.81684 3.91052 10.1265 5.04674 10.909C3.9859 11.2751 3.01359 11.8798 2.19671 12.6967C0.780147 14.1133 0 15.9967 0 18H1.17188C1.17188 14.5107 4.01065 11.6719 7.5 11.6719C10.9893 11.6719 13.8281 14.5107 13.8281 18H15C15 15.9967 14.2199 14.1133 12.8033 12.6967ZM7.5 10.5C5.75534 10.5 4.33594 9.08063 4.33594 7.33594C4.33594 5.59125 5.75534 4.17188 7.5 4.17188C9.24466 4.17188 10.6641 5.59125 10.6641 7.33594C10.6641 9.08063 9.24466 10.5 7.5 10.5Z" fill="#CACBD0"/>
<path d="M13 5L15 3M17 1L15 3M15 3L17 5L13 1" stroke="#F46A6A" stroke-linecap="round" stroke-linejoin="round"/>
</svg>
