<svg width="18" height="18" viewBox="0 0 18 18" fill="none" xmlns="http://www.w3.org/2000/svg">
<path d="M9 0C4.03749 0 0 4.03749 0 9C0 13.9625 4.03749 18 9 18C13.9625 18 18 13.9625 18 9C18 4.03749 13.9625 0 9 0ZM9 16.875C4.65765 16.875 1.12501 13.3424 1.12501 9C1.12501 4.65765 4.65765 1.12501 9 1.12501C13.3424 1.12501 16.875 4.65765 16.875 9C16.875 13.3424 13.3424 16.875 9 16.875V16.875Z" fill="#2A3042"/>
<path d="M9.5625 3.9375C9.5625 3.62684 9.31066 3.375 9 3.375V3.375C8.68934 3.375 8.4375 3.62684 8.4375 3.9375V9.2329L11.5796 12.375C11.7992 12.5946 12.1553 12.5946 12.375 12.375V12.375C12.5946 12.1553 12.5946 11.7992 12.375 11.5796L9.5625 8.76707V3.9375Z" fill="#2A3042"/>
</svg>
