<svg width="22" height="22" viewBox="0 0 22 22" fill="none" xmlns="http://www.w3.org/2000/svg">
<g clip-path="url(#clip0)">
<path d="M1.2065 18.8365C1.98011 19.6107 3.02976 20.0455 4.12417 20.0451C5.21816 20.0477 6.26781 19.613 7.03972 18.8378L12.3659 13.5116C13.4197 12.4562 13.8225 10.9145 13.4198 9.47844C13.3018 9.06037 12.8673 8.81705 12.4492 8.93498C12.0312 9.0529 11.7878 9.48743 11.9058 9.90551C12.1541 10.7936 11.9049 11.7466 11.2538 12.3995L5.92762 17.7249C4.93184 18.7209 3.31714 18.7211 2.32113 17.7253C1.32512 16.7295 1.32493 15.1148 2.32072 14.1188L7.64688 8.79262C7.99592 8.44312 8.4392 8.20288 8.92257 8.10127C9.34784 8.01274 9.62079 7.59624 9.53226 7.17097C9.45613 6.80529 9.13331 6.54363 8.7598 6.54478C8.70483 6.54474 8.64999 6.55054 8.59621 6.56206C7.81504 6.72681 7.09875 7.11539 6.53478 7.68048L1.20857 13.0059C-0.402066 14.6154 -0.402988 17.2258 1.2065 18.8365Z" fill="#50A5F1"/>
<path d="M8.60328 12.5001C8.72121 12.9182 9.15574 13.1615 9.57381 13.0436C9.99188 12.9257 10.2352 12.4911 10.1173 12.0731C9.86898 11.185 10.1181 10.232 10.7693 9.57909L16.0955 4.25289C17.0913 3.25687 18.706 3.25669 19.702 4.25252C20.698 5.2483 20.6982 6.86299 19.7024 7.85901L14.3762 13.186C14.0277 13.5354 13.5849 13.7756 13.102 13.8773C12.6761 13.9626 12.3999 14.3769 12.4851 14.8028C12.5703 15.2287 12.9846 15.505 13.4105 15.4198C13.4157 15.4187 13.4209 15.4177 13.4261 15.4165C14.2074 15.2516 14.9239 14.863 15.4883 14.2981L20.8145 8.97189C22.4125 7.34923 22.3925 4.73838 20.7698 3.14038C19.1649 1.55983 16.5886 1.55965 14.9834 3.14001L9.65722 8.46699C8.60337 9.52246 8.20051 11.0641 8.60328 12.5001Z" fill="#50A5F1"/>
</g>
<defs>
<clipPath id="clip0">
<rect width="22" height="22" fill="white" transform="translate(22 22) rotate(-180)"/>
</clipPath>
</defs>
</svg>
