<svg width="12" height="12" viewBox="0 0 12 12" fill="none" xmlns="http://www.w3.org/2000/svg">
<path d="M11.4286 0H2.85714C2.70559 0 2.56025 0.0526784 2.45308 0.146447C2.34592 0.240215 2.28571 0.367392 2.28571 0.5V4H0.5C0.223858 4 0 4.22386 0 4.5C0 4.77614 0.223858 5 0.5 5H5.14286C5.25922 5.00003 5.37281 4.96897 5.46845 4.91098C5.5641 4.85299 5.63723 4.77084 5.67807 4.6755L7.19193 6L5.67807 7.3245C5.63723 7.22916 5.5641 7.14701 5.46845 7.08902C5.37281 7.03103 5.25922 6.99998 5.14286 7H0.500001C0.223858 7 0 7.22386 0 7.5C0 7.77614 0.223858 8 0.5 8H2.28571V11.5C2.28571 11.6326 2.34592 11.7598 2.45308 11.8536C2.56025 11.9473 2.70559 12 2.85714 12H11.4286C11.5801 12 11.7255 11.9473 11.8326 11.8536C11.9398 11.7598 12 11.6326 12 11.5V0.5C12 0.367392 11.9398 0.240215 11.8326 0.146447C11.7255 0.0526784 11.5801 0 11.4286 0ZM10.8571 11H3.42857V8H4.57143V8.5C4.57142 8.59889 4.60494 8.69557 4.66772 8.77779C4.73051 8.86002 4.81976 8.92411 4.92418 8.96196C5.0286 8.9998 5.14349 9.0097 5.25434 8.99041C5.36519 8.97112 5.46701 8.92349 5.54693 8.85356L8.40407 6.35356C8.45714 6.30713 8.49923 6.25201 8.52795 6.19135C8.55667 6.13068 8.57145 6.06566 8.57145 6C8.57145 5.93434 8.55667 5.86932 8.52795 5.80865C8.49923 5.74799 8.45714 5.69287 8.40407 5.64644L5.54693 3.14644C5.46701 3.07651 5.36519 3.02888 5.25434 3.00959C5.14349 2.9903 5.0286 3.0002 4.92418 3.03804C4.81976 3.07589 4.73051 3.13998 4.66772 3.22221C4.60494 3.30443 4.57142 3.40111 4.57143 3.5V4H3.42857V1H10.8571V11Z" fill="white"/>
<path d="M9.69231 6.46154C10.0079 6.46154 10.1538 6.27614 10.1538 6C10.1538 5.72386 10.0298 5.53846 9.71425 5.53846C9.39865 5.53846 9.23077 5.72386 9.23077 6C9.23077 6.27614 9.37671 6.46154 9.69231 6.46154Z" fill="white"/>
</svg>
