<svg xmlns="http://www.w3.org/2000/svg" viewBox="0 0 159.03 33.2"><defs><style>.cls-1{isolation:isolate;}.cls-2{fill:#ed1b24;}.cls-3{fill:#264e86;}</style></defs><title>2</title><g id="Слой_2" data-name="Слой 2"><g id="Слой_1-2" data-name="Слой 1"><g id="Page-4"><g id="_1300---автризация" data-name="1300---автризация"><g id="logo"><g id="Group-4"><g id="_1" data-name="1"><g id="ОНЛАЙН-ЗАПИСЬ" class="cls-1"><g class="cls-1"><path class="cls-2" d="M.4,9.72A8.73,8.73,0,0,1,.79,7.06,5.94,5.94,0,0,1,1.93,4.94,5.27,5.27,0,0,1,3.85,3.53,6.62,6.62,0,0,1,6.54,3a6.18,6.18,0,0,1,2.55.51A5.57,5.57,0,0,1,11,4.94a6.26,6.26,0,0,1,1.22,2.12,8.41,8.41,0,0,1,0,5.31A6.21,6.21,0,0,1,11,14.5a5.84,5.84,0,0,1-1.93,1.41,6.18,6.18,0,0,1-2.55.51,6.62,6.62,0,0,1-2.69-.51A5.51,5.51,0,0,1,1.93,14.5,5.9,5.9,0,0,1,.79,12.37,8.71,8.71,0,0,1,.4,9.72Zm6.14,4.39A3.17,3.17,0,0,0,8,13.78a3.21,3.21,0,0,0,1.09-.92,4.45,4.45,0,0,0,.68-1.38A6.57,6.57,0,0,0,10,9.72,6.52,6.52,0,0,0,9.77,8a4.51,4.51,0,0,0-.68-1.39A3.11,3.11,0,0,0,6.54,5.33,3.11,3.11,0,0,0,4,6.57,4.29,4.29,0,0,0,3.31,8a6.14,6.14,0,0,0-.24,1.76,6.19,6.19,0,0,0,.24,1.76A4.24,4.24,0,0,0,4,12.86a3.21,3.21,0,0,0,1.09.92A3.17,3.17,0,0,0,6.54,14.11Z"/><path class="cls-2" d="M14.4,3.34h2.67V8.19h5V3.34h2.67V16.1H22.08V10.4h-5v5.7H14.4Z"/><path class="cls-2" d="M34.82,5.54H31.08V7.46c0,1.16,0,2.19-.07,3.08s-.15,1.66-.26,2.31a8,8,0,0,1-.46,1.66,3.53,3.53,0,0,1-.64,1.07,2.19,2.19,0,0,1-.85.58,3.21,3.21,0,0,1-1,.17,5.13,5.13,0,0,1-.83-.06,2.77,2.77,0,0,1-.72-.2V13.63a1.09,1.09,0,0,0,.25.1l.27.06.23,0h.17a1.51,1.51,0,0,0,.44-.06.77.77,0,0,0,.37-.29,2.13,2.13,0,0,0,.28-.62,6.33,6.33,0,0,0,.2-1.09,16.64,16.64,0,0,0,.12-1.67c0-.67,0-1.46,0-2.39V3.34h8.9V16.1H34.82Z"/><path class="cls-2" d="M43.15,3.34H46.2L50.71,16.1h-2.9L47,13.47H42.29L41.4,16.1H38.59ZM43,11.26h3.25l-1.59-5h0Z"/><path class="cls-2" d="M52,3.34h2.56V12h0l5.05-8.69h2.7V16.1H59.81V7.46h0l-5,8.64H52Zm5.39-.67A4.09,4.09,0,0,1,54.9,2a2.41,2.41,0,0,1-.84-2h2a1.64,1.64,0,0,0,.08.5,1,1,0,0,0,.23.39,1,1,0,0,0,.4.25,1.89,1.89,0,0,0,.62.09A1.89,1.89,0,0,0,58,1.14a1.09,1.09,0,0,0,.42-.25A1.09,1.09,0,0,0,58.68.5a1.55,1.55,0,0,0,.07-.5h2a2.41,2.41,0,0,1-.84,2A4.09,4.09,0,0,1,57.41,2.67Z"/><path class="cls-2" d="M64.57,3.34h2.67V8.19h5V3.34h2.66V16.1H72.25V10.4h-5v5.7H64.57Z"/><path class="cls-2" d="M76.29,10h4.84v2.34H76.29Z"/></g><g class="cls-1"><path class="cls-3" d="M85.69,8.56h2.2a2.39,2.39,0,0,0,.71-.1,1.56,1.56,0,0,0,1-.84,1.67,1.67,0,0,0,.15-.73A1.71,1.71,0,0,0,89.51,6,1.55,1.55,0,0,0,89,5.47a2,2,0,0,0-.73-.28,4.65,4.65,0,0,0-.82-.08,3.57,3.57,0,0,0-.92.11,2.68,2.68,0,0,0-.68.28,2.32,2.32,0,0,0-.47.39,2.11,2.11,0,0,0-.29.42,2,2,0,0,0-.15.4,1.37,1.37,0,0,0,0,.3H82.41a4.92,4.92,0,0,1,.07-.67,3.48,3.48,0,0,1,.26-.84,3.49,3.49,0,0,1,.54-.88,3.37,3.37,0,0,1,.93-.8,5.32,5.32,0,0,1,1.42-.58,7.78,7.78,0,0,1,2-.22,6.23,6.23,0,0,1,2.1.32,4.5,4.5,0,0,1,1.45.84A3.3,3.3,0,0,1,92,5.31a3.06,3.06,0,0,1,.27,1.22,3.69,3.69,0,0,1-.08.72,2.38,2.38,0,0,1-.31.72,2.31,2.31,0,0,1-.6.66,2.85,2.85,0,0,1-1,.5v0l.44.13a3.23,3.23,0,0,1,.52.22,3.34,3.34,0,0,1,.52.37,2.18,2.18,0,0,1,.45.57,2.74,2.74,0,0,1,.33.81,4.43,4.43,0,0,1,.13,1.1,3.59,3.59,0,0,1-.36,1.58,3.63,3.63,0,0,1-1,1.28,5.13,5.13,0,0,1-1.68.88,7.65,7.65,0,0,1-2.3.32A11.51,11.51,0,0,1,86,16.34a6.87,6.87,0,0,1-1.23-.25,5.37,5.37,0,0,1-1.09-.48,3.14,3.14,0,0,1-.87-.75,3.29,3.29,0,0,1-.58-1.06A4.38,4.38,0,0,1,82,12.38H84.5a1.66,1.66,0,0,0,.15.67,1.74,1.74,0,0,0,.49.62,2.6,2.6,0,0,0,.88.46,4.68,4.68,0,0,0,2.57,0,2.42,2.42,0,0,0,.83-.45,1.72,1.72,0,0,0,.47-.65,1.88,1.88,0,0,0,.15-.74,2,2,0,0,0-.2-1,1.53,1.53,0,0,0-.52-.55,1.78,1.78,0,0,0-.68-.24A4.18,4.18,0,0,0,88,10.5H85.69Z"/><path class="cls-3" d="M98.12,3.34h3l4.51,12.76h-2.9L102,13.47H97.25l-.88,2.63H93.56ZM98,11.26h3.26l-1.59-5h0Z"/><path class="cls-3" d="M107,3.34h10.34V16.1h-2.66V5.54h-5V16.1H107Z"/><path class="cls-3" d="M119.54,3.34h2.56V12h0l5.05-8.69h2.7V16.1h-2.56V7.46h0l-5,8.64h-2.71Z"/><path class="cls-3" d="M140.34,7.53l-.13-.42a2.5,2.5,0,0,0-.21-.48,3.54,3.54,0,0,0-.34-.48,2.35,2.35,0,0,0-.51-.41,2.59,2.59,0,0,0-.73-.3,4.13,4.13,0,0,0-1-.11,3.25,3.25,0,0,0-.57.06,2.78,2.78,0,0,0-1.36.7,2.66,2.66,0,0,0-.6.8,4.63,4.63,0,0,0-.43,1.18,7.16,7.16,0,0,0-.17,1.65,7,7,0,0,0,.22,1.85,4.17,4.17,0,0,0,.62,1.38,2.9,2.9,0,0,0,1,.86,2.77,2.77,0,0,0,1.3.3,3.12,3.12,0,0,0,1.37-.26,2.6,2.6,0,0,0,.85-.64,2.43,2.43,0,0,0,.47-.78c.11-.27.19-.51.25-.71H143a6.3,6.3,0,0,1-.72,2.08,4.93,4.93,0,0,1-2.84,2.33,6.67,6.67,0,0,1-4.43-.19,4.9,4.9,0,0,1-1.85-1.35A5.87,5.87,0,0,1,132,12.48a9.11,9.11,0,0,1-.39-2.76,9.39,9.39,0,0,1,.22-2.14,6.74,6.74,0,0,1,.63-1.69,5.53,5.53,0,0,1,1-1.29,5.33,5.33,0,0,1,1.2-.89A5.54,5.54,0,0,1,136,3.19,6.44,6.44,0,0,1,137.42,3a6.9,6.9,0,0,1,1.85.22,5.55,5.55,0,0,1,1.42.58,4.51,4.51,0,0,1,1,.83,5.22,5.22,0,0,1,.71,1,4.45,4.45,0,0,1,.4,1,4.79,4.79,0,0,1,.17.91Z"/><path class="cls-3" d="M144.85,3.34h2.67v5h2.54l.73,0a5.79,5.79,0,0,1,1,.13,4.78,4.78,0,0,1,1,.34,3.12,3.12,0,0,1,.92.66,3.26,3.26,0,0,1,.68,1.1,4.57,4.57,0,0,1,.26,1.63,4.53,4.53,0,0,1-.26,1.63,3.34,3.34,0,0,1-.66,1.09,3,3,0,0,1-.9.65,4.18,4.18,0,0,1-.95.34,4,4,0,0,1-.85.13l-.57,0h-5.6Zm2.67,10.55h2.25a6.3,6.3,0,0,0,.75-.05,2.17,2.17,0,0,0,.72-.23,1.36,1.36,0,0,0,.53-.51,1.77,1.77,0,0,0,.21-.92,1.79,1.79,0,0,0-.21-.94,1.32,1.32,0,0,0-.53-.52,2.19,2.19,0,0,0-.74-.21,7.7,7.7,0,0,0-.83,0h-2.15Z"/></g></g><g id="Онлайн-запись_-учет_" data-name="Онлайн-запись,-учет," class="cls-1"><g class="cls-1"><path class="cls-3" d="M3.73,31.25a3.62,3.62,0,0,1-1.63-.34A3.28,3.28,0,0,1,.93,30a3.88,3.88,0,0,1-.7-1.3,5.41,5.41,0,0,1,0-3.12,4,4,0,0,1,.7-1.31,3.42,3.42,0,0,1,1.17-.91A3.76,3.76,0,0,1,3.73,23a3.72,3.72,0,0,1,1.62.34,3.38,3.38,0,0,1,1.16.91,3.85,3.85,0,0,1,.7,1.31,5.41,5.41,0,0,1,0,3.12,3.71,3.71,0,0,1-.7,1.3,3.24,3.24,0,0,1-1.16.9A3.58,3.58,0,0,1,3.73,31.25Zm0-.64a2.85,2.85,0,0,0,1.34-.3A2.71,2.71,0,0,0,6,29.52a3.35,3.35,0,0,0,.53-1.11,4.79,4.79,0,0,0,0-2.53A3.31,3.31,0,0,0,6,24.76,2.71,2.71,0,0,0,5.07,24a2.85,2.85,0,0,0-1.34-.3,2.81,2.81,0,0,0-1.35.3,2.65,2.65,0,0,0-.93.79,3.51,3.51,0,0,0-.53,1.12,4.79,4.79,0,0,0,0,2.53,3.56,3.56,0,0,0,.53,1.11,2.65,2.65,0,0,0,.93.79A2.81,2.81,0,0,0,3.73,30.61Z"/><path class="cls-3" d="M8.39,25.39h.7V27.8h3.24V25.39H13V31.1h-.7V28.4H9.09v2.7h-.7Z"/><path class="cls-3" d="M14.2,31.15h-.13l-.16,0-.16,0-.1,0v-.61a.71.71,0,0,0,.26.06l.3,0,.25,0a.56.56,0,0,0,.26-.18,1.78,1.78,0,0,0,.26-.47,5.11,5.11,0,0,0,.21-.89c.05-.38.1-.86.14-1.44s.05-1.29.05-2.13H19.2V31.1h-.7V26H16.05c0,.82,0,1.52-.07,2.09a12.51,12.51,0,0,1-.2,1.44,3.72,3.72,0,0,1-.31.9,1.44,1.44,0,0,1-.38.49.89.89,0,0,1-.43.2A2.32,2.32,0,0,1,14.2,31.15Z"/><path class="cls-3" d="M22,31.25a2.94,2.94,0,0,1-.74-.09,1.66,1.66,0,0,1-.61-.3,1.4,1.4,0,0,1-.41-.52,1.73,1.73,0,0,1-.15-.75,1.53,1.53,0,0,1,.26-.93,1.78,1.78,0,0,1,.71-.51,4,4,0,0,1,1-.25l1.11-.14.38-.05a.64.64,0,0,0,.29-.12.54.54,0,0,0,.17-.22,1,1,0,0,0,.06-.38,1.22,1.22,0,0,0-.12-.58.93.93,0,0,0-.32-.36,1.15,1.15,0,0,0-.47-.18,3.58,3.58,0,0,0-.58-.05,1.76,1.76,0,0,0-1.09.31,1.22,1.22,0,0,0-.44,1h-.7a1.88,1.88,0,0,1,.69-1.46,2.66,2.66,0,0,1,1.62-.46,4.88,4.88,0,0,1,.76.07,1.74,1.74,0,0,1,.67.28,1.46,1.46,0,0,1,.49.55,2.12,2.12,0,0,1,.19.94v3c0,.28.13.42.4.42a.41.41,0,0,0,.23-.05v.59l-.22,0-.24,0a1,1,0,0,1-.42-.08.5.5,0,0,1-.25-.2.76.76,0,0,1-.12-.32,2.41,2.41,0,0,1,0-.4h0a3.33,3.33,0,0,1-.38.49,1.62,1.62,0,0,1-.43.36,1.81,1.81,0,0,1-.55.22A3.11,3.11,0,0,1,22,31.25Zm.06-.57a2.43,2.43,0,0,0,.76-.13,2,2,0,0,0,.64-.35,1.82,1.82,0,0,0,.43-.56,1.84,1.84,0,0,0,.16-.76V28h0a.39.39,0,0,1-.26.17,1.57,1.57,0,0,1-.33.08l-.91.14a5,5,0,0,0-.86.18,1.6,1.6,0,0,0-.64.36.83.83,0,0,0-.24.64,1,1,0,0,0,.1.47,1.17,1.17,0,0,0,.28.35,1.27,1.27,0,0,0,.41.23A1.51,1.51,0,0,0,22.1,30.68Z"/><path class="cls-3" d="M26.09,25.39h.7v4.89l3.15-4.89h.86V31.1h-.7V26.21L27,31.1h-.86Zm2.33-.84a1.54,1.54,0,0,1-1.08-.37,1.72,1.72,0,0,1-.48-1.07h.44a1,1,0,0,0,.34.66,1.17,1.17,0,0,0,.79.25,1.21,1.21,0,0,0,.78-.24,1.07,1.07,0,0,0,.4-.67H30a1.87,1.87,0,0,1-.52,1.07A1.59,1.59,0,0,1,28.42,24.55Z"/><path class="cls-3" d="M32,25.39h.7V27.8H36V25.39h.69V31.1H36V28.4H32.73v2.7H32Z"/><path class="cls-3" d="M40.48,27.88v.68h-2.8v-.68Z"/><path class="cls-3" d="M43.51,31.25a2.49,2.49,0,0,1-1.72-.52,2,2,0,0,1-.64-1.43h.7a2.18,2.18,0,0,0,.15.56,1.35,1.35,0,0,0,.31.43,1.34,1.34,0,0,0,.5.27,2.41,2.41,0,0,0,.71.09,2.06,2.06,0,0,0,.77-.11,1.14,1.14,0,0,0,.47-.29.88.88,0,0,0,.24-.4,1.35,1.35,0,0,0,.07-.44,1.05,1.05,0,0,0-.28-.73,1.29,1.29,0,0,0-.94-.29h-1v-.53h.79a1.37,1.37,0,0,0,.85-.27.9.9,0,0,0,.35-.77,1,1,0,0,0,0-.33.69.69,0,0,0-.2-.32,1.35,1.35,0,0,0-.43-.25,2.43,2.43,0,0,0-.72-.09,1.59,1.59,0,0,0-1.14.35,1.41,1.41,0,0,0-.4.87h-.69a2,2,0,0,1,.25-.87,1.79,1.79,0,0,1,.49-.56,2,2,0,0,1,.69-.3,3.59,3.59,0,0,1,.81-.09,3.55,3.55,0,0,1,.82.09,1.91,1.91,0,0,1,.67.26,1.3,1.3,0,0,1,.45.48,1.31,1.31,0,0,1,.17.71,1.4,1.4,0,0,1-.08.47,1.46,1.46,0,0,1-.2.37,1.53,1.53,0,0,1-.29.28,1,1,0,0,1-.35.14v0a1.87,1.87,0,0,1,.4.13,1.21,1.21,0,0,1,.35.24,1.26,1.26,0,0,1,.26.4,1.42,1.42,0,0,1,.1.57,1.68,1.68,0,0,1-.19.82,1.74,1.74,0,0,1-.5.58,2.23,2.23,0,0,1-.73.34A3.15,3.15,0,0,1,43.51,31.25Z"/><path class="cls-3" d="M48.4,31.25a3,3,0,0,1-.75-.09,1.83,1.83,0,0,1-.61-.3,1.5,1.5,0,0,1-.41-.52,1.73,1.73,0,0,1-.15-.75,1.47,1.47,0,0,1,.27-.93,1.74,1.74,0,0,1,.7-.51,4,4,0,0,1,1-.25l1.11-.14.38-.05a.6.6,0,0,0,.28-.12.47.47,0,0,0,.17-.22,1,1,0,0,0,.06-.38,1.23,1.23,0,0,0-.11-.58,1,1,0,0,0-.32-.36,1.26,1.26,0,0,0-.48-.18,3.48,3.48,0,0,0-.58-.05,1.75,1.75,0,0,0-1.08.31,1.26,1.26,0,0,0-.45,1h-.69a1.82,1.82,0,0,1,.69-1.46A2.64,2.64,0,0,1,49,25.22a4.76,4.76,0,0,1,.75.07,1.78,1.78,0,0,1,.68.28,1.36,1.36,0,0,1,.48.55,2,2,0,0,1,.19.94v3a.37.37,0,0,0,.41.42.38.38,0,0,0,.22-.05v.59l-.21,0-.24,0a1,1,0,0,1-.43-.08.5.5,0,0,1-.25-.2.64.64,0,0,1-.11-.32,2.41,2.41,0,0,1,0-.4h0a4.2,4.2,0,0,1-.39.49,1.48,1.48,0,0,1-.43.36,1.86,1.86,0,0,1-.54.22A3.11,3.11,0,0,1,48.4,31.25Zm.05-.57a2.49,2.49,0,0,0,.77-.13,1.93,1.93,0,0,0,.63-.35,1.67,1.67,0,0,0,.59-1.32V28h0a.37.37,0,0,1-.25.17,1.81,1.81,0,0,1-.34.08l-.91.14a4.88,4.88,0,0,0-.85.18,1.6,1.6,0,0,0-.64.36.8.8,0,0,0-.25.64,1,1,0,0,0,.11.47,1.17,1.17,0,0,0,.28.35,1.23,1.23,0,0,0,.4.23A1.51,1.51,0,0,0,48.45,30.68Z"/><path class="cls-3" d="M52.45,25.39H57V31.1h-.69V26H53.14V31.1h-.69Z"/><path class="cls-3" d="M58.23,25.39h.7v4.89l3.15-4.89h.86V31.1h-.69V26.21L59.09,31.1h-.86Z"/><path class="cls-3" d="M66.59,31.25A2.63,2.63,0,0,1,65.44,31a2.48,2.48,0,0,1-.85-.64,3,3,0,0,1-.52-1,3.86,3.86,0,0,1,0-2.33,2.78,2.78,0,0,1,.52-1,2.7,2.7,0,0,1,3.56-.41,2.06,2.06,0,0,1,.75,1.47h-.69a1.94,1.94,0,0,0-.54-1,1.5,1.5,0,0,0-1.08-.36,1.75,1.75,0,0,0-.87.21,2,2,0,0,0-.63.55,2.55,2.55,0,0,0-.37.78,3.11,3.11,0,0,0,0,1.78,2.39,2.39,0,0,0,.37.77,2,2,0,0,0,.63.56,1.75,1.75,0,0,0,.87.21,1.55,1.55,0,0,0,.61-.13,1.6,1.6,0,0,0,.87-.85,1.74,1.74,0,0,0,.18-.65H69a2.64,2.64,0,0,1-.77,1.62A2.21,2.21,0,0,1,66.59,31.25Z"/><path class="cls-3" d="M69.89,25.39h.69v2.28h2a1.93,1.93,0,0,1,1.32.44,1.64,1.64,0,0,1,.48,1.26A1.68,1.68,0,0,1,74,30.64a1.89,1.89,0,0,1-1.32.46H69.89Zm2.57,5.11a1.43,1.43,0,0,0,.94-.29,1.05,1.05,0,0,0,.34-.84,1,1,0,0,0-.34-.84,1.48,1.48,0,0,0-.94-.27H70.58V30.5Z"/><path class="cls-3" d="M76.57,31.43a1.27,1.27,0,0,1-.23.78,1.13,1.13,0,0,1-.58.4V32.2A1.12,1.12,0,0,0,76,32a.8.8,0,0,0,.13-.49V31.1h-.38v-1h.81Z"/><path class="cls-3" d="M81.74,33.2l-.32,0a.65.65,0,0,1-.21,0v-.6l.24,0,.24,0a.86.86,0,0,0,.38-.07.68.68,0,0,0,.26-.18,1.15,1.15,0,0,0,.19-.28l.16-.36.25-.64-2.28-5.68h.74l1.88,4.86L85,25.39h.7L83.25,32c-.11.24-.2.44-.29.6a1.72,1.72,0,0,1-.29.38,1.07,1.07,0,0,1-.38.2A2.09,2.09,0,0,1,81.74,33.2Z"/><path class="cls-3" d="M89.83,28.6a2.8,2.8,0,0,1-.38.13l-.47.11a4.17,4.17,0,0,1-.51.08l-.53,0a2,2,0,0,1-1.34-.42,1.84,1.84,0,0,1-.47-1.42V25.39h.7v1.79a1.42,1.42,0,0,0,.12.65.69.69,0,0,0,.3.33,1,1,0,0,0,.4.13l.43,0A5.44,5.44,0,0,0,89.83,28V25.39h.69V31.1h-.69Z"/><path class="cls-3" d="M94.05,31.25A2.66,2.66,0,0,1,92.88,31a2.21,2.21,0,0,1-.8-.65,3,3,0,0,1-.45-1,4.28,4.28,0,0,1-.15-1.16,4.11,4.11,0,0,1,.15-1.1,3.09,3.09,0,0,1,.45-1,2.43,2.43,0,0,1,.8-.69,2.52,2.52,0,0,1,1.17-.26,2.42,2.42,0,0,1,1.18.28,2.37,2.37,0,0,1,.79.72,3.16,3.16,0,0,1,.43,1,4.26,4.26,0,0,1,.11,1.18H92.17a3.13,3.13,0,0,0,.11.79,2,2,0,0,0,.34.71,1.73,1.73,0,0,0,.58.53,1.56,1.56,0,0,0,.85.22,1.74,1.74,0,0,0,1.2-.4,2.09,2.09,0,0,0,.59-1.06h.7a2.83,2.83,0,0,1-.81,1.5A2.45,2.45,0,0,1,94.05,31.25Zm1.82-3.42a2.69,2.69,0,0,0-.14-.75,2.21,2.21,0,0,0-.36-.64,1.65,1.65,0,0,0-1.32-.62,1.7,1.7,0,0,0-.76.17,1.64,1.64,0,0,0-.56.45,2,2,0,0,0-.37.64,3,3,0,0,0-.19.75Z"/><path class="cls-3" d="M98.86,26H96.75v-.6h4.92V26H99.56V31.1h-.7Z"/><path class="cls-3" d="M103.52,31.43a1.27,1.27,0,0,1-.23.78,1.13,1.13,0,0,1-.58.4V32.2A1.16,1.16,0,0,0,103,32a.8.8,0,0,0,.12-.49V31.1h-.38v-1h.81Z"/><path class="cls-3" d="M108.23,25.39h.93l2.12,4.92,2.11-4.92h.92V31.1h-.69V26.4h0l-2,4.7H111l-2-4.7h0v4.7h-.7Z"/><path class="cls-3" d="M117.16,31.25a3,3,0,0,1-.75-.09,1.83,1.83,0,0,1-.61-.3,1.5,1.5,0,0,1-.41-.52,1.73,1.73,0,0,1-.15-.75,1.47,1.47,0,0,1,.27-.93,1.74,1.74,0,0,1,.7-.51,4,4,0,0,1,1-.25l1.11-.14.38-.05a.6.6,0,0,0,.28-.12.54.54,0,0,0,.17-.22,1,1,0,0,0,.06-.38,1.23,1.23,0,0,0-.11-.58,1,1,0,0,0-.32-.36,1.26,1.26,0,0,0-.48-.18,3.48,3.48,0,0,0-.58-.05,1.75,1.75,0,0,0-1.08.31,1.26,1.26,0,0,0-.45,1h-.69a1.82,1.82,0,0,1,.69-1.46,2.62,2.62,0,0,1,1.62-.46,4.76,4.76,0,0,1,.75.07,1.78,1.78,0,0,1,.68.28,1.44,1.44,0,0,1,.48.55,2,2,0,0,1,.19.94v3a.37.37,0,0,0,.41.42.38.38,0,0,0,.22-.05v.59l-.22,0-.23,0a1,1,0,0,1-.43-.08.5.5,0,0,1-.25-.2.64.64,0,0,1-.11-.32,2.41,2.41,0,0,1,0-.4h0a4.2,4.2,0,0,1-.39.49,1.48,1.48,0,0,1-.43.36,1.86,1.86,0,0,1-.54.22A3.11,3.11,0,0,1,117.16,31.25Zm0-.57a2.49,2.49,0,0,0,.77-.13,1.93,1.93,0,0,0,.63-.35,1.67,1.67,0,0,0,.59-1.32V28h0a.37.37,0,0,1-.25.17,1.81,1.81,0,0,1-.34.08l-.91.14a4.88,4.88,0,0,0-.85.18,1.53,1.53,0,0,0-.64.36.8.8,0,0,0-.25.64,1,1,0,0,0,.11.47,1.17,1.17,0,0,0,.28.35,1.23,1.23,0,0,0,.4.23A1.51,1.51,0,0,0,117.21,30.68Z"/><path class="cls-3" d="M121.22,25.39h.64v1.08h0a1.87,1.87,0,0,1,.79-.92,2.6,2.6,0,0,1,2.38-.08,2.32,2.32,0,0,1,.8.65,3,3,0,0,1,.48,1,4.52,4.52,0,0,1,0,2.31,3.09,3.09,0,0,1-.48,1,2.21,2.21,0,0,1-.8.65,2.51,2.51,0,0,1-1.13.24,2.59,2.59,0,0,1-.63-.08,2.35,2.35,0,0,1-.57-.23,1.75,1.75,0,0,1-.47-.39,1.61,1.61,0,0,1-.32-.54h0V33.2h-.69Zm2.7,5.29a1.65,1.65,0,0,0,.85-.22,1.82,1.82,0,0,0,.58-.56,2.39,2.39,0,0,0,.33-.78,3.88,3.88,0,0,0,0-1.75,2.48,2.48,0,0,0-.33-.78,1.79,1.79,0,0,0-.58-.55,1.56,1.56,0,0,0-.85-.22,2.09,2.09,0,0,0-1,.2,1.69,1.69,0,0,0-.62.53,2.13,2.13,0,0,0-.32.77,4,4,0,0,0-.1.93,3.7,3.7,0,0,0,.11.87,2.2,2.2,0,0,0,.34.78,1.85,1.85,0,0,0,.62.56A2,2,0,0,0,123.92,30.68Z"/><path class="cls-3" d="M127.49,25.39h.69v2.93l3.17-2.93h.93l-2.43,2.23,2.57,3.48h-.87l-2.21-3-1.16,1.07V31.1h-.69Z"/><path class="cls-3" d="M135.21,31.25A2.67,2.67,0,0,1,134,31a2.1,2.1,0,0,1-.79-.65,2.85,2.85,0,0,1-.46-1,4.28,4.28,0,0,1-.15-1.16,4.11,4.11,0,0,1,.15-1.1,2.9,2.9,0,0,1,.46-1,2.3,2.3,0,0,1,.79-.69,2.54,2.54,0,0,1,1.18-.26,2.41,2.41,0,0,1,1.17.28,2.28,2.28,0,0,1,.79.72,3.18,3.18,0,0,1,.44,1,4.68,4.68,0,0,1,.11,1.18h-4.39a3.11,3.11,0,0,0,.1.79,2,2,0,0,0,.34.71,1.67,1.67,0,0,0,.59.53,1.54,1.54,0,0,0,.85.22,1.71,1.71,0,0,0,1.19-.4,2.1,2.1,0,0,0,.6-1.06h.7a2.78,2.78,0,0,1-.82,1.5A2.42,2.42,0,0,1,135.21,31.25ZM137,27.83a2.37,2.37,0,0,0-.14-.75,1.83,1.83,0,0,0-.36-.64A1.64,1.64,0,0,0,136,26a1.66,1.66,0,0,0-.75-.17,1.74,1.74,0,0,0-.77.17,1.64,1.64,0,0,0-.56.45,2.24,2.24,0,0,0-.37.64,3.41,3.41,0,0,0-.18.75Z"/><path class="cls-3" d="M140,26h-2.11v-.6h4.92V26h-2.12V31.1H140Z"/><path class="cls-3" d="M143.39,25.39h.7v4.89l3.15-4.89h.86V31.1h-.69V26.21l-3.16,4.89h-.86Z"/><path class="cls-3" d="M149.33,25.39h.7V27.8h3.24V25.39H154V31.1h-.69V28.4H150v2.7h-.7Z"/><path class="cls-3" d="M155.26,25.39H159V26H156V31.1h-.69Z"/></g></g></g></g></g></g></g></g></g></svg>