<?xml version="1.0" encoding="utf-8"?>
<!-- Generator: Adobe Illustrator 22.0.1, SVG Export Plug-In . SVG Version: 6.00 Build 0)  -->
<svg version="1.1" id="Слой_1" xmlns="http://www.w3.org/2000/svg" xmlns:xlink="http://www.w3.org/1999/xlink" x="0px" y="0px"
	 viewBox="0 0 164 20" style="enable-background:new 0 0 164 20;" xml:space="preserve">
<style type="text/css">
	.st0{enable-background:new    ;}
	.st1{fill:#ED1B24;}
	.st2{fill:#FFFFFF;}
</style>
<title>logo</title>
<desc>Created with Sketch.</desc>
<g id="Page-1">
	<g id="new-appointment-rus-copy-42" transform="translate(-21.000000, -18.000000)">
		<g id="logo" transform="translate(21.000000, 16.000000)">
			<g transform="translate(0.552799, 0.492444)">
				<g class="st0">
					<path class="st1" d="M9.1,12.1c0-1,0.1-1.8,0.4-2.7s0.6-1.5,1.1-2.1c0.5-0.6,1.1-1.1,1.9-1.4c0.8-0.3,1.7-0.5,2.7-0.5
						c0.9,0,1.8,0.2,2.6,0.5c0.8,0.3,1.4,0.8,1.9,1.4s0.9,1.3,1.2,2.1c0.3,0.8,0.4,1.7,0.4,2.7c0,0.9-0.1,1.8-0.4,2.6
						c-0.3,0.8-0.7,1.5-1.2,2.1s-1.2,1.1-1.9,1.4c-0.8,0.3-1.6,0.5-2.6,0.5c-1,0-1.9-0.2-2.7-0.5c-0.8-0.3-1.4-0.8-1.9-1.4
						c-0.5-0.6-0.9-1.3-1.1-2.1S9.1,13,9.1,12.1z M15.2,16.5c0.5,0,1-0.1,1.5-0.3c0.4-0.2,0.8-0.5,1.1-0.9c0.3-0.4,0.5-0.9,0.7-1.4
						s0.2-1.1,0.2-1.8c0-0.6-0.1-1.2-0.2-1.8s-0.4-1-0.7-1.4S17.1,8.2,16.7,8c-0.4-0.2-0.9-0.3-1.5-0.3c-0.5,0-1,0.1-1.5,0.3
						c-0.4,0.2-0.8,0.5-1.1,0.9s-0.5,0.9-0.7,1.4s-0.2,1.1-0.2,1.8c0,0.6,0.1,1.2,0.2,1.8s0.4,1,0.7,1.4c0.3,0.4,0.7,0.7,1.1,0.9
						C14.2,16.3,14.7,16.5,15.2,16.5z"/>
					<path class="st1" d="M23.1,5.7h2.7v4.9h5V5.7h2.7v12.8h-2.7v-5.7h-5v5.7h-2.7V5.7z"/>
					<path class="st1" d="M43.5,7.9h-3.7l0,1.9c0,1.2,0,2.2-0.1,3.1c-0.1,0.9-0.1,1.7-0.3,2.3c-0.1,0.7-0.3,1.2-0.5,1.7
						s-0.4,0.8-0.6,1.1c-0.2,0.3-0.5,0.5-0.9,0.6c-0.3,0.1-0.7,0.2-1,0.2c-0.3,0-0.6,0-0.8-0.1c-0.2,0-0.5-0.1-0.7-0.2l0-2.4
						c0.1,0,0.2,0.1,0.3,0.1c0.1,0,0.2,0,0.3,0.1s0.2,0,0.2,0c0.1,0,0.1,0,0.2,0c0.2,0,0.3,0,0.4-0.1c0.1,0,0.3-0.1,0.4-0.3
						s0.2-0.4,0.3-0.6c0.1-0.3,0.1-0.6,0.2-1.1s0.1-1,0.1-1.7c0-0.7,0-1.5,0-2.4V5.7h8.9v12.8h-2.7V7.9z"/>
					<path class="st1" d="M51.8,5.7h3l4.5,12.8h-2.9l-0.8-2.6H51l-0.9,2.6h-2.8L51.8,5.7z M51.7,13.6h3.3l-1.6-5h0L51.7,13.6z"/>
					<path class="st1" d="M60.7,5.7h2.6v8.7h0l5-8.7h2.7v12.8h-2.6V9.8h0l-5,8.6h-2.7V5.7z M66.1,5c-1.1,0-1.9-0.2-2.5-0.7
						c-0.6-0.4-0.8-1.1-0.8-2h2c0,0.2,0,0.3,0.1,0.5c0,0.2,0.1,0.3,0.2,0.4c0.1,0.1,0.2,0.2,0.4,0.3c0.2,0.1,0.4,0.1,0.6,0.1
						c0.2,0,0.4,0,0.6-0.1c0.2-0.1,0.3-0.1,0.4-0.3c0.1-0.1,0.2-0.2,0.2-0.4c0-0.2,0.1-0.3,0.1-0.5h2c0,0.9-0.3,1.6-0.8,2
						S67.2,5,66.1,5z"/>
					<path class="st1" d="M73.3,5.7h2.7v4.9h5V5.7h2.7v12.8h-2.7v-5.7h-5v5.7h-2.7V5.7z"/>
					<path class="st1" d="M85,12.3h4.8v2.3H85V12.3z"/>
				</g>
				<g class="st0">
					<path class="st2" d="M94.4,10.9l2.2,0c0.2,0,0.5,0,0.7-0.1s0.4-0.2,0.6-0.3s0.3-0.3,0.4-0.5c0.1-0.2,0.1-0.5,0.1-0.7
						c0-0.4-0.1-0.6-0.2-0.9s-0.3-0.4-0.5-0.5s-0.5-0.2-0.7-0.3c-0.3-0.1-0.5-0.1-0.8-0.1c-0.4,0-0.7,0-0.9,0.1
						c-0.3,0.1-0.5,0.2-0.7,0.3C94.3,8,94.2,8.1,94,8.2c-0.1,0.1-0.2,0.3-0.3,0.4s-0.1,0.3-0.1,0.4s0,0.2,0,0.3h-2.5
						c0-0.2,0-0.4,0.1-0.7c0-0.3,0.1-0.5,0.3-0.8C91.6,7.6,91.7,7.3,92,7s0.5-0.6,0.9-0.8c0.4-0.2,0.9-0.4,1.4-0.6s1.2-0.2,2-0.2
						c0.8,0,1.5,0.1,2.1,0.3c0.6,0.2,1.1,0.5,1.4,0.8c0.4,0.3,0.7,0.7,0.8,1.1c0.2,0.4,0.3,0.8,0.3,1.2c0,0.2,0,0.5-0.1,0.7
						c-0.1,0.2-0.2,0.5-0.3,0.7s-0.3,0.5-0.6,0.7s-0.6,0.4-1,0.5v0c0.1,0,0.3,0.1,0.4,0.1c0.2,0.1,0.3,0.1,0.5,0.2
						c0.2,0.1,0.4,0.2,0.5,0.4c0.2,0.2,0.3,0.3,0.5,0.6s0.2,0.5,0.3,0.8s0.1,0.7,0.1,1.1c0,0.6-0.1,1.1-0.4,1.6
						c-0.2,0.5-0.6,0.9-1,1.3s-1,0.7-1.7,0.9s-1.4,0.3-2.3,0.3c-0.4,0-0.9,0-1.3-0.1c-0.4,0-0.8-0.1-1.2-0.3
						c-0.4-0.1-0.8-0.3-1.1-0.5c-0.3-0.2-0.6-0.4-0.9-0.7s-0.4-0.7-0.6-1.1c-0.1-0.4-0.2-0.9-0.2-1.4h2.5c0,0.2,0,0.4,0.2,0.7
						s0.3,0.4,0.5,0.6c0.2,0.2,0.5,0.3,0.9,0.5c0.4,0.1,0.8,0.2,1.3,0.2c0.5,0,0.9-0.1,1.2-0.2c0.3-0.1,0.6-0.3,0.8-0.5
						c0.2-0.2,0.4-0.4,0.5-0.6s0.1-0.5,0.1-0.7c0-0.4-0.1-0.7-0.2-1c-0.1-0.2-0.3-0.4-0.5-0.6c-0.2-0.1-0.4-0.2-0.7-0.2
						c-0.2,0-0.5-0.1-0.7-0.1h-2.3V10.9z"/>
					<path class="st2" d="M106.8,5.7h3l4.5,12.8h-2.9l-0.8-2.6h-4.7l-0.9,2.6h-2.8L106.8,5.7z M106.7,13.6h3.3l-1.6-5h0L106.7,13.6z
						"/>
					<path class="st2" d="M115.7,5.7H126v12.8h-2.7V7.9h-5v10.6h-2.7V5.7z"/>
					<path class="st2" d="M128.2,5.7h2.6v8.7h0l5-8.7h2.7v12.8H136V9.8h0l-5,8.6h-2.7V5.7z"/>
					<path class="st2" d="M149,9.9c0-0.1-0.1-0.3-0.1-0.4c-0.1-0.2-0.1-0.3-0.2-0.5c-0.1-0.2-0.2-0.3-0.3-0.5
						c-0.1-0.2-0.3-0.3-0.5-0.4c-0.2-0.1-0.4-0.2-0.7-0.3c-0.3-0.1-0.6-0.1-1-0.1c-0.2,0-0.4,0-0.6,0.1s-0.4,0.1-0.7,0.2
						c-0.2,0.1-0.5,0.3-0.7,0.5c-0.2,0.2-0.4,0.5-0.6,0.8c-0.2,0.3-0.3,0.7-0.4,1.2c-0.1,0.5-0.2,1-0.2,1.6c0,0.7,0.1,1.3,0.2,1.8
						s0.4,1,0.6,1.4c0.3,0.4,0.6,0.7,1,0.9c0.4,0.2,0.8,0.3,1.3,0.3c0.6,0,1-0.1,1.4-0.3c0.4-0.2,0.6-0.4,0.8-0.6
						c0.2-0.2,0.4-0.5,0.5-0.8c0.1-0.3,0.2-0.5,0.2-0.7h2.6c-0.1,0.8-0.4,1.5-0.7,2.1c-0.3,0.6-0.7,1.1-1.2,1.5
						c-0.5,0.4-1,0.7-1.6,0.9c-0.6,0.2-1.2,0.3-1.9,0.3c-0.9,0-1.8-0.2-2.5-0.5c-0.7-0.3-1.3-0.8-1.8-1.3c-0.5-0.6-0.9-1.3-1.1-2.1
						c-0.3-0.8-0.4-1.7-0.4-2.8c0-0.8,0.1-1.5,0.2-2.1c0.2-0.6,0.4-1.2,0.6-1.7c0.3-0.5,0.6-0.9,0.9-1.3c0.4-0.4,0.8-0.7,1.2-0.9
						s0.9-0.4,1.4-0.5c0.5-0.1,1-0.2,1.4-0.2c0.7,0,1.3,0.1,1.8,0.2c0.5,0.1,1,0.3,1.4,0.6c0.4,0.2,0.8,0.5,1,0.8s0.5,0.6,0.7,1
						c0.2,0.3,0.3,0.7,0.4,1c0.1,0.3,0.1,0.6,0.2,0.9H149z"/>
					<path class="st2" d="M153.5,5.7h2.7v5h2.5c0.2,0,0.4,0,0.7,0s0.6,0.1,1,0.1c0.3,0.1,0.7,0.2,1,0.3c0.3,0.2,0.7,0.4,0.9,0.7
						c0.3,0.3,0.5,0.6,0.7,1.1c0.2,0.4,0.3,1,0.3,1.6c0,0.6-0.1,1.2-0.3,1.6c-0.2,0.4-0.4,0.8-0.7,1.1c-0.3,0.3-0.6,0.5-0.9,0.7
						c-0.3,0.2-0.6,0.3-1,0.3c-0.3,0.1-0.6,0.1-0.8,0.1c-0.3,0-0.4,0-0.6,0h-5.6V5.7z M156.2,16.2h2.3c0.2,0,0.5,0,0.8-0.1
						c0.3,0,0.5-0.1,0.7-0.2c0.2-0.1,0.4-0.3,0.5-0.5s0.2-0.5,0.2-0.9c0-0.4-0.1-0.7-0.2-0.9c-0.1-0.2-0.3-0.4-0.5-0.5
						c-0.2-0.1-0.5-0.2-0.7-0.2c-0.3,0-0.6,0-0.8,0h-2.2V16.2z"/>
				</g>
				<rect id="Rectangle-20" x="0" y="1.6" class="st1" width="3" height="19.9"/>
			</g>
		</g>
	</g>
</g>
</svg>
