<?xml version="1.0" encoding="UTF-8"?>
<svg width="15px" height="17px" viewBox="0 0 15 17" version="1.1" xmlns="http://www.w3.org/2000/svg" xmlns:xlink="http://www.w3.org/1999/xlink">
    <!-- Generator: Sketch 51.2 (57519) - http://www.bohemiancoding.com/sketch -->
    <title>logout</title>
    <desc>Created with Sketch.</desc>
    <defs></defs>
    <g id="Page-1" stroke="none" stroke-width="1" fill="none" fill-rule="evenodd">
        <g id="new-appointment-rus-copy-42" transform="translate(-249.000000, -78.000000)" fill="#FFFFFF" fill-rule="nonzero">
            <g id="logout" transform="translate(249.000000, 78.000000)">
                <path d="M14.7913216,7.48936849 L10.5084465,3.20444112 C10.233521,2.92907745 9.7863531,2.93243554 9.51142763,3.2111573 C9.23650215,3.48987907 9.23981451,3.9432217 9.51805234,4.22194346 L12.5786684,7.28452478 L5.70553163,7.28452478 C5.31467373,7.28452478 5,7.60354367 5,7.99979871 C5,8.39605374 5.31467373,8.71507263 5.70553163,8.71507263 L12.5819808,8.71507263 L9.52136469,11.7776539 C9.24312686,12.0530176 9.24312686,12.5063602 9.51473998,12.7884401 C9.65385889,12.92948 9.83603842,13 10.0149056,13 C10.1937728,13 10.3726399,12.9328381 10.5084465,12.7951563 L14.7913216,8.51022892 C14.9238158,8.37590518 15,8.19456813 15,8.0031568 C15,7.80838737 14.9238158,7.62369223 14.7913216,7.48936849 Z" id="Shape"></path>
                <path d="M8.3095002,15.5567293 L2.07737505,15.5567293 C1.69315835,15.5567293 1.38383134,15.2408059 1.38383134,14.8483959 L1.38383134,2.12167449 C1.38383134,1.72926448 1.69315835,1.41334116 2.07737505,1.41334116 L8.28670768,1.41334116 C8.67743653,1.41334116 9.00629998,1.08744131 8.99653176,0.69170579 C8.99327568,0.3092723 8.68394868,0 8.3095002,0 L6.48935497,0 L2.07737505,0 L1.36103883,0 C0.628422233,0 0.0325607374,0.608568075 0.0325607374,1.35680751 L0.0325607374,1.74921753 C0.013024295,1.87226135 0,1.99530516 0,2.12167449 L0,14.8483959 C0,14.9747653 0.013024295,15.1011346 0.0325607374,15.2208529 L0.0325607374,15.6431925 C0.0325607374,16.3914319 0.628422233,17 1.36103883,17 L6.48935497,17 C6.56750074,17 6.64564651,16.9900235 6.72053621,16.9700704 L8.28996375,16.9700704 C8.6806926,16.9700704 9.00955605,16.6441706 8.99978783,16.2484351 C8.99327568,15.8626761 8.68394868,15.5567293 8.3095002,15.5567293 Z" id="Shape"></path>
            </g>
        </g>
    </g>
</svg>