<?xml version="1.0" encoding="utf-8"?>
<!-- Generator: Adobe Illustrator 22.1.0, SVG Export Plug-In . SVG Version: 6.00 Build 0)  -->
<svg version="1.1" id="Слой_1" xmlns="http://www.w3.org/2000/svg" xmlns:xlink="http://www.w3.org/1999/xlink" x="0px" y="0px"
	 viewBox="0 0 47 33" style="enable-background:new 0 0 47 33;" xml:space="preserve">
<style type="text/css">
	.st0{enable-background:new    ;}
	.st1{fill:#FFFFFF;}
	.st2{fill:#ED1B24;}
</style>
<title>logo</title>
<desc>Created with Sketch.</desc>
<g id="Page-1">
	<g id="_x31_300" transform="translate(-17.000000, -23.000000)">
		<g id="logo" transform="translate(17.000000, 23.000000)">
			<g transform="translate(0.552799, 0.492444)">
				<g class="st0">
					<path class="st1" d="M11.1,15.7c0-1.4,0.2-2.7,0.6-3.9s0.9-2.2,1.7-3.1c0.7-0.9,1.7-1.6,2.8-2.1s2.4-0.7,3.9-0.7
						c1.4,0,2.6,0.2,3.7,0.7c1.1,0.5,2.1,1.2,2.8,2.1c0.8,0.9,1.4,1.9,1.8,3.1c0.4,1.2,0.6,2.5,0.6,3.9c0,1.4-0.2,2.7-0.6,3.9
						c-0.4,1.2-1,2.2-1.8,3.1c-0.8,0.9-1.7,1.6-2.8,2.1c-1.1,0.5-2.4,0.7-3.7,0.7c-1.5,0-2.8-0.2-3.9-0.7s-2.1-1.2-2.8-2.1
						c-0.7-0.9-1.3-1.9-1.7-3.1C11.3,18.3,11.1,17.1,11.1,15.7z M20.1,22.1c0.8,0,1.5-0.2,2.1-0.5s1.2-0.8,1.6-1.3
						c0.4-0.6,0.8-1.2,1-2c0.2-0.8,0.3-1.6,0.3-2.6c0-0.9-0.1-1.8-0.3-2.6c-0.2-0.8-0.6-1.5-1-2c-0.4-0.6-1-1-1.6-1.3
						s-1.3-0.5-2.1-0.5S18.6,9.4,18,9.7s-1.2,0.8-1.6,1.3c-0.4,0.6-0.8,1.2-1,2c-0.2,0.8-0.3,1.6-0.3,2.6c0,0.9,0.1,1.8,0.3,2.6
						c0.2,0.8,0.6,1.5,1,2c0.4,0.6,1,1,1.6,1.3S19.3,22.1,20.1,22.1z"/>
					<path class="st1" d="M35.9,14l3.2,0c0.4,0,0.7-0.1,1-0.2c0.3-0.1,0.6-0.3,0.9-0.5c0.2-0.2,0.4-0.5,0.6-0.8
						c0.1-0.3,0.2-0.7,0.2-1.1c0-0.5-0.1-0.9-0.3-1.3S41,9.6,40.7,9.4C40.4,9.3,40,9.1,39.6,9c-0.4-0.1-0.8-0.1-1.2-0.1
						c-0.5,0-1,0.1-1.4,0.2c-0.4,0.1-0.7,0.2-1,0.4c-0.3,0.2-0.5,0.4-0.7,0.6c-0.2,0.2-0.3,0.4-0.4,0.6c-0.1,0.2-0.2,0.4-0.2,0.6
						c0,0.2-0.1,0.3-0.1,0.4h-3.6c0-0.3,0-0.6,0.1-1s0.2-0.8,0.4-1.2c0.2-0.4,0.5-0.9,0.8-1.3s0.8-0.8,1.4-1.2
						c0.6-0.3,1.3-0.6,2.1-0.8c0.8-0.2,1.8-0.3,2.9-0.3C40,5.9,41,6,41.8,6.3c0.9,0.3,1.6,0.7,2.1,1.2c0.6,0.5,1,1,1.2,1.7
						c0.3,0.6,0.4,1.2,0.4,1.8c0,0.3,0,0.7-0.1,1c-0.1,0.4-0.2,0.7-0.4,1.1s-0.5,0.7-0.9,1s-0.8,0.5-1.4,0.7v0.1
						c0.2,0.1,0.4,0.1,0.6,0.2c0.2,0.1,0.5,0.2,0.8,0.3c0.3,0.1,0.5,0.3,0.8,0.5c0.2,0.2,0.5,0.5,0.7,0.8c0.2,0.3,0.4,0.7,0.5,1.2
						c0.1,0.5,0.2,1,0.2,1.6c0,0.8-0.2,1.6-0.5,2.3c-0.3,0.7-0.9,1.3-1.5,1.9c-0.7,0.5-1.5,1-2.5,1.3s-2.1,0.5-3.4,0.5
						c-0.6,0-1.3,0-1.9-0.1c-0.6-0.1-1.2-0.2-1.8-0.4s-1.1-0.4-1.6-0.7c-0.5-0.3-0.9-0.7-1.3-1.1c-0.4-0.4-0.6-1-0.8-1.5
						c-0.2-0.6-0.3-1.3-0.3-2.1h3.6c0,0.3,0.1,0.6,0.2,1c0.1,0.3,0.4,0.6,0.7,0.9c0.3,0.3,0.8,0.5,1.3,0.7s1.2,0.3,1.9,0.3
						c0.7,0,1.3-0.1,1.8-0.2c0.5-0.2,0.9-0.4,1.2-0.7c0.3-0.3,0.5-0.6,0.7-0.9c0.1-0.4,0.2-0.7,0.2-1.1c0-0.6-0.1-1.1-0.3-1.4
						c-0.2-0.4-0.5-0.6-0.8-0.8s-0.6-0.3-1-0.4c-0.4-0.1-0.7-0.1-1-0.1h-3.3V14z"/>
				</g>
				<g id="Rectangle-20">
					<path class="st2" d="M2,0L2,0c1.1,0,2,0.9,2,2v28c0,1.1-0.9,2-2,2l0,0c-1.1,0-2-0.9-2-2V2C0,0.9,0.9,0,2,0z"/>
				</g>
			</g>
		</g>
	</g>
</g>
</svg>
