<?xml version="1.0" encoding="utf-8"?>
<!-- Generator: Adobe Illustrator 22.1.0, SVG Export Plug-In . SVG Version: 6.00 Build 0)  -->
<svg version="1.1" id="Слой_1" xmlns="http://www.w3.org/2000/svg" xmlns:xlink="http://www.w3.org/1999/xlink" x="0px" y="0px"
	 viewBox="0 0 214 38" style="enable-background:new 0 0 214 38;" xml:space="preserve">
<style type="text/css">
	.st0{enable-background:new    ;}
	.st1{fill:#FFFFFF;}
	.st2{fill:#ED1B24;}
</style>
<title>logo</title>
<desc>Created with Sketch.</desc>
<g id="Page-1">
	<g id="_x31_900-бар-и-меню" transform="translate(-29.000000, -21.000000)">
		<g id="logo" transform="translate(29.000000, 20.000000)">
			<g transform="translate(0.552799, 0.492444)">
				<g class="st0">
					<path class="st1" d="M10.9,11.8c0-1.1,0.1-2.1,0.4-3s0.7-1.7,1.3-2.4s1.3-1.2,2.2-1.6s1.9-0.6,3-0.6c1.1,0,2,0.2,2.9,0.6
						s1.6,0.9,2.2,1.6s1.1,1.5,1.4,2.4s0.5,1.9,0.5,3c0,1.1-0.2,2.1-0.5,3s-0.8,1.7-1.4,2.4s-1.3,1.2-2.2,1.6s-1.8,0.6-2.9,0.6
						c-1.2,0-2.2-0.2-3-0.6s-1.6-0.9-2.2-1.6s-1-1.5-1.3-2.4S10.9,12.9,10.9,11.8z M17.8,16.8c0.6,0,1.2-0.1,1.6-0.4s0.9-0.6,1.2-1
						s0.6-1,0.8-1.6s0.3-1.3,0.3-2s-0.1-1.4-0.3-2S21,8.7,20.6,8.3s-0.7-0.8-1.2-1s-1-0.4-1.6-0.4S16.6,7,16.1,7.3s-0.9,0.6-1.2,1
						s-0.6,1-0.8,1.6s-0.3,1.3-0.3,2s0.1,1.4,0.3,2s0.4,1.1,0.8,1.6s0.7,0.8,1.2,1S17.2,16.8,17.8,16.8z"/>
					<path class="st1" d="M26.6,4.6h3v5.5h5.6V4.6h3V19h-3v-6.4h-5.6V19h-3V4.6z"/>
					<path class="st1" d="M49.6,7.1h-4.2l0,2.2c0,1.3,0,2.5-0.1,3.5s-0.2,1.9-0.3,2.6c-0.1,0.7-0.3,1.4-0.5,1.9s-0.4,0.9-0.7,1.2
						s-0.6,0.5-1,0.6s-0.8,0.2-1.2,0.2c-0.4,0-0.7,0-0.9-0.1s-0.5-0.1-0.8-0.2l0-2.7c0.1,0,0.2,0.1,0.3,0.1s0.2,0.1,0.3,0.1
						s0.2,0,0.3,0s0.1,0,0.2,0c0.2,0,0.3,0,0.5-0.1s0.3-0.2,0.4-0.3c0.1-0.2,0.2-0.4,0.3-0.7s0.2-0.7,0.2-1.2s0.1-1.1,0.1-1.9
						s0-1.6,0-2.7V4.6h10V19h-3V7.1z"/>
					<path class="st1" d="M59,4.6h3.4L67.5,19h-3.3l-0.9-3H58l-1,3h-3.2L59,4.6z M58.8,13.6h3.7l-1.8-5.7h0L58.8,13.6z"/>
					<path class="st1" d="M69,4.6h2.9v9.8h0l5.7-9.8h3V19h-2.9V9.3h0L72,19h-3V4.6z M75,3.9c-1.2,0-2.2-0.2-2.8-0.7
						s-0.9-1.2-0.9-2.3h2.3c0,0.2,0,0.4,0.1,0.6s0.1,0.3,0.3,0.4s0.3,0.2,0.5,0.3s0.4,0.1,0.7,0.1s0.5,0,0.7-0.1s0.3-0.2,0.5-0.3
						s0.2-0.3,0.3-0.4s0.1-0.4,0.1-0.6h2.3c0,1-0.3,1.8-0.9,2.3S76.3,3.9,75,3.9z"/>
					<path class="st1" d="M83.1,4.6h3v5.5h5.6V4.6h3V19h-3v-6.4h-5.6V19h-3V4.6z"/>
					<path class="st1" d="M96.3,12.1h5.4v2.6h-5.4V12.1z"/>
					<path class="st1" d="M106.9,10.5l2.5,0c0.3,0,0.5,0,0.8-0.1c0.3-0.1,0.5-0.2,0.7-0.4s0.3-0.4,0.4-0.6c0.1-0.2,0.2-0.5,0.2-0.8
						c0-0.4-0.1-0.7-0.2-1s-0.4-0.5-0.6-0.6c-0.2-0.1-0.5-0.3-0.8-0.3c-0.3-0.1-0.6-0.1-0.9-0.1c-0.4,0-0.7,0-1,0.1
						c-0.3,0.1-0.6,0.2-0.8,0.3s-0.4,0.3-0.5,0.4s-0.2,0.3-0.3,0.5S106,8.3,106,8.4s0,0.3,0,0.3h-2.8c0-0.2,0-0.5,0.1-0.8
						s0.1-0.6,0.3-0.9s0.3-0.7,0.6-1s0.6-0.6,1-0.9s1-0.5,1.6-0.6s1.4-0.2,2.3-0.2c0.9,0,1.7,0.1,2.4,0.4c0.7,0.2,1.2,0.6,1.6,0.9
						c0.4,0.4,0.7,0.8,0.9,1.3c0.2,0.5,0.3,0.9,0.3,1.4c0,0.3,0,0.5-0.1,0.8c-0.1,0.3-0.2,0.6-0.3,0.8s-0.4,0.5-0.7,0.7
						s-0.6,0.4-1.1,0.6v0c0.1,0,0.3,0.1,0.5,0.1c0.2,0.1,0.4,0.1,0.6,0.2c0.2,0.1,0.4,0.2,0.6,0.4c0.2,0.2,0.4,0.4,0.5,0.6
						c0.2,0.3,0.3,0.6,0.4,0.9c0.1,0.4,0.1,0.8,0.1,1.2c0,0.6-0.1,1.2-0.4,1.8c-0.3,0.6-0.7,1-1.2,1.5c-0.5,0.4-1.1,0.7-1.9,1
						s-1.6,0.4-2.6,0.4c-0.5,0-1,0-1.5-0.1s-1-0.2-1.4-0.3s-0.8-0.3-1.2-0.5s-0.7-0.5-1-0.8s-0.5-0.7-0.6-1.2
						c-0.2-0.5-0.2-1-0.2-1.6h2.8c0,0.2,0.1,0.5,0.2,0.7s0.3,0.5,0.6,0.7s0.6,0.4,1,0.5s0.9,0.2,1.5,0.2c0.5,0,1-0.1,1.4-0.2
						c0.4-0.1,0.7-0.3,0.9-0.5c0.2-0.2,0.4-0.5,0.5-0.7c0.1-0.3,0.2-0.5,0.2-0.8c0-0.4-0.1-0.8-0.2-1.1c-0.2-0.3-0.3-0.5-0.6-0.6
						s-0.5-0.2-0.8-0.3s-0.5-0.1-0.8-0.1h-2.6V10.5z"/>
					<path class="st1" d="M120.9,4.6h3.4l5.1,14.4h-3.3l-0.9-3h-5.3l-1,3h-3.2L120.9,4.6z M120.7,13.6h3.7l-1.8-5.7h0L120.7,13.6z"
						/>
					<path class="st1" d="M130.8,4.6h11.6V19h-3V7.1h-5.6V19h-3V4.6z"/>
					<path class="st1" d="M145,4.6h2.9v9.8h0l5.7-9.8h3V19h-2.9V9.3h0L148,19h-3V4.6z"/>
					<path class="st1" d="M168.4,9.4c0-0.1-0.1-0.3-0.1-0.5s-0.1-0.4-0.2-0.5c-0.1-0.2-0.2-0.4-0.4-0.5c-0.2-0.2-0.3-0.3-0.6-0.5
						c-0.2-0.1-0.5-0.2-0.8-0.3c-0.3-0.1-0.7-0.1-1.1-0.1c-0.2,0-0.4,0-0.6,0.1c-0.2,0-0.5,0.1-0.8,0.3c-0.3,0.1-0.5,0.3-0.8,0.5
						s-0.5,0.5-0.7,0.9c-0.2,0.4-0.4,0.8-0.5,1.3c-0.1,0.5-0.2,1.1-0.2,1.9c0,0.8,0.1,1.5,0.2,2.1c0.2,0.6,0.4,1.1,0.7,1.6
						c0.3,0.4,0.7,0.7,1.1,1c0.4,0.2,0.9,0.3,1.5,0.3c0.6,0,1.1-0.1,1.5-0.3c0.4-0.2,0.7-0.4,1-0.7c0.2-0.3,0.4-0.6,0.5-0.9
						s0.2-0.6,0.3-0.8h3c-0.2,0.9-0.4,1.7-0.8,2.3c-0.4,0.7-0.8,1.2-1.4,1.6c-0.5,0.4-1.1,0.8-1.8,1s-1.4,0.3-2.2,0.3
						c-1.1,0-2-0.2-2.8-0.5c-0.8-0.4-1.5-0.9-2.1-1.5c-0.6-0.7-1-1.5-1.3-2.4s-0.4-2-0.4-3.1c0-0.9,0.1-1.7,0.3-2.4
						c0.2-0.7,0.4-1.4,0.7-1.9s0.7-1,1.1-1.4s0.9-0.7,1.3-1c0.5-0.3,1-0.5,1.5-0.6c0.5-0.1,1.1-0.2,1.6-0.2c0.8,0,1.5,0.1,2.1,0.2
						s1.1,0.4,1.6,0.7c0.5,0.3,0.8,0.6,1.2,0.9s0.6,0.7,0.8,1.1s0.4,0.7,0.5,1.1c0.1,0.4,0.2,0.7,0.2,1H168.4z"/>
					<path class="st1" d="M173.5,4.6h3v5.7h2.9c0.2,0,0.5,0,0.8,0c0.3,0,0.7,0.1,1.1,0.1c0.4,0.1,0.8,0.2,1.2,0.4
						c0.4,0.2,0.7,0.4,1,0.7s0.6,0.7,0.8,1.2s0.3,1.1,0.3,1.8c0,0.7-0.1,1.3-0.3,1.8c-0.2,0.5-0.4,0.9-0.7,1.2s-0.6,0.6-1,0.7
						c-0.4,0.2-0.7,0.3-1.1,0.4c-0.3,0.1-0.7,0.1-1,0.1c-0.3,0-0.5,0-0.6,0h-6.3V4.6z M176.5,16.5h2.5c0.3,0,0.6,0,0.8-0.1
						c0.3,0,0.6-0.1,0.8-0.3s0.4-0.3,0.6-0.6s0.2-0.6,0.2-1c0-0.4-0.1-0.8-0.2-1.1c-0.2-0.3-0.4-0.5-0.6-0.6
						c-0.2-0.1-0.5-0.2-0.8-0.2c-0.3,0-0.6,0-0.9,0h-2.4V16.5z"/>
				</g>
				<g id="Rectangle-20">
					<path class="st2" d="M2,4.5L2,4.5c1.1,0,2,0.9,2,2v28c0,1.1-0.9,2-2,2l0,0c-1.1,0-2-0.9-2-2v-28C0,5.4,0.9,4.5,2,4.5z"/>
				</g>
				<g class="st0">
					<path class="st1" d="M16.2,35.2c-0.8,0-1.5-0.1-2.1-0.4c-0.6-0.3-1.1-0.7-1.5-1.1s-0.7-1-0.9-1.7c-0.2-0.6-0.3-1.3-0.3-2
						c0-0.7,0.1-1.3,0.3-2s0.5-1.2,0.9-1.7s0.9-0.9,1.5-1.1c0.6-0.3,1.3-0.4,2.1-0.4c0.8,0,1.5,0.1,2.1,0.4c0.6,0.3,1.1,0.7,1.5,1.1
						c0.4,0.5,0.7,1,0.9,1.7s0.3,1.3,0.3,2c0,0.7-0.1,1.3-0.3,2c-0.2,0.6-0.5,1.2-0.9,1.7c-0.4,0.5-0.9,0.9-1.5,1.1
						C17.7,35.1,17,35.2,16.2,35.2z M16.2,34.4c0.7,0,1.2-0.1,1.7-0.4c0.5-0.3,0.9-0.6,1.2-1c0.3-0.4,0.5-0.9,0.7-1.4
						c0.1-0.5,0.2-1.1,0.2-1.6c0-0.5-0.1-1.1-0.2-1.6c-0.1-0.5-0.4-1-0.7-1.4c-0.3-0.4-0.7-0.7-1.2-1c-0.5-0.3-1-0.4-1.7-0.4
						c-0.7,0-1.2,0.1-1.7,0.4s-0.9,0.6-1.2,1c-0.3,0.4-0.5,0.9-0.7,1.4c-0.1,0.5-0.2,1.1-0.2,1.6c0,0.5,0.1,1.1,0.2,1.6
						c0.1,0.5,0.4,1,0.7,1.4c0.3,0.4,0.7,0.7,1.2,1C15,34.3,15.5,34.4,16.2,34.4z"/>
					<path class="st1" d="M22.1,27.8H23v3.1h4.1v-3.1H28V35h-0.9v-3.4H23V35h-0.9V27.8z"/>
					<path class="st1" d="M29.5,35.1c0,0-0.1,0-0.2,0c-0.1,0-0.1,0-0.2,0c-0.1,0-0.1,0-0.2,0c-0.1,0-0.1,0-0.1,0v-0.8
						c0.1,0,0.2,0.1,0.3,0.1c0.1,0,0.3,0,0.4,0c0.1,0,0.2,0,0.3,0c0.1,0,0.2-0.1,0.3-0.2c0.1-0.1,0.2-0.3,0.3-0.6s0.2-0.6,0.3-1.1
						s0.1-1.1,0.2-1.8c0-0.7,0.1-1.6,0.1-2.7h4.8V35h-0.9v-6.5h-3.1c0,1,0,1.9-0.1,2.7s-0.1,1.3-0.3,1.8c-0.1,0.5-0.2,0.9-0.4,1.1
						c-0.1,0.3-0.3,0.5-0.5,0.6C30.4,34.9,30.2,35,30,35C29.8,35.1,29.6,35.1,29.5,35.1z"/>
					<path class="st1" d="M39.4,35.2c-0.3,0-0.7,0-0.9-0.1c-0.3-0.1-0.6-0.2-0.8-0.4c-0.2-0.2-0.4-0.4-0.5-0.7
						C37,33.8,37,33.5,37,33.1c0-0.5,0.1-0.9,0.3-1.2c0.2-0.3,0.5-0.5,0.9-0.6c0.4-0.1,0.8-0.3,1.2-0.3s0.9-0.1,1.4-0.2
						c0.2,0,0.3,0,0.5-0.1c0.1,0,0.3-0.1,0.4-0.1s0.2-0.2,0.2-0.3S42,30,42,29.8c0-0.3,0-0.5-0.1-0.7c-0.1-0.2-0.2-0.3-0.4-0.5
						c-0.2-0.1-0.4-0.2-0.6-0.2c-0.2,0-0.5-0.1-0.7-0.1c-0.6,0-1,0.1-1.4,0.4c-0.4,0.3-0.5,0.7-0.6,1.3h-0.9
						c0.1-0.8,0.3-1.5,0.9-1.8c0.5-0.4,1.2-0.6,2.1-0.6c0.3,0,0.6,0,1,0.1s0.6,0.2,0.9,0.3c0.3,0.2,0.5,0.4,0.6,0.7
						c0.2,0.3,0.2,0.7,0.2,1.2v3.8c0,0.4,0.2,0.5,0.5,0.5c0.1,0,0.2,0,0.3-0.1v0.7c-0.1,0-0.2,0-0.3,0c-0.1,0-0.2,0-0.3,0
						c-0.2,0-0.4,0-0.5-0.1s-0.2-0.1-0.3-0.3c-0.1-0.1-0.1-0.2-0.1-0.4s0-0.3,0-0.5h0c-0.2,0.2-0.3,0.4-0.5,0.6
						c-0.2,0.2-0.3,0.3-0.5,0.5c-0.2,0.1-0.4,0.2-0.7,0.3S39.7,35.2,39.4,35.2z M39.4,34.5c0.3,0,0.7-0.1,1-0.2
						c0.3-0.1,0.6-0.3,0.8-0.4c0.2-0.2,0.4-0.4,0.5-0.7c0.1-0.3,0.2-0.6,0.2-1v-1.1h0c-0.1,0.1-0.2,0.2-0.3,0.2s-0.3,0.1-0.4,0.1
						c-0.4,0.1-0.8,0.1-1.2,0.2c-0.4,0.1-0.8,0.1-1.1,0.2c-0.3,0.1-0.6,0.3-0.8,0.4c-0.2,0.2-0.3,0.5-0.3,0.8c0,0.2,0,0.4,0.1,0.6
						c0.1,0.2,0.2,0.3,0.4,0.4s0.3,0.2,0.5,0.3C39,34.4,39.2,34.5,39.4,34.5z"/>
					<path class="st1" d="M44.5,27.8h0.9V34l4-6.2h1.1V35h-0.9v-6.2l-4,6.2h-1.1V27.8z M47.5,26.7c-0.6,0-1-0.2-1.4-0.5
						c-0.3-0.3-0.5-0.8-0.6-1.4H46c0,0.4,0.2,0.6,0.4,0.8c0.2,0.2,0.6,0.3,1,0.3c0.4,0,0.7-0.1,1-0.3c0.3-0.2,0.4-0.5,0.5-0.8h0.5
						c-0.1,0.6-0.3,1-0.7,1.4S48,26.7,47.5,26.7z"/>
					<path class="st1" d="M52,27.8h0.9v3.1H57v-3.1h0.9V35H57v-3.4h-4.1V35H52V27.8z"/>
					<path class="st1" d="M62.7,30.9v0.9h-3.5v-0.9H62.7z"/>
					<path class="st1" d="M66.6,35.2c-1,0-1.7-0.2-2.2-0.7c-0.5-0.4-0.8-1-0.8-1.8h0.9c0,0.3,0.1,0.5,0.2,0.7
						c0.1,0.2,0.2,0.4,0.4,0.5c0.2,0.1,0.4,0.3,0.6,0.3c0.2,0.1,0.5,0.1,0.9,0.1c0.4,0,0.7,0,1-0.1s0.5-0.2,0.6-0.4s0.2-0.3,0.3-0.5
						c0.1-0.2,0.1-0.4,0.1-0.6c0-0.4-0.1-0.7-0.4-0.9c-0.2-0.3-0.6-0.4-1.2-0.4h-1.2v-0.7h1c0.4,0,0.8-0.1,1.1-0.3
						c0.3-0.2,0.4-0.5,0.4-1c0-0.1,0-0.3-0.1-0.4s-0.1-0.3-0.3-0.4c-0.1-0.1-0.3-0.2-0.5-0.3c-0.2-0.1-0.5-0.1-0.9-0.1
						c-0.7,0-1.1,0.1-1.4,0.4c-0.3,0.3-0.5,0.7-0.5,1.1h-0.9c0-0.4,0.1-0.8,0.3-1.1c0.2-0.3,0.4-0.5,0.6-0.7
						c0.3-0.2,0.5-0.3,0.9-0.4c0.3-0.1,0.7-0.1,1-0.1c0.4,0,0.7,0,1,0.1c0.3,0.1,0.6,0.2,0.8,0.3c0.2,0.2,0.4,0.4,0.6,0.6
						c0.1,0.2,0.2,0.5,0.2,0.9c0,0.2,0,0.4-0.1,0.6c-0.1,0.2-0.2,0.3-0.3,0.5c-0.1,0.1-0.2,0.3-0.4,0.4c-0.1,0.1-0.3,0.2-0.4,0.2v0
						c0.2,0,0.3,0.1,0.5,0.2c0.2,0.1,0.3,0.2,0.4,0.3c0.1,0.1,0.2,0.3,0.3,0.5c0.1,0.2,0.1,0.4,0.1,0.7c0,0.4-0.1,0.7-0.2,1
						c-0.2,0.3-0.4,0.5-0.6,0.7C68.3,34.8,68,35,67.7,35C67.3,35.1,66.9,35.2,66.6,35.2z"/>
					<path class="st1" d="M72.7,35.2c-0.3,0-0.7,0-0.9-0.1c-0.3-0.1-0.6-0.2-0.8-0.4c-0.2-0.2-0.4-0.4-0.5-0.7
						c-0.1-0.3-0.2-0.6-0.2-0.9c0-0.5,0.1-0.9,0.3-1.2c0.2-0.3,0.5-0.5,0.9-0.6c0.4-0.1,0.8-0.3,1.2-0.3s0.9-0.1,1.4-0.2
						c0.2,0,0.3,0,0.5-0.1c0.1,0,0.3-0.1,0.4-0.1s0.2-0.2,0.2-0.3s0.1-0.3,0.1-0.5c0-0.3,0-0.5-0.1-0.7c-0.1-0.2-0.2-0.3-0.4-0.5
						c-0.2-0.1-0.4-0.2-0.6-0.2c-0.2,0-0.5-0.1-0.7-0.1c-0.6,0-1,0.1-1.4,0.4c-0.4,0.3-0.5,0.7-0.6,1.3h-0.9
						c0.1-0.8,0.3-1.5,0.9-1.8c0.5-0.4,1.2-0.6,2.1-0.6c0.3,0,0.6,0,1,0.1s0.6,0.2,0.9,0.3c0.3,0.2,0.5,0.4,0.6,0.7
						c0.2,0.3,0.2,0.7,0.2,1.2v3.8c0,0.4,0.2,0.5,0.5,0.5c0.1,0,0.2,0,0.3-0.1v0.7c-0.1,0-0.2,0-0.3,0c-0.1,0-0.2,0-0.3,0
						c-0.2,0-0.4,0-0.5-0.1s-0.2-0.1-0.3-0.3c-0.1-0.1-0.1-0.2-0.1-0.4s0-0.3,0-0.5h0c-0.2,0.2-0.3,0.4-0.5,0.6
						c-0.2,0.2-0.3,0.3-0.5,0.5c-0.2,0.1-0.4,0.2-0.7,0.3S73.1,35.2,72.7,35.2z M72.8,34.5c0.3,0,0.7-0.1,1-0.2
						c0.3-0.1,0.6-0.3,0.8-0.4c0.2-0.2,0.4-0.4,0.5-0.7c0.1-0.3,0.2-0.6,0.2-1v-1.1h0c-0.1,0.1-0.2,0.2-0.3,0.2s-0.3,0.1-0.4,0.1
						c-0.4,0.1-0.8,0.1-1.2,0.2c-0.4,0.1-0.8,0.1-1.1,0.2c-0.3,0.1-0.6,0.3-0.8,0.4c-0.2,0.2-0.3,0.5-0.3,0.8c0,0.2,0,0.4,0.1,0.6
						c0.1,0.2,0.2,0.3,0.4,0.4s0.3,0.2,0.5,0.3C72.4,34.4,72.6,34.5,72.8,34.5z"/>
					<path class="st1" d="M77.9,27.8h5.8V35h-0.9v-6.5h-4V35h-0.9V27.8z"/>
					<path class="st1" d="M85.2,27.8h0.9V34l4-6.2h1.1V35h-0.9v-6.2l-4,6.2h-1.1V27.8z"/>
					<path class="st1" d="M95.8,35.2c-0.6,0-1-0.1-1.5-0.3c-0.4-0.2-0.8-0.5-1.1-0.8c-0.3-0.3-0.5-0.7-0.7-1.2
						c-0.1-0.5-0.2-1-0.2-1.5c0-0.5,0.1-1,0.2-1.5c0.1-0.5,0.4-0.9,0.7-1.2c0.3-0.3,0.6-0.6,1.1-0.8c0.4-0.2,0.9-0.3,1.5-0.3
						c0.8,0,1.4,0.2,2,0.6c0.5,0.4,0.9,1,1,1.9h-0.9c-0.1-0.5-0.3-1-0.7-1.3c-0.3-0.3-0.8-0.5-1.4-0.5c-0.4,0-0.8,0.1-1.1,0.3
						c-0.3,0.2-0.6,0.4-0.8,0.7c-0.2,0.3-0.4,0.6-0.5,1c-0.1,0.4-0.2,0.7-0.2,1.1c0,0.4,0.1,0.8,0.2,1.1c0.1,0.4,0.3,0.7,0.5,1
						c0.2,0.3,0.5,0.5,0.8,0.7c0.3,0.2,0.7,0.3,1.1,0.3c0.3,0,0.5-0.1,0.8-0.2c0.2-0.1,0.5-0.2,0.6-0.4c0.2-0.2,0.3-0.4,0.5-0.7
						c0.1-0.3,0.2-0.5,0.2-0.8h0.9c-0.1,0.9-0.4,1.6-1,2.1C97.3,35,96.6,35.2,95.8,35.2z"/>
					<path class="st1" d="M99.9,27.8h0.9v2.9h2.6c0.7,0,1.3,0.2,1.7,0.6c0.4,0.4,0.6,0.9,0.6,1.6c0,0.7-0.2,1.2-0.6,1.6
						c-0.4,0.4-1,0.6-1.7,0.6h-3.5V27.8z M103.2,34.2c0.5,0,0.9-0.1,1.2-0.4s0.4-0.6,0.4-1.1c0-0.5-0.1-0.8-0.4-1.1
						s-0.7-0.3-1.2-0.3h-2.4v2.8H103.2z"/>
					<path class="st1" d="M108.4,35.4c0,0.4-0.1,0.7-0.3,1c-0.2,0.2-0.4,0.4-0.7,0.5v-0.5c0.1-0.1,0.2-0.2,0.3-0.3
						c0.1-0.1,0.2-0.3,0.2-0.6V35h-0.5v-1.2h1V35.4z"/>
					<path class="st1" d="M114.9,37.7c-0.2,0-0.3,0-0.4,0c-0.1,0-0.2,0-0.3,0v-0.8c0.1,0,0.2,0,0.3,0c0.1,0,0.2,0,0.3,0
						c0.2,0,0.4,0,0.5-0.1c0.1-0.1,0.2-0.1,0.3-0.2c0.1-0.1,0.2-0.2,0.2-0.4c0.1-0.1,0.1-0.3,0.2-0.5l0.3-0.8l-2.9-7.2h0.9l2.4,6.2
						l2.2-6.2h0.9l-3.1,8.3c-0.1,0.3-0.3,0.6-0.4,0.8c-0.1,0.2-0.2,0.4-0.4,0.5c-0.1,0.1-0.3,0.2-0.5,0.3
						C115.5,37.6,115.2,37.7,114.9,37.7z"/>
					<path class="st1" d="M125.2,31.8c-0.1,0.1-0.3,0.1-0.5,0.2c-0.2,0.1-0.4,0.1-0.6,0.1s-0.4,0.1-0.7,0.1c-0.2,0-0.4,0-0.7,0
						c-0.7,0-1.3-0.2-1.7-0.5s-0.6-1-0.6-1.8v-2.2h0.9V30c0,0.4,0,0.6,0.1,0.8c0.1,0.2,0.2,0.3,0.4,0.4c0.2,0.1,0.3,0.1,0.5,0.2
						s0.4,0,0.5,0c0.4,0,0.8,0,1.2-0.1c0.4-0.1,0.8-0.2,1-0.3v-3.3h0.9V35h-0.9V31.8z"/>
					<path class="st1" d="M130.5,35.2c-0.6,0-1.1-0.1-1.5-0.3c-0.4-0.2-0.7-0.5-1-0.8c-0.3-0.4-0.5-0.8-0.6-1.2
						c-0.1-0.5-0.2-0.9-0.2-1.5c0-0.5,0.1-0.9,0.2-1.4s0.3-0.9,0.6-1.2c0.3-0.4,0.6-0.6,1-0.9c0.4-0.2,0.9-0.3,1.5-0.3
						c0.6,0,1.1,0.1,1.5,0.3s0.7,0.5,1,0.9s0.4,0.8,0.6,1.3c0.1,0.5,0.2,1,0.1,1.5h-5.6c0,0.3,0,0.7,0.1,1c0.1,0.3,0.2,0.6,0.4,0.9
						c0.2,0.3,0.4,0.5,0.7,0.7c0.3,0.2,0.7,0.3,1.1,0.3c0.6,0,1.1-0.2,1.5-0.5c0.4-0.3,0.6-0.8,0.8-1.3h0.9c-0.2,0.8-0.5,1.5-1,1.9
						C132.2,35,131.4,35.2,130.5,35.2z M132.8,30.9c0-0.3-0.1-0.7-0.2-1c-0.1-0.3-0.3-0.6-0.5-0.8c-0.2-0.2-0.4-0.4-0.7-0.6
						c-0.3-0.1-0.6-0.2-1-0.2c-0.4,0-0.7,0.1-1,0.2c-0.3,0.1-0.5,0.3-0.7,0.6s-0.4,0.5-0.5,0.8c-0.1,0.3-0.2,0.6-0.2,0.9H132.8z"/>
					<path class="st1" d="M136.6,28.5h-2.7v-0.8h6.2v0.8h-2.7V35h-0.9V28.5z"/>
					<path class="st1" d="M142.5,35.4c0,0.4-0.1,0.7-0.3,1c-0.2,0.2-0.4,0.4-0.7,0.5v-0.5c0.1-0.1,0.2-0.2,0.3-0.3s0.2-0.3,0.2-0.6
						V35h-0.5v-1.2h1V35.4z"/>
					<path class="st1" d="M148.5,27.8h1.2l2.7,6.2l2.7-6.2h1.2V35h-0.9v-6h0l-2.5,6h-0.8l-2.5-6h0v6h-0.9V27.8z"/>
					<path class="st1" d="M159.8,35.2c-0.3,0-0.7,0-0.9-0.1c-0.3-0.1-0.6-0.2-0.8-0.4c-0.2-0.2-0.4-0.4-0.5-0.7
						c-0.1-0.3-0.2-0.6-0.2-0.9c0-0.5,0.1-0.9,0.3-1.2s0.5-0.5,0.9-0.6c0.4-0.1,0.8-0.3,1.2-0.3s0.9-0.1,1.4-0.2
						c0.2,0,0.3,0,0.5-0.1c0.1,0,0.3-0.1,0.4-0.1c0.1-0.1,0.2-0.2,0.2-0.3c0.1-0.1,0.1-0.3,0.1-0.5c0-0.3,0-0.5-0.1-0.7
						c-0.1-0.2-0.2-0.3-0.4-0.5c-0.2-0.1-0.4-0.2-0.6-0.2c-0.2,0-0.5-0.1-0.7-0.1c-0.6,0-1,0.1-1.4,0.4s-0.5,0.7-0.6,1.3h-0.9
						c0.1-0.8,0.3-1.5,0.9-1.8c0.5-0.4,1.2-0.6,2.1-0.6c0.3,0,0.6,0,1,0.1s0.6,0.2,0.9,0.3s0.5,0.4,0.6,0.7c0.2,0.3,0.2,0.7,0.2,1.2
						v3.8c0,0.4,0.2,0.5,0.5,0.5c0.1,0,0.2,0,0.3-0.1v0.7c-0.1,0-0.2,0-0.3,0c-0.1,0-0.2,0-0.3,0c-0.2,0-0.4,0-0.5-0.1
						c-0.1-0.1-0.2-0.1-0.3-0.3c-0.1-0.1-0.1-0.2-0.1-0.4s0-0.3,0-0.5h0c-0.2,0.2-0.3,0.4-0.5,0.6c-0.2,0.2-0.3,0.3-0.5,0.5
						c-0.2,0.1-0.4,0.2-0.7,0.3C160.4,35.2,160.1,35.2,159.8,35.2z M159.8,34.5c0.3,0,0.7-0.1,1-0.2c0.3-0.1,0.6-0.3,0.8-0.4
						c0.2-0.2,0.4-0.4,0.5-0.7c0.1-0.3,0.2-0.6,0.2-1v-1.1h0c-0.1,0.1-0.2,0.2-0.3,0.2c-0.2,0-0.3,0.1-0.4,0.1
						c-0.4,0.1-0.8,0.1-1.2,0.2c-0.4,0.1-0.8,0.1-1.1,0.2c-0.3,0.1-0.6,0.3-0.8,0.4c-0.2,0.2-0.3,0.5-0.3,0.8c0,0.2,0,0.4,0.1,0.6
						c0.1,0.2,0.2,0.3,0.4,0.4s0.3,0.2,0.5,0.3S159.6,34.5,159.8,34.5z"/>
					<path class="st1" d="M164.9,27.8h0.8v1.4h0c0.2-0.5,0.5-0.9,1-1.2c0.5-0.3,1-0.4,1.6-0.4c0.6,0,1,0.1,1.4,0.3s0.7,0.5,1,0.8
						s0.5,0.8,0.6,1.2c0.1,0.5,0.2,1,0.2,1.5c0,0.5-0.1,1-0.2,1.5c-0.1,0.5-0.3,0.9-0.6,1.2c-0.3,0.3-0.6,0.6-1,0.8
						c-0.4,0.2-0.9,0.3-1.4,0.3c-0.3,0-0.5,0-0.8-0.1s-0.5-0.2-0.7-0.3c-0.2-0.1-0.4-0.3-0.6-0.5c-0.2-0.2-0.3-0.4-0.4-0.7h0v4h-0.9
						V27.8z M168.3,34.5c0.4,0,0.8-0.1,1.1-0.3s0.5-0.4,0.7-0.7s0.3-0.6,0.4-1c0.1-0.4,0.1-0.7,0.1-1.1c0-0.4,0-0.7-0.1-1.1
						c-0.1-0.4-0.2-0.7-0.4-1s-0.4-0.5-0.7-0.7s-0.7-0.3-1.1-0.3c-0.5,0-0.9,0.1-1.2,0.3c-0.3,0.2-0.6,0.4-0.8,0.7
						c-0.2,0.3-0.3,0.6-0.4,1c-0.1,0.4-0.1,0.8-0.1,1.2c0,0.4,0,0.7,0.1,1.1c0.1,0.4,0.2,0.7,0.4,1c0.2,0.3,0.5,0.5,0.8,0.7
						S167.9,34.5,168.3,34.5z"/>
					<path class="st1" d="M172.9,27.8h0.9v3.7l4-3.7h1.2l-3.1,2.8l3.2,4.4H178l-2.8-3.8l-1.5,1.4V35h-0.9V27.8z"/>
					<path class="st1" d="M182.6,35.2c-0.6,0-1.1-0.1-1.5-0.3c-0.4-0.2-0.7-0.5-1-0.8c-0.3-0.4-0.5-0.8-0.6-1.2
						c-0.1-0.5-0.2-0.9-0.2-1.5c0-0.5,0.1-0.9,0.2-1.4s0.3-0.9,0.6-1.2c0.3-0.4,0.6-0.6,1-0.9c0.4-0.2,0.9-0.3,1.5-0.3
						c0.6,0,1.1,0.1,1.5,0.3c0.4,0.2,0.7,0.5,1,0.9c0.3,0.4,0.4,0.8,0.6,1.3s0.2,1,0.1,1.5h-5.6c0,0.3,0,0.7,0.1,1s0.2,0.6,0.4,0.9
						c0.2,0.3,0.4,0.5,0.7,0.7s0.7,0.3,1.1,0.3c0.6,0,1.1-0.2,1.5-0.5c0.4-0.3,0.6-0.8,0.8-1.3h0.9c-0.2,0.8-0.5,1.5-1,1.9
						C184.2,35,183.5,35.2,182.6,35.2z M184.9,30.9c0-0.3-0.1-0.7-0.2-1c-0.1-0.3-0.3-0.6-0.5-0.8s-0.4-0.4-0.7-0.6
						c-0.3-0.1-0.6-0.2-1-0.2c-0.4,0-0.7,0.1-1,0.2c-0.3,0.1-0.5,0.3-0.7,0.6c-0.2,0.2-0.4,0.5-0.5,0.8c-0.1,0.3-0.2,0.6-0.2,0.9
						H184.9z"/>
					<path class="st1" d="M188.7,28.5H186v-0.8h6.2v0.8h-2.7V35h-0.9V28.5z"/>
					<path class="st1" d="M193,27.8h0.9V34l4-6.2h1.1V35h-0.9v-6.2l-4,6.2H193V27.8z"/>
					<path class="st1" d="M200.5,27.8h0.9v3.1h4.1v-3.1h0.9V35h-0.9v-3.4h-4.1V35h-0.9V27.8z"/>
					<path class="st1" d="M208,27.8h4.8v0.8h-3.9V35H208V27.8z"/>
				</g>
			</g>
		</g>
	</g>
</g>
</svg>
