<svg width="18" height="18" viewBox="0 0 18 18" fill="none" xmlns="http://www.w3.org/2000/svg">
<path d="M14.7856 8.99974C14.4305 8.99974 14.1427 9.28755 14.1427 9.6426V16.0711C14.1427 16.4261 13.8549 16.714 13.4998 16.714H1.92855C1.5735 16.714 1.28569 16.4261 1.28569 16.0711V3.21408C1.28569 2.85903 1.5735 2.57121 1.92855 2.57121H9.64277C9.99782 2.57121 10.2856 2.2834 10.2856 1.92835C10.2856 1.5733 9.99782 1.28552 9.64277 1.28552H1.92855C0.863442 1.28552 0 2.14896 0 3.21408V16.0711C0 17.1362 0.863442 17.9996 1.92855 17.9996H13.4999C14.565 17.9996 15.4284 17.1362 15.4284 16.0711V9.64256C15.4284 9.28755 15.1406 8.99974 14.7856 8.99974Z" fill="#50A5F1"/>
<path d="M17.2792 0.720882C16.8176 0.259235 16.1916 -6.51636e-05 15.5388 1.01705e-05C14.8856 -0.00187318 14.2589 0.257879 13.7986 0.721297L5.33092 9.18825C5.26067 9.25902 5.20767 9.34506 5.17599 9.4396L3.8903 13.2967C3.77809 13.6336 3.96021 13.9976 4.29707 14.1097C4.36242 14.1315 4.43086 14.1426 4.49972 14.1427C4.56872 14.1426 4.63731 14.1315 4.70286 14.1099L8.55997 12.8242C8.6547 12.7926 8.74077 12.7393 8.81132 12.6687L17.279 4.20105C18.24 3.24009 18.2401 1.68196 17.2792 0.720882ZM16.37 3.29268L8.01289 11.6498L5.51605 12.4835L6.34725 9.98988L14.7075 1.63284C15.1671 1.17413 15.9116 1.17488 16.3704 1.6345C16.5895 1.85406 16.7129 2.15129 16.7139 2.46148C16.7147 2.77332 16.5909 3.07255 16.37 3.29268Z" fill="#50A5F1"/>
</svg>
