<svg width="91" height="91" viewBox="0 0 91 91" fill="none" xmlns="http://www.w3.org/2000/svg">
<path fill-rule="evenodd" clip-rule="evenodd" d="M5.33203 91H85.668C88.6082 91 91 88.6082 91 85.668V19.5508C91 18.5691 90.2044 17.7734 89.2227 17.7734H76.7812C76.7812 7.97305 68.8082 0 59.0078 0C49.1866 0 41.2344 7.94459 41.2344 17.7734H27.7266C26.7449 17.7734 25.9492 18.5691 25.9492 19.5508V40.168H1.77734C0.795639 40.168 0 40.9636 0 41.9453V85.668C0 88.6082 2.39178 91 5.33203 91ZM3.55469 85.668V79.2695H44.7891V85.668C44.7891 86.6483 43.992 87.4453 43.0117 87.4453H5.33203C4.35172 87.4453 3.55469 86.6483 3.55469 85.668ZM48.0383 87.4453H85.668C86.6483 87.4453 87.4453 86.6483 87.4453 85.668V79.2695H48.3438V85.668C48.3438 86.2914 48.2354 86.8892 48.0383 87.4453ZM59.0078 3.55469C66.8483 3.55469 73.2266 9.93299 73.2266 17.7734H44.7891C44.7891 9.91563 51.1451 3.55469 59.0078 3.55469ZM41.2344 21.3281H29.5039V40.168H46.5664C47.5481 40.168 48.3438 40.9636 48.3438 41.9453V75.7148H87.4453V21.3281H76.7812V29.5039H78.5586C79.5403 29.5039 80.3359 30.2995 80.3359 31.2812C80.3359 32.263 79.5403 33.0586 78.5586 33.0586H71.4492C70.4675 33.0586 69.6719 32.263 69.6719 31.2812C69.6719 30.2995 70.4675 29.5039 71.4492 29.5039H73.2266V21.3281H44.7891V29.5039H46.5664C47.5481 29.5039 48.3438 30.2995 48.3438 31.2812C48.3438 32.263 47.5481 33.0586 46.5664 33.0586H39.457C38.4753 33.0586 37.6797 32.263 37.6797 31.2812C37.6797 30.2995 38.4753 29.5039 39.457 29.5039H41.2344V21.3281ZM44.7891 43.7227V75.7148H3.55469V43.7227H44.7891ZM83.8906 66.8281C83.8906 67.8091 83.0943 68.6055 82.1133 68.6055C81.1323 68.6055 80.3359 67.8091 80.3359 66.8281C80.3359 65.8471 81.1323 65.0508 82.1133 65.0508C83.0943 65.0508 83.8906 65.8471 83.8906 66.8281ZM13.5078 54.3867V57.9414C13.5078 63.833 18.2803 68.6055 24.1719 68.6055C30.0524 68.6055 34.8359 63.8219 34.8359 57.9414V54.3867C35.8176 54.3867 36.6133 53.5911 36.6133 52.6094C36.6133 51.6277 35.8176 50.832 34.8359 50.832H31.2812C30.2995 50.832 29.5039 51.6277 29.5039 52.6094C29.5039 53.5911 30.2995 54.3867 31.2812 54.3867V57.9414C31.2812 61.8613 28.0918 65.0508 24.1719 65.0508C20.2451 65.0508 17.0625 61.8682 17.0625 57.9414V54.3867C18.0442 54.3867 18.8398 53.5911 18.8398 52.6094C18.8398 51.6277 18.0442 50.832 17.0625 50.832H13.5078C12.5261 50.832 11.7305 51.6277 11.7305 52.6094C11.7305 53.5911 12.5261 54.3867 13.5078 54.3867ZM83.8906 59.7188C83.8906 60.7005 83.095 61.4961 82.1133 61.4961C81.1316 61.4961 80.3359 60.7005 80.3359 59.7188V45.5C80.3359 44.5183 81.1316 43.7227 82.1133 43.7227C83.095 43.7227 83.8906 44.5183 83.8906 45.5V59.7188Z" fill="#0A1430"/>
</svg>
