<svg width="9" height="6" viewBox="0 0 9 6" fill="none" xmlns="http://www.w3.org/2000/svg">
<path d="M8.74087 5.456C9.39262 2.52725 6.82687 -0.133377 3.81375 0.377373C2.178 -0.637752 0 0.509373 0 2.45562C0 2.90825 0.124875 3.332 0.342 3.69725C-0.263625 6.63275 2.32312 9.25512 5.33362 8.7095C5.68462 8.89512 6.08512 9.00087 6.51075 9.00087C8.36662 9.00087 9.555 7.076 8.74087 5.456ZM4.536 7.4555C3.65775 7.4555 2.79975 7.24362 2.292 6.51837C1.53525 5.44812 2.53312 4.91262 3.02287 5.32062C3.43162 5.66525 3.30337 6.49887 4.50375 6.49887C5.03287 6.49887 5.68612 6.27312 5.68612 5.7485C5.68612 4.69287 3.34425 5.19237 2.41312 4.0415C2.07112 3.62 2.00662 2.87637 2.42662 2.33712C3.15862 1.39512 5.30662 1.33775 6.23025 2.04912C7.083 2.70912 6.85275 3.58512 6.16462 3.58512C5.337 3.58512 5.772 2.50212 4.43587 2.50212C3.46725 2.50212 3.08625 3.191 3.76837 3.52625C4.67625 3.977 7.04962 3.83637 7.04962 5.62737C7.04662 6.88625 5.832 7.4555 4.536 7.4555Z" fill="#50A5F1"/>
</svg>
