<svg width="15" height="17" viewBox="0 0 15 17" fill="none" xmlns="http://www.w3.org/2000/svg">
<g opacity="0.3" clip-path="url(#clip0)">
<path d="M7.5 0.134338C3.35851 0.134338 0 3.69335 0 8.0821C0 12.4708 3.35851 16.0299 7.5 16.0299C11.6415 16.0299 15 12.4708 15 8.0821C15 3.69335 11.6415 0.134338 7.5 0.134338ZM11.2626 6.2154V7.29155C10.7837 7.29173 10.3185 7.19229 9.87967 6.99611C9.59751 6.86988 9.33463 6.70723 9.09419 6.51068L9.1014 9.82306C9.09838 10.5689 8.81991 11.2697 8.31592 11.7976C7.90576 12.2273 7.38604 12.5005 6.82271 12.589C6.69035 12.6097 6.55564 12.6204 6.41941 12.6204C5.8164 12.6204 5.24391 12.4134 4.7756 12.0315C4.68747 11.9596 4.60318 11.8816 4.52294 11.7976C3.97673 11.2255 3.69507 10.4502 3.7425 9.63452C3.77868 9.01363 4.01326 8.42149 4.40432 7.95739C4.9217 7.34324 5.64551 7.00235 6.41941 7.00235C6.55564 7.00235 6.69035 7.01319 6.82271 7.03396V7.43184V8.53869C6.69721 8.49482 6.56317 8.4707 6.4236 8.4707C5.71655 8.4707 5.14453 9.082 5.15511 9.83182C5.16182 10.3116 5.40911 10.7309 5.77386 10.9621C5.94527 11.0708 6.14247 11.1381 6.35291 11.1503C6.51779 11.1599 6.67611 11.1356 6.82271 11.0843C7.32788 10.9074 7.6923 10.4046 7.6923 9.81158L7.69397 7.59344V3.5438H9.09249C9.09384 3.69065 9.1079 3.83393 9.13403 3.97277C9.23959 4.53473 9.53851 5.02227 9.95452 5.35465C10.3173 5.64459 10.769 5.81646 11.2586 5.81646C11.2589 5.81646 11.2629 5.81646 11.2626 5.81612V6.2154H11.2626Z" fill="#09093A"/>
</g>
<defs>
<clipPath id="clip0">
<rect width="15" height="15.8955" fill="white" transform="translate(0 0.134338)"/>
</clipPath>
</defs>
</svg>
