<svg width="15" height="17" viewBox="0 0 15 17" fill="none" xmlns="http://www.w3.org/2000/svg">
<g opacity="0.3" clip-path="url(#clip0)">
<path d="M8.93555 8.0821C8.93555 8.92228 8.29285 9.60335 7.5 9.60335C6.70715 9.60335 6.06445 8.92228 6.06445 8.0821C6.06445 7.24192 6.70715 6.56085 7.5 6.56085C8.29285 6.56085 8.93555 7.24192 8.93555 8.0821Z" fill="#09093A"/>
<path d="M10.8572 5.39056C10.7882 5.1924 10.6781 5.01304 10.5351 4.86581C10.3961 4.71422 10.227 4.59755 10.0399 4.52443C9.88812 4.46197 9.66016 4.38763 9.24027 4.36738C8.78606 4.34543 8.64987 4.3407 7.49997 4.3407C6.34995 4.3407 6.21377 4.34531 5.75967 4.36726C5.33978 4.38763 5.1117 4.46197 4.96007 4.52443C4.77296 4.59755 4.6037 4.71422 4.46488 4.86581C4.32183 5.01304 4.21174 5.19228 4.14262 5.39056C4.08368 5.55137 4.01353 5.79307 3.99442 6.23802C3.9737 6.71923 3.96924 6.86354 3.96924 8.08222C3.96924 9.30077 3.9737 9.44509 3.99442 9.92642C4.01353 10.3714 4.08368 10.6129 4.14262 10.7738C4.21174 10.972 4.32172 11.1513 4.46477 11.2985C4.6037 11.4501 4.77284 11.5668 4.95995 11.6399C5.1117 11.7025 5.33978 11.7768 5.75967 11.7971C6.21377 11.819 6.34984 11.8236 7.49986 11.8236C8.64999 11.8236 8.78617 11.819 9.24016 11.7971C9.66004 11.7768 9.88812 11.7025 10.0399 11.6399C10.4155 11.4864 10.7123 11.1718 10.8572 10.7738C10.9161 10.6129 10.9863 10.3714 11.0055 9.92642C11.0262 9.44509 11.0306 9.30077 11.0306 8.08222C11.0306 6.86354 11.0262 6.71923 11.0055 6.23802C10.9864 5.79307 10.9163 5.55137 10.8572 5.39056V5.39056ZM7.49997 10.4256C6.27854 10.4256 5.2884 9.37645 5.2884 8.0821C5.2884 6.78775 6.27854 5.73861 7.49997 5.73861C8.72128 5.73861 9.71143 6.78775 9.71143 8.0821C9.71143 9.37645 8.72128 10.4256 7.49997 10.4256ZM9.79886 6.19363C9.51344 6.19363 9.28204 5.94842 9.28204 5.64596C9.28204 5.34351 9.51344 5.09829 9.79886 5.09829C10.0843 5.09829 10.3157 5.34351 10.3157 5.64596C10.3156 5.94842 10.0843 6.19363 9.79886 6.19363Z" fill="#09093A"/>
<path d="M7.5 0.134338C3.3585 0.134338 0 3.69334 0 8.0821C0 12.4709 3.3585 16.0299 7.5 16.0299C11.6415 16.0299 15 12.4709 15 8.0821C15 3.69334 11.6415 0.134338 7.5 0.134338ZM11.7807 9.96365C11.7598 10.4495 11.6869 10.7812 11.5805 11.0715C11.3568 11.6845 10.8995 12.1691 10.321 12.4062C10.0471 12.519 9.734 12.5961 9.27567 12.6183C8.81641 12.6405 8.6697 12.6459 7.50011 12.6459C6.33041 12.6459 6.18382 12.6405 5.72445 12.6183C5.26611 12.5961 4.953 12.519 4.67915 12.4062C4.39167 12.2916 4.13143 12.112 3.91628 11.8798C3.69724 11.6519 3.52776 11.376 3.41961 11.0715C3.31318 10.7813 3.24028 10.4495 3.21945 9.96377C3.19828 9.47698 3.19336 9.32151 3.19336 8.0821C3.19336 6.84269 3.19828 6.68721 3.21934 6.20055C3.24017 5.71473 3.31295 5.38304 3.41938 5.09271C3.52753 4.7882 3.69713 4.5123 3.91628 4.28443C4.13132 4.05219 4.39167 3.87259 4.67903 3.75798C4.953 3.6452 5.266 3.56807 5.72445 3.54588C6.1837 3.52368 6.33041 3.51835 7.5 3.51835C8.66959 3.51835 8.8163 3.52368 9.27555 3.546C9.734 3.56807 10.047 3.6452 10.321 3.75786C10.6083 3.87246 10.8687 4.05219 11.0838 4.28443C11.3029 4.51242 11.4725 4.7882 11.5805 5.09271C11.687 5.38304 11.7598 5.71473 11.7808 6.20055C11.8017 6.68721 11.8066 6.84269 11.8066 8.0821C11.8066 9.32151 11.8017 9.47698 11.7807 9.96365V9.96365Z" fill="#09093A"/>
</g>
<defs>
<clipPath id="clip0">
<rect width="15" height="15.8955" fill="white" transform="translate(0 0.134338)"/>
</clipPath>
</defs>
</svg>
