<svg width="14" height="14" viewBox="0 0 14 14" fill="none" xmlns="http://www.w3.org/2000/svg">
<g opacity="0.3">
<path fill-rule="evenodd" clip-rule="evenodd" d="M5.98706 11.9735C7.36858 11.9735 8.63858 11.4983 9.65189 10.7103L12.9418 14L14 12.9418L10.7101 9.65213C11.4989 8.63812 11.9741 7.36818 11.9741 5.98674C11.9741 2.6858 9.28818 0 5.98706 0C2.68595 0 0 2.6858 0 5.98674C0 9.28768 2.68595 11.9735 5.98706 11.9735ZM5.98684 1.49668C8.46324 1.49668 10.4771 3.51047 10.4771 5.98673C10.4771 8.463 8.46324 10.4768 5.98684 10.4768C3.51044 10.4768 1.49654 8.463 1.49654 5.98673C1.49654 3.51047 3.51044 1.49668 5.98684 1.49668Z" fill="#09093A"/>
<path fill-rule="evenodd" clip-rule="evenodd" d="M7.04372 4.92857C7.32735 5.21294 7.48377 5.58861 7.48377 5.98672H8.98053C8.98053 5.18974 8.6692 4.4384 8.10193 3.87041C6.96888 2.73892 5.00437 2.73892 3.87207 3.87041L4.92879 4.93006C5.49756 4.36282 6.47794 4.36432 7.04372 4.92857Z" fill="#09093A"/>
</g>
</svg>
