<svg width="15" height="17" viewBox="0 0 15 17" fill="none" xmlns="http://www.w3.org/2000/svg">
<g opacity="0.3" clip-path="url(#clip0)">
<path d="M15 8.0821C15 3.6922 11.6426 0.134338 7.5 0.134338C3.35742 0.134338 0 3.6922 0 8.0821C0 12.472 3.35742 16.0299 7.5 16.0299C7.54395 16.0299 7.58789 16.0299 7.63184 16.0268V9.8424H6.02051V7.85236H7.63184V6.38699C7.63184 4.68878 8.61035 3.76361 10.04 3.76361C10.7256 3.76361 11.3145 3.81639 11.4844 3.84122V5.61705H10.5C9.72363 5.61705 9.57129 6.00823 9.57129 6.58258V7.84925H11.4316L11.1885 9.8393H9.57129V15.7225C12.7061 14.7694 15 11.7114 15 8.0821V8.0821Z" fill="#09093A"/>
</g>
<defs>
<clipPath id="clip0">
<rect width="15" height="15.8955" fill="white" transform="translate(0 0.134338)"/>
</clipPath>
</defs>
</svg>
