<svg width="26" height="27" viewBox="0 0 26 27" fill="none" xmlns="http://www.w3.org/2000/svg">
<g opacity="0.3" clip-path="url(#clip0)">
<path d="M19.7666 17.861C18.9172 16.9902 17.8568 16.9902 17.0128 17.861C16.3689 18.524 15.7251 19.187 15.0921 19.8612C14.919 20.0466 14.7729 20.086 14.5619 19.9623C14.1453 19.7264 13.7016 19.5353 13.3013 19.2769C11.4347 18.0577 9.8711 16.4902 8.48605 14.726C7.79893 13.8495 7.18756 12.9112 6.76014 11.8549C6.67358 11.6414 6.68981 11.501 6.85753 11.3268C7.50136 10.6807 8.12896 10.0177 8.76197 9.35473C9.64386 8.4333 9.64386 7.35456 8.75656 6.42752C8.2534 5.89938 7.75024 5.38249 7.24708 4.85435C6.72768 4.31498 6.2137 3.76999 5.68889 3.23624C4.83947 2.37662 3.77904 2.37662 2.93502 3.24186C2.28578 3.90483 1.66359 4.58467 1.00353 5.23641C0.392157 5.83758 0.0837665 6.5736 0.0188422 7.43322C-0.0839545 8.83221 0.246077 10.1525 0.711368 11.4392C1.66359 14.1023 3.11356 16.4677 4.87193 18.6364C7.24708 21.5692 10.0821 23.8896 13.3986 25.5639C14.8919 26.3168 16.4393 26.8955 18.1219 26.991C19.2797 27.0584 20.286 26.755 21.0922 25.8168C21.644 25.1763 22.2662 24.5919 22.8505 23.9795C23.7162 23.0693 23.7216 21.9681 22.8614 21.0692C21.8334 19.9961 20.8 18.9286 19.7666 17.861Z" fill="#09093A"/>
<path d="M18.733 13.3832L20.7294 13.0292C20.4156 11.1245 19.55 9.39969 18.2352 8.02879C16.8448 6.58485 15.0864 5.67466 13.1495 5.39374L12.8682 7.47818C14.3668 7.6973 15.7302 8.3996 16.8069 9.51768C17.8241 10.5739 18.4895 11.9111 18.733 13.3832Z" fill="#09093A"/>
<path d="M21.8553 4.37115C19.5505 1.97769 16.6343 0.466331 13.4151 0L13.1338 2.08444C15.9147 2.48897 18.4359 3.79807 20.427 5.86004C22.3152 7.82087 23.5541 10.2986 24.0032 13.0236L25.9996 12.6696C25.4748 9.51203 24.0411 6.64662 21.8553 4.37115Z" fill="#09093A"/>
</g>
<defs>
<clipPath id="clip0">
<rect width="26" height="27" fill="white"/>
</clipPath>
</defs>
</svg>
