<?xml version="1.0" standalone="no"?>
<!DOCTYPE svg PUBLIC "-//W3C//DTD SVG 20010904//EN"
 "http://www.w3.org/TR/2001/REC-SVG-20010904/DTD/svg10.dtd">
<svg version="1.0" xmlns="http://www.w3.org/2000/svg"
 width="290.000000pt" height="290.000000pt" viewBox="0 0 290.000000 290.000000"
 preserveAspectRatio="xMidYMid meet">
<metadata>
Created by potrace 1.11, written by Peter Selinger 2001-2013
</metadata>
<g transform="translate(0.000000,290.000000) scale(0.100000,-0.100000)"
fill="#000000" stroke="none">
<path d="M1340 2727 c-5 -5 -126 -19 -172 -21 -14 -1 -25 -4 -23 -7 2 -3 -17
-11 -43 -17 -197 -52 -424 -186 -565 -336 -86 -92 -107 -116 -107 -125 0 -5
-4 -11 -9 -13 -24 -9 -144 -229 -171 -313 -7 -22 -15 -44 -19 -50 -3 -5 -6
-14 -8 -20 -1 -5 -12 -53 -24 -105 -17 -74 -23 -131 -25 -258 -1 -89 2 -177 6
-195 5 -17 12 -48 15 -67 3 -19 13 -61 21 -93 8 -32 12 -63 8 -69 -4 -6 -3 -8
4 -4 6 3 15 -9 23 -31 26 -79 119 -255 161 -305 13 -15 34 -42 48 -60 39 -50
230 -235 230 -222 0 2 33 -18 73 -44 143 -93 311 -161 442 -178 22 -3 55 -9
73 -14 36 -10 329 -7 377 4 17 3 51 11 76 17 26 6 53 12 60 13 8 2 27 8 42 14
16 7 34 12 41 12 27 0 274 132 341 182 62 47 214 193 240 230 80 116 175 277
175 298 0 4 7 24 15 44 8 20 15 38 15 41 0 3 6 20 14 39 8 19 20 65 27 104 7
39 17 68 22 65 5 -3 5 2 -1 12 -6 11 -6 30 -1 47 12 45 9 263 -6 347 -31 177
-95 347 -181 483 -24 36 -41 69 -38 72 2 3 1 4 -2 2 -4 -3 -25 18 -47 47 -48
61 -138 151 -185 187 -19 14 -39 30 -45 35 -44 39 -208 135 -232 135 -7 0 -15
4 -17 9 -3 8 -175 70 -213 77 -11 2 -32 5 -46 8 -93 20 -355 36 -369 23z"/>
</g>
</svg>
