<svg width="20" height="20" viewBox="0 0 20 20" fill="none" xmlns="http://www.w3.org/2000/svg">
<path d="M3.51562 14.1013V18.2029C3.51562 18.7274 4.15094 18.9824 4.51602 18.6173L5.27344 17.8595L6.03086 18.6173C6.39863 18.9851 7.03125 18.7248 7.03125 18.2029V14.1013H3.51562Z" fill="white"/>
<path d="M2.96875 12.9294V1.79663C2.96875 1.47304 3.23109 1.21069 3.55469 1.21069H7.65625C8.62539 1.21069 9.41406 1.99936 9.41406 2.96851V13.5255C8.91328 13.1455 8.29727 12.9294 7.65625 12.9294H2.96875Z" fill="white"/>
<path d="M17.0312 12.9294V1.79663C17.0312 1.47304 16.7689 1.21069 16.4453 1.21069H12.3438C11.3746 1.21069 10.5859 1.99936 10.5859 2.96851V13.5255C11.0867 13.1455 11.7027 12.9294 12.3438 12.9294H17.0312Z" fill="white"/>
<path d="M8.20312 14.1894C8.60219 14.3216 8.94477 14.5975 9.16836 14.9818C9.27344 15.1623 9.46641 15.2732 9.675 15.2732H10.325C10.5336 15.2732 10.7266 15.1623 10.8316 14.9818C11.1523 14.4306 11.7176 14.1013 12.3438 14.1013H17.6172C17.9406 14.1013 18.2031 13.8388 18.2031 13.5154V2.38257H19.4141C19.7375 2.38257 20 2.64507 20 2.96851V15.8591C20 16.1826 19.7375 16.4451 19.4141 16.4451H8.20312V14.1894Z" fill="white"/>
<path d="M0.585938 2.38257H1.79688V13.5154C1.79688 13.8256 2.03859 14.0791 2.34375 14.0993V16.4451H0.585938C0.2625 16.4451 0 16.1826 0 15.8591V2.96851C0 2.64507 0.2625 2.38257 0.585938 2.38257Z" fill="white"/>
</svg>
