<svg width="510" height="510" xmlns="http://www.w3.org/2000/svg">

 <g>
  <title>background</title>
  <rect fill="none" id="canvas_background" height="402" width="582" y="-1" x="-1"/>
 </g>
 <g>
  <title>Layer 1</title>
  <g id="svg_1">
   <g id="language">
    <path fill="#ffffff" id="svg_2" d="m255,0c-140.25,0 -255,114.75 -255,255s114.75,255 255,255s255,-114.75 255,-255s-114.75,-255 -255,-255zm175.950012,153l-73.950012,0c-7.649994,-33.150002 -20.399994,-61.200005 -35.700012,-91.800003c45.900024,17.850006 86.700012,48.450005 109.650024,91.800003zm-175.950012,-102c20.399994,30.599998 38.25,63.75 48.450012,102l-96.900009,0c10.199997,-35.699997 28.050003,-71.400002 48.449997,-102zm-196.349998,255c-5.099998,-15.299988 -7.650002,-33.149994 -7.650002,-51c0,-17.850006 2.549999,-35.699997 7.650002,-51l86.699989,0c-2.549988,17.850006 -2.549988,33.150009 -2.549988,51c0,17.850006 2.549988,33.149994 2.549988,51l-86.699989,0zm20.400002,51l73.949997,0c7.649994,33.149994 20.399994,61.200012 35.699997,91.799988c-45.899994,-17.849976 -86.699997,-48.449982 -109.649994,-91.799988zm73.949997,-204l-73.949997,0c25.5,-43.349998 63.75,-73.949997 109.650009,-91.800003c-15.300018,30.600006 -28.050018,58.650002 -35.700012,91.800003zm102,306c-20.399994,-30.600006 -38.25,-63.75 -48.449997,-102l96.900009,0c-10.200012,35.700012 -28.050018,71.399994 -48.450012,102zm58.649994,-153l-117.300003,0c-2.550003,-17.850006 -5.100006,-33.149994 -5.100006,-51c0,-17.850006 2.550003,-33.150009 5.100006,-51l119.850021,0c2.549988,17.850006 5.100006,33.150009 5.100006,51c-0.000031,17.850006 -5.100006,33.149994 -7.650024,51zm7.649994,142.799988c15.299988,-28.049988 28.049988,-58.648987 35.700012,-91.799988l73.949982,0c-22.949982,43.350006 -63.749969,73.950012 -109.649994,91.799988zm45.900024,-142.799988c2.549988,-17.850006 2.549988,-33.149994 2.549988,-51c0,-17.850006 -2.549988,-33.150009 -2.549988,-51l86.699982,0c5.100006,15.300003 7.649017,33.150009 7.649017,51c0,17.850006 -2.549988,35.700012 -7.649017,51l-86.699982,0z"/>
   </g>
  </g>
  <g id="svg_3"/>
  <g id="svg_4"/>
  <g id="svg_5"/>
  <g id="svg_6"/>
  <g id="svg_7"/>
  <g id="svg_8"/>
  <g id="svg_9"/>
  <g id="svg_10"/>
  <g id="svg_11"/>
  <g id="svg_12"/>
  <g id="svg_13"/>
  <g id="svg_14"/>
  <g id="svg_15"/>
  <g id="svg_16"/>
  <g id="svg_17"/>
 </g>
</svg>