<svg width="12" height="12" viewBox="0 0 12 12" fill="none" xmlns="http://www.w3.org/2000/svg">
<path d="M9.85696 5.99994C9.62026 5.99994 9.42839 6.19182 9.42839 6.42852V10.7141C9.42839 10.9508 9.23652 11.1427 8.99982 11.1427H1.28569C1.04899 11.1427 0.857119 10.9508 0.857119 10.7141V2.14287C0.857119 1.90617 1.04899 1.7143 1.28569 1.7143H6.42846C6.66516 1.7143 6.85703 1.52242 6.85703 1.28572C6.85703 1.04903 6.66516 0.857178 6.42846 0.857178H1.28569C0.575623 0.857178 0 1.4328 0 2.14287V10.7141C0 11.4242 0.575623 11.9998 1.28569 11.9998H8.99984C9.70991 11.9998 10.2855 11.4242 10.2855 10.7141V6.42849C10.2855 6.19182 10.0937 5.99994 9.85696 5.99994Z" fill="white"/>
<path d="M11.5192 0.480584C11.2115 0.172822 10.7942 -4.3442e-05 10.359 6.7803e-06C9.9235 -0.00124878 9.5057 0.171918 9.19884 0.48086L3.55377 6.12545C3.50694 6.17263 3.47161 6.22999 3.45049 6.29302L2.59337 8.8644C2.51856 9.08897 2.63998 9.33164 2.86455 9.40642C2.90811 9.42094 2.95374 9.42834 2.99964 9.4284C3.04565 9.42832 3.09138 9.42094 3.13507 9.40655L5.70645 8.54943C5.76961 8.52834 5.82699 8.49283 5.87402 8.44572L11.5191 2.80068C12.1598 2.16004 12.1599 1.1213 11.5192 0.480584ZM10.9131 2.1951L5.34174 7.76644L3.6772 8.32227L4.23132 6.65986L9.8048 1.08855C10.1112 0.782747 10.6075 0.783249 10.9133 1.08966C11.0594 1.23603 11.1417 1.43418 11.1423 1.64097C11.1429 1.84887 11.0603 2.04835 10.9131 2.1951Z" fill="white"/>
</svg>
