<?xml version="1.0" encoding="utf-8"?>
<!-- Generator: Adobe Illustrator 22.0.1, SVG Export Plug-In . SVG Version: 6.00 Build 0)  -->
<svg version="1.1" id="Capa_1" xmlns="http://www.w3.org/2000/svg" xmlns:xlink="http://www.w3.org/1999/xlink" x="0px" y="0px"
	 viewBox="0 0 509.4 509.5" style="enable-background:new 0 0 509.4 509.5;" xml:space="preserve">
<style type="text/css">
	.st0{fill:white;}
</style>
<g>
	<g>
		<path class="st0" d="M254.7,509.5c-68,0-132-26.5-180.1-74.6C26.5,386.7,0,322.8,0,254.7c0-68,26.5-132,74.6-180.1
			S186.7,0,254.7,0s132,26.5,180.1,74.6s74.6,112.1,74.6,180.1s-26.5,132-74.6,180.1C386.8,483,322.8,509.5,254.7,509.5z
			 M254.7,49.4c-113.1,0-205.2,92.1-205.2,205.3S141.6,460,254.8,460s205.3-92.1,205.3-205.3S367.9,49.4,254.7,49.4z"/>
	</g>
	<g>
		<path class="st0" d="M44.6,57.2"/>
	</g>
</g>
<g>
	<line class="st0" x1="102.3" y1="102.2" x2="407.3" y2="407.2"/>
	
		<rect x="229.7" y="39.1" transform="matrix(0.7071 -0.7071 0.7071 0.7071 -105.5461 254.7441)" class="st0" width="50" height="431.3"/>
</g>
<g>
	<line class="st0" x1="407.7" y1="102.2" x2="101.7" y2="407.2"/>
	
		<rect x="38.7" y="229.8" transform="matrix(0.7083 -0.7059 0.7059 0.7083 -105.5443 254.1034)" class="st0" width="432" height="50"/>
</g>
<path class="st0" d="M399.5,82.8"/>
</svg>
