<?xml version="1.0" encoding="utf-8"?>
<!-- Svg Vector Icons : http://www.onlinewebfonts.com/icon -->
<!DOCTYPE svg PUBLIC "-//W3C//DTD SVG 1.1//EN" "http://www.w3.org/Graphics/SVG/1.1/DTD/svg11.dtd">
<svg version="1.1" xmlns="http://www.w3.org/2000/svg" xmlns:xlink="http://www.w3.org/1999/xlink" x="0px" y="0px" viewBox="0 0 1000 1000" enable-background="new 0 0 1000 1000" xml:space="preserve">
<metadata> Svg Vector Icons : http://www.onlinewebfonts.com/icon </metadata>
<g><path d="M10,313.9C51.4,212.8,92.9,111.7,134.4,10.7c40.3,100.9,80,202.1,119.9,303.2c-26.9,0.2-53.8-0.2-80.6,0.2c0.1,150-0.1,299.9,0.1,449.9c124.7-104.7,249.5-209.2,374-314c-17.5-20.9-35.1-41.7-52.5-62.6c104-33.4,208.1-66.5,312.1-99.7C756.1,383.4,704,478.8,652.3,574.3c-17.4-20.4-34.4-41.1-51.8-61.6C475.8,617.5,350.9,722,226.4,826.9c153.4,0.2,306.8,0,460.2,0.1c0.4-27.3,0-54.7,0.2-82C787.9,786.4,889,827.9,990,869.4c-100.9,40.3-202.1,79.9-303.2,119.9c-0.2-26.9,0.2-53.8-0.2-80.6c-197.4,0.1-394.8-0.1-592.2,0.1c-0.8-0.8-1.7-1.7-2.5-2.5c0.2-197.4,0-394.8,0.1-592.2C64.7,313.7,37.3,314.1,10,313.9L10,313.9L10,313.9z"/></g>
</svg>