<svg width="20" height="20" viewBox="0 0 20 20" fill="none" xmlns="http://www.w3.org/2000/svg">
<path d="M18.1854 18.5863C18.3771 18.5848 18.589 18.5199 18.7878 18.316C18.993 18.0875 19.0004 17.8241 19.0006 17.7615V1.83058C19.0006 1.37188 18.6282 1 18.1689 1H7.77734C7.98839 1.20827 8.14444 1.45808 8.23721 1.73141H8.85059C9.28824 1.73141 9.6478 2.07079 9.68044 2.50009H11.7242C12.4616 2.50009 13.0616 3.09909 13.0616 3.83532V18.5922C13.0616 18.5921 16.4912 18.5883 18.1854 18.5863V18.5863Z" fill="#FFFFFF"/>
<path d="M7.18096 2.32155C7.17308 1.93114 6.84665 1.61353 6.45328 1.61353C6.05992 1.61353 5.73344 1.93114 5.7256 2.32151C5.71924 2.63641 5.46243 2.88836 5.14781 2.88836H4.37891C4.37898 3.01743 4.37888 3.39662 4.37891 3.52116H8.52765C8.52786 3.35119 8.52705 3.0519 8.52765 2.88836H7.75875C7.44417 2.88836 7.18733 2.63641 7.18096 2.32155V2.32155Z" fill="#FFFFFF"/>
<path d="M11.7241 3.65723H9.68303V3.77842C9.68303 4.27469 9.27904 4.67839 8.78249 4.67839H4.12321C3.62666 4.67839 3.22268 4.27465 3.22268 3.77842V3.65723H1.18158C1.08145 3.65723 1 3.73717 1 3.83543V18.8219C1 18.9201 1.08145 19.0001 1.18158 19.0001H11.7241C11.8243 19.0001 11.9057 18.9201 11.9057 18.8219V3.83543C11.9057 3.73717 11.8242 3.65723 11.7241 3.65723ZM2.27104 7.0396C2.48666 6.80129 2.8546 6.7829 3.0929 6.99852L3.37914 7.2575L4.44705 6.03788C4.65873 5.79606 5.02635 5.77176 5.26813 5.98344C5.50992 6.19512 5.53429 6.56274 5.32258 6.80453L3.86507 8.46911C3.63739 8.73618 3.22901 8.69704 3.03691 8.51729L2.31212 7.8615C2.07385 7.64587 2.05545 7.2779 2.27104 7.0396ZM10.1967 17.6921H2.65473C2.33339 17.6921 2.07286 17.4316 2.07286 17.1103C2.07286 16.7889 2.33336 16.5284 2.65473 16.5284H10.1967C10.518 16.5284 10.7785 16.7889 10.7785 17.1103C10.7785 17.4316 10.518 17.6921 10.1967 17.6921ZM2.27104 13.71C2.48666 13.4717 2.8546 13.4533 3.0929 13.6689L3.37914 13.9279L4.44705 12.7083C4.65873 12.4665 5.02635 12.4421 5.26813 12.6539C5.50992 12.8655 5.53429 13.2332 5.32258 13.4749L3.86507 15.1395C3.63739 15.4066 3.22901 15.3674 3.03691 15.1877L2.31212 14.5319C2.07385 14.3163 2.05545 13.9483 2.27104 13.71ZM10.1967 15.3131H5.92529C5.60396 15.3131 5.34342 15.0526 5.34342 14.7312C5.34342 14.4099 5.60396 14.1493 5.92529 14.1493H10.1967C10.518 14.1493 10.7785 14.4099 10.7785 14.7312C10.7785 15.0526 10.518 15.3131 10.1967 15.3131ZM10.1967 11.0585H2.65473C2.33339 11.0585 2.07286 10.798 2.07286 10.4766C2.07286 10.1552 2.33336 9.89472 2.65473 9.89472H10.1967C10.518 9.89472 10.7785 10.1552 10.7785 10.4766C10.7785 10.798 10.518 11.0585 10.1967 11.0585ZM10.1967 8.64492H5.92529C5.60396 8.64492 5.34342 8.38442 5.34342 8.06305C5.34342 7.74171 5.60396 7.48118 5.92529 7.48118H10.1967C10.518 7.48118 10.7785 7.74171 10.7785 8.06305C10.7785 8.38439 10.518 8.64492 10.1967 8.64492Z" fill="#FFFFFF"/>
</svg>
