<svg width="20" height="20" viewBox="0 0 20 20" fill="none" xmlns="http://www.w3.org/2000/svg">
<path d="M18.1854 18.5863C18.3771 18.5848 18.589 18.5199 18.7878 18.316C18.993 18.0875 19.0004 17.8241 19.0006 17.7615V1.83058C19.0006 1.37188 18.6282 1 18.1689 1H7.77734C7.98839 1.20827 8.14444 1.45808 8.23721 1.73141H8.85059C9.28824 1.73141 9.6478 2.07079 9.68044 2.50009H11.7242C12.4616 2.50009 13.0616 3.09909 13.0616 3.83532V18.5922C13.0616 18.5921 16.4912 18.5883 18.1854 18.5863V18.5863Z" fill="white"/>
<path d="M7.18047 2.32167C7.1726 1.93126 6.84616 1.61365 6.45279 1.61365C6.05943 1.61365 5.73296 1.93126 5.72511 2.32163C5.71875 2.63654 5.46194 2.88849 5.14732 2.88849H4.37843C4.3785 3.01756 4.37839 3.39675 4.37843 3.52128H8.52716C8.52737 3.35131 8.52656 3.05202 8.52716 2.88849H7.75826C7.44368 2.88849 7.18684 2.63654 7.18047 2.32167V2.32167Z" fill="white"/>
<path d="M11.7241 3.6571H9.68303V3.7783C9.68303 4.27457 9.27904 4.67827 8.78249 4.67827H4.12321C3.62666 4.67827 3.22268 4.27453 3.22268 3.7783V3.6571H1.18158C1.08145 3.6571 1 3.73704 1 3.83531V18.8218C1 18.92 1.08145 19 1.18158 19H11.7241C11.8243 19 11.9057 18.92 11.9057 18.8218V3.83531C11.9057 3.73704 11.8242 3.6571 11.7241 3.6571ZM2.27104 7.03947C2.48666 6.80117 2.8546 6.78278 3.0929 6.9984L3.37914 7.25738L4.44705 6.03776C4.65873 5.79594 5.02635 5.77164 5.26813 5.98332C5.50992 6.195 5.53429 6.56262 5.32258 6.80441L3.86507 8.46899C3.63739 8.73606 3.22901 8.69692 3.03691 8.51717L2.31212 7.86137C2.07385 7.64575 2.05545 7.27778 2.27104 7.03947ZM10.1967 17.692H2.65473C2.33339 17.692 2.07286 17.4315 2.07286 17.1101C2.07286 16.7888 2.33336 16.5283 2.65473 16.5283H10.1967C10.518 16.5283 10.7785 16.7888 10.7785 17.1101C10.7785 17.4315 10.518 17.692 10.1967 17.692ZM2.27104 13.7099C2.48666 13.4716 2.8546 13.4532 3.0929 13.6688L3.37914 13.9278L4.44705 12.7082C4.65873 12.4664 5.02635 12.442 5.26813 12.6537C5.50992 12.8654 5.53429 13.233 5.32258 13.4748L3.86507 15.1394C3.63739 15.4065 3.22901 15.3673 3.03691 15.1876L2.31212 14.5318C2.07385 14.3161 2.05545 13.9482 2.27104 13.7099ZM10.1967 15.313H5.92529C5.60396 15.313 5.34342 15.0525 5.34342 14.7311C5.34342 14.4098 5.60396 14.1492 5.92529 14.1492H10.1967C10.518 14.1492 10.7785 14.4098 10.7785 14.7311C10.7785 15.0525 10.518 15.313 10.1967 15.313ZM10.1967 11.0583H2.65473C2.33339 11.0583 2.07286 10.7978 2.07286 10.4765C2.07286 10.1551 2.33336 9.89459 2.65473 9.89459H10.1967C10.518 9.89459 10.7785 10.1551 10.7785 10.4765C10.7785 10.7978 10.518 11.0583 10.1967 11.0583ZM10.1967 8.6448H5.92529C5.60396 8.6448 5.34342 8.3843 5.34342 8.06293C5.34342 7.74159 5.60396 7.48106 5.92529 7.48106H10.1967C10.518 7.48106 10.7785 7.74159 10.7785 8.06293C10.7785 8.38426 10.518 8.6448 10.1967 8.6448Z" fill="white"/>
</svg>
