<svg width="18" height="18" viewBox="0 0 18 18" fill="none" xmlns="http://www.w3.org/2000/svg">
<g clip-path="url(#clip0)">
<path d="M8.7876 13.0006C8.7876 13.5649 9.24667 14.024 9.81103 14.024H14.0727V11.9772H9.81099C9.24667 11.9771 8.7876 12.4362 8.7876 13.0006ZM10.4162 12.5556C10.6619 12.8014 10.6619 13.1997 10.4162 13.4455C10.1705 13.6912 9.77208 13.6912 9.52636 13.4455C9.28064 13.1997 9.28064 12.8014 9.52636 12.5556C9.77208 12.3099 10.1705 12.3099 10.4162 12.5556Z" fill="white"/>
<path d="M9.81145 15.1447C8.62916 15.1447 7.6673 14.1828 7.6673 13.0005C7.6673 11.8182 8.62916 10.8564 9.81145 10.8564H14.0732V9.22249C14.0732 8.45585 13.4495 7.83217 12.6828 7.83217H2.07792C1.55013 7.83217 1.12072 7.40279 1.12072 6.87494C1.12072 6.56544 0.869854 6.31458 0.56036 6.31458C0.250866 6.31458 0 6.56544 0 6.87494V15.8576C0 17.0034 0.932159 17.9355 2.07796 17.9355H12.6828C13.4495 17.9355 14.0732 17.3118 14.0732 16.5452V15.1447H9.81145Z" fill="white"/>
<path d="M2.59503 2.9018C3.85055 2.9018 4.87198 1.88034 4.87198 0.624813V0.0644531H2.59503C2.28557 0.0644531 2.03467 0.315354 2.03467 0.624813V2.9018H2.59503Z" fill="white"/>
<path d="M15.1626 0.624813C15.1626 1.88034 16.184 2.9018 17.4396 2.9018H18V0.624813C18 0.315354 17.7491 0.0644531 17.4396 0.0644531H15.1626V0.624813Z" fill="white"/>
<path d="M17.4396 6.10168C16.184 6.10168 15.1626 7.12315 15.1626 8.37867V8.93904H17.4396C17.7491 8.93904 18 8.68813 18 8.37867V6.10168H17.4396Z" fill="white"/>
<path d="M17.4398 4.02252C15.5664 4.02252 14.0421 2.49831 14.0421 0.624813V0.0644531H5.9927V0.624813C5.9927 2.49831 4.46849 4.02252 2.59503 4.02252H2.03467V4.98095H2.59503C3.86305 4.98095 4.97089 5.6793 5.55461 6.71148H12.6831C13.2685 6.71148 13.8074 6.91346 14.2349 7.25062C14.7011 5.92995 15.9616 4.98095 17.4398 4.98095H18.0002V4.02252H17.4398ZM11.4392 5.92351C10.6535 6.70928 9.38155 6.70938 8.59565 5.92351C7.80985 5.13771 7.80981 3.86583 8.59565 3.07996C9.37959 2.29598 10.6552 2.29602 11.4392 3.07996C12.2232 3.86394 12.2232 5.13953 11.4392 5.92351Z" fill="white"/>
<path d="M2.23335 6.71147H4.14323C3.41007 6.02996 2.66178 6.10165 2.05225 6.10165C2.14898 6.28748 2.21223 6.49338 2.23335 6.71147Z" fill="white"/>
<path d="M8.7876 13.0006C8.7876 13.5649 9.24667 14.024 9.81103 14.024H14.0727V11.9772H9.81099C9.24667 11.9771 8.7876 12.4362 8.7876 13.0006ZM10.4162 12.5556C10.6619 12.8014 10.6619 13.1997 10.4162 13.4455C10.1705 13.6912 9.77208 13.6912 9.52636 13.4455C9.28064 13.1997 9.28064 12.8014 9.52636 12.5556C9.77208 12.3099 10.1705 12.3099 10.4162 12.5556Z" fill="white"/>
<path d="M9.81145 15.1447C8.62916 15.1447 7.6673 14.1828 7.6673 13.0005C7.6673 11.8182 8.62916 10.8564 9.81145 10.8564H14.0732V9.22249C14.0732 8.45585 13.4495 7.83217 12.6828 7.83217H2.07792C1.55013 7.83217 1.12072 7.40279 1.12072 6.87494C1.12072 6.56544 0.869854 6.31458 0.56036 6.31458C0.250866 6.31458 0 6.56544 0 6.87494V15.8576C0 17.0034 0.932159 17.9355 2.07796 17.9355H12.6828C13.4495 17.9355 14.0732 17.3118 14.0732 16.5452V15.1447H9.81145Z" fill="white"/>
</g>
<defs>
<clipPath id="clip0">
<rect width="18" height="18" fill="white"/>
</clipPath>
</defs>
</svg>
