<?xml version="1.0" encoding="utf-8"?>
<!-- Generator: Adobe Illustrator 22.0.0, SVG Export Plug-In . SVG Version: 6.00 Build 0)  -->
<svg version="1.1" id="Capa_1" xmlns="http://www.w3.org/2000/svg" xmlns:xlink="http://www.w3.org/1999/xlink" x="0px" y="0px"
	 viewBox="0 0 512 512" style="enable-background:new 0 0 512 512;" xml:space="preserve">
<style type="text/css">
	.st0{fill:#FFFFFF;}
</style>
<path class="st0" d="M28.6,124.4c0.3-14,12.6-25.6,28.6-26.8h400.2v0c15.4,0,25.1,13.4,25.1,26.8v299.9c0,13.4-9.8,26.8-25.1,26.8
	H57.2c-16-1.2-28.3-12.8-28.6-26.8L28.6,124.4z M0.6,424.2c0.3,27.4,25.1,49.9,56.6,51.2h400.2c30.7,0,53.1-24.4,53.1-51.2V124.4
	c0-26.8-22.3-51.2-53.1-51.2H57.2C25.8,74.5,1,96.9,0.6,124.4L0.6,424.2z"/>
<g>
	<path class="st0" d="M153,286.4c30.6,0,55.4-24.8,55.4-55.4s-24.8-55.3-55.4-55.3s-55.4,24.8-55.4,55.3S122.4,286.4,153,286.4z
		 M153,190.1c22.4,0,40.8,18.4,40.8,40.8s-18.4,40.8-40.8,40.8s-40.8-18.4-40.8-40.8S130.5,190.1,153,190.1z"/>
	<path class="st0" d="M57.1,372.9h192.5c4.1,0,7.3-3.2,7.3-7.3c0-38.3-31.1-69.5-69.5-69.5h-68c-38.3,0-69.5,31.1-69.5,69.5
		C49.8,369.7,53,372.9,57.1,372.9z M119.3,310.7h68c27.9,0,50.8,20.7,54.4,47.6H64.9C68.5,331.6,91.4,310.7,119.3,310.7z"/>
	<path class="st0" d="M449.1,270.2H308.9c-6.7,0-12.2,5.5-12.2,12.2c0,6.7,5.5,12.2,12.2,12.2h140.2c6.7,0,12.2-5.5,12.2-12.2
		C461.3,275.6,455.9,270.2,449.1,270.2z"/>
	<path class="st0" d="M449.1,199H308.9c-6.7,0-12.2,5.5-12.2,12.2s5.5,12.2,12.2,12.2h140.2c6.7,0,12.2-5.5,12.2-12.2
		S455.9,199,449.1,199z"/>
	<path class="st0" d="M449.1,341.4H308.9c-6.7,0-12.2,5.5-12.2,12.2s5.5,12.2,12.2,12.2h140.2c6.7,0,12.2-5.5,12.2-12.2
		S455.9,341.4,449.1,341.4z"/>
</g>
</svg>
