<?xml version="1.0" encoding="utf-8"?>
<!-- Generator: Adobe Illustrator 22.0.0, SVG Export Plug-In . SVG Version: 6.00 Build 0)  -->
<svg version="1.1" id="Capa_1" xmlns="http://www.w3.org/2000/svg" xmlns:xlink="http://www.w3.org/1999/xlink" x="0px" y="0px"
	 viewBox="0 0 512 512" style="enable-background:new 0 0 512 512;" xml:space="preserve">
<style type="text/css">
	.st0{fill:#FFFFFF;}
</style>
<g>
	<path class="st0" d="M324.1,276.1c52.7,0,95.5-42.8,95.5-95.5s-42.8-95.2-95.5-95.2s-95.5,42.8-95.5,95.2S271.3,276.1,324.1,276.1z
		 M324.1,110.3c38.7,0,70.3,31.6,70.3,70.3s-31.6,70.3-70.3,70.3c-38.7,0-70.3-31.6-70.3-70.3S285.4,110.3,324.1,110.3z"/>
	<path class="st0" d="M383.2,292.8H266.1c-16.7,0-32.7,3.5-47.1,9.7c-12.9-8-28-12.7-44.3-12.7H92.5c-46.2,0-84,37.6-84,84
		c0,4.9,3.9,8.8,8.8,8.8h132.7c-2.5,9.6-3.8,19.6-3.8,30c0,7,5.6,12.6,12.6,12.6h331.5c7,0,12.6-5.6,12.6-12.6
		C503,346.7,449.4,292.8,383.2,292.8z M26.8,364.9c4.3-32.2,32-57.5,65.7-57.5h82.1c9.1,0,17.7,1.8,25.6,5.1
		c-19.3,12.7-34.7,30.9-44,52.3H26.8z M184.5,364.9c9.1-15.5,22.5-28.2,38.5-36.5l17.3-6.9c8.2-2.3,16.8-3.6,25.8-3.6h117.1
		c48,0,87.6,35.7,93.7,82H172.4c0.8-6,2.2-11.8,4.1-17.4L184.5,364.9z"/>
	<path class="st0" d="M133.2,278.1c36.9,0,66.9-30,66.9-66.9s-30-66.7-66.9-66.7s-66.9,30-66.9,66.7S96.2,278.1,133.2,278.1z
		 M133.2,161.9c27.1,0,49.3,22.2,49.3,49.3s-22.2,49.3-49.3,49.3s-49.3-22.2-49.3-49.3C83.9,184.1,106.1,161.9,133.2,161.9z"/>
</g>
</svg>
