<svg width="20" height="20" viewBox="0 0 20 20" fill="none" xmlns="http://www.w3.org/2000/svg">
<path d="M15.5664 10.6768H17.1131C18.7051 10.6768 20.0002 11.9719 20.0002 13.5638V16.7506C20.0002 17.1938 19.8329 17.5987 19.558 17.9054H15.8102V12.0597C15.8102 11.5742 15.7241 11.1084 15.5664 10.6768Z" fill="white"/>
<path d="M4.43384 10.6768C4.27618 11.1084 4.19005 11.5742 4.19005 12.0597V17.9054H0.442131C0.167326 17.5988 0 17.1939 0 16.7506V13.5639C0 11.9719 1.29516 10.6768 2.88712 10.6768H4.43384Z" fill="white"/>
<path d="M8.23184 9.17236H11.7679C13.3598 9.17236 14.655 10.4675 14.655 12.0595V17.9052H5.34473V12.0595C5.34473 10.4675 6.63989 9.17236 8.23184 9.17236Z" fill="white"/>
<path d="M10.0004 1.51709C8.0859 1.51709 6.52832 3.07467 6.52832 4.98924C6.52832 6.28788 7.24508 7.42206 8.3036 8.01753C8.80567 8.29996 9.3845 8.46136 10.0004 8.46136C10.6164 8.46136 11.1952 8.29996 11.6973 8.01753C12.7558 7.42206 13.4726 6.28784 13.4726 4.98924C13.4726 3.07471 11.915 1.51709 10.0004 1.51709Z" fill="white"/>
<path d="M3.90332 4.75342C2.47148 4.75342 1.30664 5.91826 1.30664 7.3501C1.30664 8.78194 2.47148 9.94679 3.90332 9.94679C4.26652 9.94679 4.61238 9.87155 4.92656 9.73632C5.46977 9.50245 5.91766 9.08847 6.19481 8.56991C6.38934 8.20596 6.5 7.79077 6.5 7.3501C6.5 5.9183 5.33516 4.75342 3.90332 4.75342Z" fill="white"/>
<path d="M16.0967 4.75342C14.6648 4.75342 13.5 5.91826 13.5 7.3501C13.5 7.79081 13.6107 8.206 13.8052 8.56991C14.0823 9.0885 14.5302 9.50249 15.0734 9.73632C15.3876 9.87155 15.7335 9.94679 16.0967 9.94679C17.5285 9.94679 18.6934 8.78194 18.6934 7.3501C18.6934 5.91826 17.5285 4.75342 16.0967 4.75342Z" fill="white"/>
</svg>
