<svg width="20" height="20" viewBox="0 0 20 20" fill="none" xmlns="http://www.w3.org/2000/svg">
<path fill-rule="evenodd" clip-rule="evenodd" d="M12.35 9.41667C12.35 8.91041 12.7604 8.5 13.2667 8.5H18.0833C18.5896 8.5 19 8.91041 19 9.41667C19 9.92294 18.5896 10.3333 18.0833 10.3333H13.2667C12.7604 10.3333 12.35 9.92294 12.35 9.41667ZM13.3 13.0834C13.3 12.5772 13.7104 12.1667 14.2167 12.1667H18.0833C18.5896 12.1667 19 12.5772 19 13.0834C19 13.5897 18.5896 14.0001 18.0833 14.0001H14.2167C13.7104 14.0001 13.3 13.5897 13.3 13.0834ZM11.4 5.75017C11.4 5.2439 11.8104 4.8335 12.3167 4.8335H18.0833C18.5896 4.8335 19 5.2439 19 5.75017C19 6.25643 18.5896 6.66684 18.0833 6.66684H12.3167C11.8104 6.66684 11.4 6.25643 11.4 5.75017ZM1.9 15.8335H9.5H10.45H11.4V14.9168C11.4 12.3896 9.26915 10.3335 6.65 10.3335H4.75C2.13085 10.3335 0 12.3896 0 14.9168V15.8335H0.95H1.9ZM5.7 9.41671C7.59525 9.41671 9.025 8.03712 9.025 6.20835C9.025 4.37959 7.59525 3 5.7 3C3.80475 3 2.375 4.37959 2.375 6.20835C2.375 8.03712 3.80475 9.41671 5.7 9.41671Z" fill="white"/>
</svg>
