<svg width="20" height="20" viewBox="0 0 20 20" fill="none" xmlns="http://www.w3.org/2000/svg">
<g clip-path="url(#clip0)">
<path d="M10.208 1.66667H9.29134C9.01634 0.708333 8.13301 0 7.08301 0C6.03301 0 5.14967 0.708333 4.87467 1.66667H3.95801C3.61634 1.66667 3.33301 1.95 3.33301 2.29167V3.54167C3.33301 4.34167 3.99134 5 4.79134 5H9.37467C10.1747 5 10.833 4.34167 10.833 3.54167V2.29167C10.833 1.95 10.5497 1.66667 10.208 1.66667Z" fill="#6A7187"/>
<path d="M11.875 2.5H11.6667V3.54167C11.6667 4.80833 10.6417 5.83333 9.375 5.83333H4.79167C3.525 5.83333 2.5 4.80833 2.5 3.54167V2.5H2.29167C1.025 2.5 0 3.525 0 4.79167V15.2083C0 16.475 1.025 17.5 2.29167 17.5H7.78333C7.36667 16.6083 7.11667 15.625 7.09167 14.5833H3.125C2.78333 14.5833 2.5 14.3 2.5 13.9583C2.5 13.6167 2.78333 13.3333 3.125 13.3333H7.15833C7.23333 12.825 7.35833 12.3417 7.525 11.875H3.125C2.78333 11.875 2.5 11.5917 2.5 11.25C2.5 10.9083 2.78333 10.625 3.125 10.625H8.125C8.45 10.0917 8.83333 9.6 9.28333 9.16667H3.125C2.78333 9.16667 2.5 8.88333 2.5 8.54167C2.5 8.2 2.78333 7.91667 3.125 7.91667H10.9917C11.95 7.41667 13.025 7.11667 14.1667 7.09167V4.79167C14.1667 3.525 13.1417 2.5 11.875 2.5Z" fill="#6A7187"/>
<path d="M14.375 8.75C11.2733 8.75 8.75 11.2733 8.75 14.375C8.75 17.4767 11.2733 20 14.375 20C17.4767 20 20 17.4767 20 14.375C20 11.2733 17.4767 8.75 14.375 8.75ZM17.085 13.2575L14.1683 16.5908C14.0167 16.7642 13.8 16.8675 13.5692 16.875C13.56 16.875 13.5508 16.875 13.5417 16.875C13.3208 16.875 13.1092 16.7875 12.9525 16.6308L11.2858 14.9642C10.96 14.6383 10.96 14.1117 11.2858 13.7858C11.6117 13.46 12.1383 13.46 12.4642 13.7858L13.5008 14.8225L15.8308 12.1592C16.1342 11.8142 16.66 11.7775 17.0067 12.0808C17.3533 12.3842 17.3883 12.9108 17.085 13.2575Z" fill="#6A7187"/>
</g>
<defs>
<clipPath id="clip0">
<rect width="20" height="20" fill="white"/>
</clipPath>
</defs>
</svg>
