<?xml version="1.0" encoding="utf-8"?>
<!-- Generator: Adobe Illustrator 22.0.0, SVG Export Plug-In . SVG Version: 6.00 Build 0)  -->
<svg version="1.1" id="Слой_1" xmlns="http://www.w3.org/2000/svg" xmlns:xlink="http://www.w3.org/1999/xlink" x="0px" y="0px"
	 viewBox="0 0 512 512" style="enable-background:new 0 0 512 512;" xml:space="preserve">
<style type="text/css">
	.st0{fill:#FFFFFF;}
</style>
<g>
	<path class="st0" d="M476.2,225.7H344.6V82.5c0-6.3-4.9-11.2-11.2-11.2H37.8c-6.3,0-11.2,4.9-11.2,11.2v199.3
		c0,6.3,5.2,11.2,11.2,11.2h36.1v37c0,4.4,2.5,8.2,6.3,10.1c1.6,0.8,3.3,1.1,4.9,1.1c2.5,0,4.9-0.8,6.8-2.2l60.2-45.7h84.3v137.8
		c0,0.2,0,0.2,0,0.4c0.2,0.2,0.2,0.4,0.2,0.9c0,0.2,0,0.4,0.2,0.9c0,0.2,0.2,0.6,0.2,0.9c0,0.2,0.2,0.4,0.2,0.9
		c0.2,0.2,0.2,0.4,0.4,0.9c0.2,0.2,0.2,0.4,0.4,0.6c0.2,0.2,0.4,0.4,0.4,0.6c0.2,0.2,0.4,0.4,0.6,0.6l0.2,0.2c0,0,0.2,0,0.2,0.2
		c0.6,0.6,1.5,1.1,2.4,1.3c0.2,0,0.2,0,0.4,0.2c0.9,0.2,1.7,0.4,2.6,0.4h231.6c0.9,0,1.7-0.2,2.6-0.4c0.2,0,0.2,0,0.4-0.2
		c0.9-0.4,1.7-0.9,2.4-1.3c0,0,0.2,0,0.2-0.2l0.2-0.2c0.2-0.2,0.4-0.4,0.6-0.6c0.2-0.2,0.4-0.4,0.4-0.6c0.2-0.2,0.2-0.4,0.4-0.6
		c0.2-0.2,0.2-0.4,0.4-0.9c0.2-0.2,0.2-0.4,0.2-0.9c0-0.2,0.2-0.6,0.2-0.9s0.2-0.4,0.2-0.9c0-0.2,0-0.6,0-0.9c0-0.2,0-0.2,0-0.4
		V234.5C485,229.5,481.1,225.7,476.2,225.7z M236.5,270.5h-88.1c-2.5,0-4.9,0.8-6.8,2.2l-45.2,34.5v-25.5c0-6.3-4.9-11.2-11.2-11.2
		H49V93.7h272.9v132v17.6v27.3h-67.6H236.5z M254.3,293.2h1.5l59,41.2l-60.5,72.3V293.2z M264.2,422.3l65-77.7l27,18.9
		c1.5,1.1,3.2,1.5,4.9,1.5c1.7,0,3.4-0.4,4.9-1.5l27-18.9l65,77.7H264.2z M468.1,406.6l-60.5-72.1l60.5-42.3V406.6z M468.3,271
		l-106.9,74.5l-75-52.2h47.1c6.3,0,11.2-4.9,11.2-11.2v-38.8h123.6V271z"/>
	<path class="st0" d="M104.9,166.2h161.5c6.3,0,11.2-4.9,11.2-11.2s-4.9-11.2-11.2-11.2H104.9c-6.3,0-11.2,4.9-11.2,11.2
		S98.6,166.2,104.9,166.2z"/>
	<path class="st0" d="M277.6,209.2c0-6.3-4.9-11.2-11.2-11.2H104.9c-6.3,0-11.2,4.9-11.2,11.2c0,6.3,4.9,11.2,11.2,11.2h161.5
		C272.6,220.4,277.6,215.5,277.6,209.2z"/>
</g>
</svg>
