<svg width="20" height="21" viewBox="0 0 20 21" fill="none" xmlns="http://www.w3.org/2000/svg">
<g clip-path="url(#clip0)">
<path d="M11.875 0H2.29167C1.025 0 0 1.04482 0 2.33599V15.5025C0 16.7936 1.025 17.8385 2.29167 17.8385H8.44167L8.625 16.7936C8.70833 16.3179 8.925 15.8932 9.25833 15.5449L14.1667 10.5502V2.33599C14.1667 1.04482 13.1417 0 11.875 0ZM3.33333 3.3978H6.66667C7.125 3.3978 7.5 3.78005 7.5 4.24725C7.5 4.71445 7.125 5.0967 6.66667 5.0967H3.33333C2.875 5.0967 2.5 4.71445 2.5 4.24725C2.5 3.78005 2.875 3.3978 3.33333 3.3978ZM7.5 11.8923H3.33333C2.875 11.8923 2.5 11.51 2.5 11.0429C2.5 10.5757 2.875 10.1934 3.33333 10.1934H7.5C7.95833 10.1934 8.33333 10.5757 8.33333 11.0429C8.33333 11.51 7.95833 11.8923 7.5 11.8923ZM10.8333 8.4945H3.33333C2.875 8.4945 2.5 8.11225 2.5 7.64505C2.5 7.17785 2.875 6.7956 3.33333 6.7956H10.8333C11.2917 6.7956 11.6667 7.17785 11.6667 7.64505C11.6667 8.11225 11.2917 8.4945 10.8333 8.4945Z" fill="white"/>
<path d="M10.4401 20.3872C10.2759 20.3872 10.1159 20.321 9.99844 20.2003C9.85427 20.0534 9.78927 19.8444 9.82511 19.6388L10.2668 17.0863C10.2884 16.958 10.3501 16.8391 10.4401 16.7465L16.6277 10.4402C17.3877 9.66377 18.1343 9.87359 18.5427 10.2898L19.5735 11.3406C20.1427 11.9199 20.1427 12.8628 19.5735 13.443L13.386 19.7501C13.296 19.8427 13.1793 19.9047 13.0526 19.9268L10.5484 20.377C10.5126 20.3838 10.4759 20.3872 10.4401 20.3872ZM12.9443 19.2999H12.9526H12.9443Z" fill="white"/>
</g>
<defs>
<clipPath id="clip0">
<rect width="20" height="20.3868" fill="white"/>
</clipPath>
</defs>
</svg>
