<svg width="24" height="24" viewBox="0 0 24 24" fill="none" xmlns="http://www.w3.org/2000/svg">
<path fill-rule="evenodd" clip-rule="evenodd" d="M12 16C14.206 16 16 14.206 16 12C16 9.794 14.206 8 12 8C9.794 8 8 9.794 8 12C8 14.206 9.794 16 12 16ZM11.9993 10.0004C13.0833 10.0004 13.9993 10.9164 13.9993 12.0004C13.9993 13.0844 13.0833 14.0004 11.9993 14.0004C10.9153 14.0004 9.99929 13.0844 9.99929 12.0004C9.99929 10.9164 10.9153 10.0004 11.9993 10.0004Z" fill="#555B6D"/>
<path fill-rule="evenodd" clip-rule="evenodd" d="M2.84523 16.136L3.84523 17.866C4.37623 18.783 5.65423 19.127 6.57523 18.596L7.10423 18.29C7.68623 18.747 8.32523 19.122 9.00023 19.402V20C9.00023 21.103 9.89723 22 11.0002 22H13.0002C14.1032 22 15.0002 21.103 15.0002 20V19.402C15.6752 19.122 16.3142 18.747 16.8962 18.291L17.4252 18.597C18.3482 19.127 19.6232 18.785 20.1562 17.866L21.1552 16.137C21.7072 15.182 21.3792 13.956 20.4242 13.405L19.9192 13.113C19.9732 12.742 20.0002 12.371 20.0002 12C20.0002 11.629 19.9732 11.257 19.9192 10.889L20.4242 10.597C21.3792 10.045 21.7072 8.82 21.1552 7.865L20.1562 6.136C19.6252 5.216 18.3482 4.871 17.4252 5.404L16.8962 5.71C16.3142 5.253 15.6752 4.878 15.0002 4.598V4C15.0002 2.897 14.1032 2 13.0002 2H11.0002C9.89723 2 9.00023 2.897 9.00023 4V4.598C8.32523 4.878 7.68623 5.253 7.10423 5.709L6.57523 5.403C5.65123 4.872 4.37523 5.216 3.84423 6.135L2.84523 7.864C2.29323 8.819 2.62123 10.045 3.57623 10.596L4.08123 10.888C4.02723 11.257 4.00023 11.629 4.00023 12C4.00023 12.371 4.02723 12.742 4.08123 13.111L3.57623 13.403C2.62123 13.955 2.29323 15.181 2.84523 16.136ZM6.1717 13.3784C6.0587 12.9254 6.0007 12.4614 6.0007 12.0004C6.0007 11.5384 6.0587 11.0744 6.1707 10.6224C6.2787 10.1894 6.0877 9.73735 5.70071 9.51435L4.5777 8.86436L5.57571 7.13535L6.7207 7.79736C7.1047 8.01835 7.5877 7.96235 7.9087 7.65535C8.5917 7.00835 9.4157 6.52435 10.2927 6.25635C10.7137 6.12836 11.0007 5.73935 11.0007 5.30036V4.00036H13.0007V5.30036C13.0007 5.73936 13.2877 6.12836 13.7087 6.25635C14.5857 6.52535 15.4097 7.00835 16.0927 7.65535C16.4137 7.96236 16.8987 8.01736 17.2807 7.79736L18.4247 7.13636L19.4247 8.86536L18.3007 9.51435C17.9137 9.73835 17.7227 10.1904 17.8307 10.6224C17.9427 11.0744 18.0007 11.5384 18.0007 12.0004C18.0007 12.4614 17.9427 12.9254 17.8297 13.3784C17.7227 13.8114 17.9137 14.2634 18.3007 14.4864L19.4237 15.1354L18.4257 16.8644L17.2807 16.2034C16.8977 15.9824 16.4137 16.0374 16.0927 16.3454C15.4097 16.9924 14.5857 17.4764 13.7087 17.7444C13.2877 17.8724 13.0007 18.2614 13.0007 18.7004L13.0027 20.0004H11.0007V18.7004C11.0007 18.2614 10.7137 17.8724 10.2927 17.7444C9.4157 17.4754 8.5917 16.9924 7.9087 16.3454C7.7187 16.1634 7.47071 16.0704 7.22071 16.0704C7.04871 16.0704 6.8767 16.1144 6.7207 16.2044L5.5767 16.8664L4.5767 15.1374L5.7007 14.4864C6.0877 14.2634 6.2787 13.8114 6.1717 13.3784Z" fill="#555B6D"/>
</svg>
