<svg width="20" height="20" viewBox="0 0 20 20" fill="none" xmlns="http://www.w3.org/2000/svg">
<path d="M3.51562 14.1011V18.2026C3.51562 18.7272 4.15094 18.9822 4.51602 18.6171L5.27344 17.8593L6.03086 18.6171C6.39863 18.9849 7.03125 18.7245 7.03125 18.2026V14.1011H3.51562Z" fill="#6A7187"/>
<path d="M2.96875 12.9292V1.79639C2.96875 1.47279 3.23109 1.21045 3.55469 1.21045H7.65625C8.62539 1.21045 9.41406 1.99912 9.41406 2.96826V13.5253C8.91328 13.1452 8.29727 12.9292 7.65625 12.9292H2.96875Z" fill="#6A7187"/>
<path d="M17.0312 12.9292V1.79639C17.0312 1.47279 16.7689 1.21045 16.4453 1.21045H12.3438C11.3746 1.21045 10.5859 1.99912 10.5859 2.96826V13.5253C11.0867 13.1452 11.7027 12.9292 12.3438 12.9292H17.0312Z" fill="#6A7187"/>
<path d="M8.20312 14.1892C8.60219 14.3213 8.94477 14.5973 9.16836 14.9815C9.27344 15.162 9.46641 15.2729 9.675 15.2729H10.325C10.5336 15.2729 10.7266 15.162 10.8316 14.9815C11.1523 14.4304 11.7176 14.1011 12.3438 14.1011H17.6172C17.9406 14.1011 18.2031 13.8386 18.2031 13.5151V2.38232H19.4141C19.7375 2.38232 20 2.64482 20 2.96826V15.8589C20 16.1823 19.7375 16.4448 19.4141 16.4448H8.20312V14.1892Z" fill="#6A7187"/>
<path d="M0.585938 2.38232H1.79688V13.5151C1.79688 13.8254 2.03859 14.0789 2.34375 14.0991V16.4448H0.585938C0.2625 16.4448 0 16.1823 0 15.8589V2.96826C0 2.64482 0.2625 2.38232 0.585938 2.38232Z" fill="#6A7187"/>
</svg>
