<svg width="40" height="40" viewBox="0 0 40 40" fill="none" xmlns="http://www.w3.org/2000/svg">
<path d="M21.5625 17.9688H18.4375V21.0938H21.5625V17.9688Z" fill="#50A5F1"/>
<path d="M35.3125 3.125H33.4375V0H30.3125V3.125H9.6875V0H6.5625V3.125H4.6875C2.10281 3.125 0 5.22781 0 7.8125V35.3125C0 37.8972 2.10281 40 4.6875 40H15.0781H15.3125H20.7627C19.6823 39.1083 18.7414 38.0538 17.9765 36.875H15.3125H15.0781H4.6875C3.82594 36.875 3.125 36.1741 3.125 35.3125V14.6875H36.875V17.8125V17.9688V17.9765C38.0537 18.7414 39.1083 19.6824 40 20.7627V17.9688V17.8125V7.8125C40 5.22781 37.8972 3.125 35.3125 3.125ZM36.875 11.5625H3.125V7.8125C3.125 6.95094 3.82594 6.25 4.6875 6.25H6.5625V9.375H9.6875V6.25H30.3125V9.375H33.4375V6.25H35.3125C36.1741 6.25 36.875 6.95094 36.875 7.8125V11.5625Z" fill="#50A5F1"/>
<path d="M29.4531 18.9062C23.6376 18.9062 18.9062 23.6376 18.9062 29.4531C18.9062 35.2687 23.6376 40 29.4531 40C35.2687 40 40 35.2687 40 29.4531C40 23.6376 35.2687 18.9062 29.4531 18.9062ZM29.4531 36.875C25.3607 36.875 22.0312 33.5455 22.0312 29.4531C22.0312 25.3607 25.3607 22.0312 29.4531 22.0312C33.5455 22.0312 36.875 25.3607 36.875 29.4531C36.875 33.5455 33.5455 36.875 29.4531 36.875Z" fill="#50A5F1"/>
<path d="M30.9375 24.2188H27.8125V31.0156H33.5938V27.8906H30.9375V24.2188Z" fill="#50A5F1"/>
<path d="M15.3125 24.2188H12.1875V27.3438H15.3125V24.2188Z" fill="#50A5F1"/>
<path d="M9.0625 24.2188H5.9375V27.3438H9.0625V24.2188Z" fill="#50A5F1"/>
<path d="M9.0625 17.9688H5.9375V21.0938H9.0625V17.9688Z" fill="#50A5F1"/>
<path d="M9.0625 30.4688H5.9375V33.5938H9.0625V30.4688Z" fill="#50A5F1"/>
<path d="M15.3125 17.9688H12.1875V21.0938H15.3125V17.9688Z" fill="#50A5F1"/>
<path d="M15.3125 30.4688H12.1875V33.5938H15.3125V30.4688Z" fill="#50A5F1"/>
</svg>
