<svg width="12" height="12" viewBox="0 0 12 12" fill="none" xmlns="http://www.w3.org/2000/svg">
<path d="M2.62461 8.65967C1.70727 8.65967 0.960938 9.406 0.960938 10.3233C0.960938 11.2407 1.70727 11.987 2.62461 11.987C3.54195 11.987 4.28828 11.2407 4.28828 10.3233C4.28828 9.406 3.54195 8.65967 2.62461 8.65967Z" fill="white"/>
<path d="M2.97587 7.51167V7.86315H6.06917C6.08143 6.60827 7.07529 5.58378 8.31813 5.52276C9.12049 4.22156 10.9154 4.00997 11.9972 5.08039V2.97533L11.6177 2.96586C10.1856 2.96345 9.02132 1.79761 9.02132 0.364908V0.0134277H2.97587V0.364908C2.97587 1.79909 1.80909 2.96586 0.374912 2.96586H0V4.91072H0.374912C1.80909 4.91072 2.97587 6.07749 2.97587 7.51167ZM7.89823 3.91533C7.91868 3.71829 8.0952 3.58097 8.28251 3.60042C8.4714 3.61584 8.61803 3.7921 8.59791 3.98447C8.56798 4.27906 8.20868 4.40838 7.99969 4.19864C7.92297 4.122 7.88806 4.01545 7.89823 3.91533V3.91533ZM5.04911 4.93966C5.15544 4.7772 5.37324 4.73177 5.53569 4.83805C5.70675 4.94999 5.76235 4.95861 5.99672 4.95711C6.22279 4.95564 6.31289 4.77823 6.33049 4.67366C6.3463 4.57967 6.32859 4.45473 6.15435 4.3931C5.88753 4.29867 5.57173 4.17821 5.35129 4.00535C4.86807 3.62648 5.01475 2.762 5.64761 2.53185V2.48101C5.64761 2.28689 5.80498 2.12953 5.99909 2.12953C6.1932 2.12953 6.35057 2.28689 6.35057 2.48101V2.50992C6.58343 2.57855 6.74629 2.72353 6.74629 2.72353C6.88812 2.85484 6.89745 3.0762 6.76672 3.21886C6.63583 3.36172 6.41414 3.37161 6.27099 3.24126C6.18024 3.17403 6.04288 3.14488 5.8965 3.18924C5.80221 3.21766 5.77704 3.31481 5.77156 3.34391C5.76017 3.40453 5.77639 3.44535 5.78506 3.45215C5.92839 3.56457 6.21403 3.66852 6.38888 3.73038C7.31522 4.05805 7.20204 5.28999 6.35059 5.5977V5.67127C6.35059 5.86538 6.19322 6.02275 5.99911 6.02275C5.805 6.02275 5.64763 5.86538 5.64763 5.67127V5.63746C5.48557 5.60909 5.3376 5.54849 5.15075 5.4262C4.98828 5.31993 4.94277 5.10209 5.04911 4.93966V4.93966ZM3.39952 3.91533C3.41545 3.72213 3.6008 3.56471 3.81778 3.60534C4.00617 3.64445 4.13052 3.82272 4.09381 4.01868C4.05428 4.20841 3.8753 4.3312 3.68047 4.29471C3.49329 4.25546 3.38201 4.08586 3.39952 3.91533V3.91533Z" fill="white"/>
<path d="M9.87819 7.05911C9.50129 6.40428 8.73727 6.08793 8.01699 6.27625C7.053 6.52655 6.50898 7.57825 6.89643 8.51801C7.08885 8.98527 7.48124 9.33307 7.94505 9.47633C7.89149 8.33541 8.70833 7.27551 9.87819 7.05911V7.05911Z" fill="white"/>
<path d="M11.974 9.38597C11.974 8.87269 11.7373 8.39554 11.3425 8.08268C11.3426 8.08261 11.3428 8.08252 11.3429 8.08242C11.1832 7.95568 10.9999 7.8574 10.8005 7.79611C9.61343 7.4278 8.45453 8.45558 8.67324 9.67934C8.76854 10.2144 9.12382 10.6718 9.62002 10.8993C10.7228 11.4027 11.974 10.5911 11.974 9.38597V9.38597Z" fill="white"/>
<path d="M9.72461 0.364664C9.72461 1.41121 10.576 2.26266 11.6226 2.26266C11.6292 2.26266 11.6643 2.26359 11.9975 2.27194V1.06762C11.9975 0.486206 11.5245 0.0131836 10.9431 0.0131836H9.72461V0.364664Z" fill="white"/>
<path d="M2.2729 7.51152C2.2729 6.46497 1.42148 5.61353 0.374912 5.61353H0V6.80856C0 7.38997 0.473022 7.863 1.05444 7.863H2.2729V7.51152Z" fill="white"/>
<path d="M10.3335 5.0979C9.85694 5.0979 9.42649 5.29942 9.12305 5.62161C9.82366 5.83463 10.3874 6.3644 10.6468 7.04349C11.0796 7.10511 11.4748 7.28453 11.799 7.54781C12.4007 6.43243 11.5756 5.0979 10.3335 5.0979V5.0979Z" fill="white"/>
<path d="M0.374912 2.2629C1.42148 2.2629 2.2729 1.41145 2.2729 0.364908V0.0134277H1.05444C0.473022 0.0134277 0 0.48645 0 1.06787V2.2629H0.374912Z" fill="white"/>
</svg>
