<svg width="106" height="106" viewBox="0 0 106 106" fill="none" xmlns="http://www.w3.org/2000/svg">
<path d="M53 0C23.7288 0 0 23.7288 0 53C0 82.2712 23.7288 106 53 106C82.2712 106 106 82.2712 106 53C105.966 23.7429 82.2571 0.0339798 53 0ZM53 102.581C25.6174 102.581 3.41935 80.3826 3.41935 53C3.41935 25.6174 25.6174 3.41935 53 3.41935C80.3826 3.41935 102.581 25.6174 102.581 53C102.551 80.3702 80.3702 102.551 53 102.581Z" fill="#34C38F"/>
<path d="M79.1461 33.8395L44.4516 68.534L26.8539 50.9363C26.1747 50.2802 25.0925 50.299 24.4364 50.9782C23.7966 51.6407 23.7966 52.691 24.4364 53.3538L43.2429 72.1602C43.9105 72.8276 44.9927 72.8276 45.6604 72.1602L81.5636 36.257C82.2197 35.5778 82.2009 34.4956 81.5217 33.8395C80.859 33.1997 79.8086 33.1997 79.1461 33.8395Z" fill="#34C38F"/>
</svg>
