<svg width="24" height="20" viewBox="0 0 24 20" fill="none" xmlns="http://www.w3.org/2000/svg">
<path d="M9.79597 18.3264C9.7653 18.2448 9.75474 18.1754 9.76514 18.1193C9.77549 18.0635 9.73984 18.0173 9.65808 17.9817C9.57633 17.9461 9.53553 17.9179 9.53553 17.8977C9.53553 17.8773 9.47693 17.8619 9.35947 17.8519C9.24206 17.8416 9.18347 17.8364 9.18347 17.8364H8.98457H8.81624H4.40806C3.73461 17.8364 3.15803 17.5968 2.67838 17.1169C2.19883 16.6373 1.95909 16.0609 1.95909 15.3875V4.61195C1.95909 3.9385 2.19878 3.36213 2.67838 2.88253C3.15803 2.40288 3.73461 2.16297 4.40806 2.16297H9.30597C9.43865 2.16297 9.54298 2.13006 9.6197 2.06358C9.69609 1.99726 9.74702 1.89771 9.77265 1.76508C9.79817 1.63244 9.81355 1.51268 9.8187 1.40551C9.82374 1.29845 9.82127 1.16314 9.81098 0.999895C9.80085 0.836705 9.79575 0.734684 9.79575 0.693672C9.79575 0.56104 9.74724 0.446474 9.65036 0.349332C9.55338 0.252619 9.43865 0.204102 9.30602 0.204102H4.40806C3.1939 0.204102 2.15557 0.635237 1.29324 1.49745C0.431135 2.35967 0 3.39784 0 4.61211V15.3875C0 16.6017 0.431135 17.6401 1.29324 18.502C2.15557 19.3646 3.1939 19.7958 4.40806 19.7958H9.30618C9.43887 19.7958 9.54325 19.7624 9.61991 19.6964C9.69631 19.63 9.74724 19.5305 9.77286 19.3977C9.79838 19.2652 9.81377 19.1449 9.81891 19.0381C9.82395 18.931 9.82149 18.7959 9.81119 18.6327C9.80095 18.4693 9.79597 18.3673 9.79597 18.3264Z" fill="#6A7187"/>
<path d="M23.7096 9.31086L15.3832 0.984142C15.1894 0.790501 14.9598 0.693359 14.6944 0.693359C14.4291 0.693359 14.1994 0.790501 14.0055 0.984142C13.8116 1.17805 13.7147 1.40788 13.7147 1.67304V6.08121H6.85761C6.59213 6.08121 6.36262 6.17835 6.16871 6.37199C5.9748 6.5659 5.87793 6.79557 5.87793 7.06088V12.9385C5.87793 13.2038 5.9748 13.4334 6.16871 13.6273C6.36284 13.8208 6.59229 13.9182 6.85761 13.9182H13.7148V18.3263C13.7148 18.5914 13.8116 18.8213 14.0055 19.015C14.1995 19.209 14.4291 19.306 14.6945 19.306C14.9598 19.306 15.1894 19.209 15.3832 19.015L23.7096 10.6887C23.9035 10.4946 24.0005 10.2653 24.0005 9.99992C24.0005 9.73465 23.9035 9.50477 23.7096 9.31086Z" fill="#6A7187"/>
</svg>
