<svg width="20" height="20" viewBox="0 0 20 20" fill="none" xmlns="http://www.w3.org/2000/svg">
<circle cx="10" cy="10" r="9.5" stroke="#A6B0CF"/>
<path d="M9.0187 12.4489V12.0407C9.0187 11.4512 9.10463 10.9674 9.27648 10.5895C9.44834 10.2065 9.76819 9.80341 10.236 9.38013C10.8853 8.80064 11.2934 8.36476 11.4605 8.07249C11.6324 7.78023 11.7183 7.42749 11.7183 7.01429C11.7183 6.50031 11.5608 6.10474 11.2457 5.82759C10.9354 5.54541 10.4867 5.40431 9.89947 5.40431C9.52234 5.40431 9.15475 5.45219 8.79671 5.54793C8.43868 5.63863 8.02813 5.80744 7.56506 6.05435L7.14258 5.03394C8.04483 4.53508 8.98767 4.28564 9.97108 4.28564C10.8829 4.28564 11.5918 4.52248 12.0978 4.99615C12.6039 5.46982 12.8569 6.1375 12.8569 6.99917C12.8569 7.36703 12.8091 7.69204 12.7136 7.97423C12.6229 8.25138 12.4869 8.51593 12.3055 8.76788C12.1241 9.0148 11.7326 9.4154 11.1311 9.9697C10.649 10.4031 10.3291 10.7633 10.1716 11.0506C10.0188 11.3378 9.94244 11.7208 9.94244 12.1995V12.4489H9.0187ZM8.66782 14.6938C8.66782 14.0085 8.95425 13.6658 9.52711 13.6658C9.80399 13.6658 10.0164 13.754 10.1644 13.9304C10.3172 14.1068 10.3936 14.3612 10.3936 14.6938C10.3936 15.0163 10.3172 15.2683 10.1644 15.4497C10.0117 15.626 9.79922 15.7142 9.52711 15.7142C9.27887 15.7142 9.0736 15.6361 8.91129 15.4799C8.74898 15.3187 8.66782 15.0566 8.66782 14.6938Z" fill="#A6B0CF"/>
</svg>
