<svg width="12" height="12" viewBox="0 0 12 12" fill="none" xmlns="http://www.w3.org/2000/svg">
<path d="M8.22656 0.206055V2.04386C8.22656 2.20954 8.36088 2.34386 8.52656 2.34386H10.3644L8.22656 0.206055Z" fill="white"/>
<path d="M6.72363 4.5H5.27637C5.00243 4.9782 4.53987 5.30433 4.00781 5.40476V7.09214C4.00781 8.36377 4.80401 9.46835 6 9.87323C7.19599 9.46835 7.99219 8.36377 7.99219 7.09214V5.40476C7.46013 5.30433 6.99757 4.97817 6.72363 4.5ZM7.24296 6.78098L5.91715 8.1068C5.8485 8.17545 5.75852 8.20978 5.66857 8.20978C5.57862 8.20978 5.48862 8.17547 5.41999 8.1068L4.75709 7.44389C4.61979 7.30659 4.61979 7.08401 4.75709 6.94671C4.89436 6.80941 5.11697 6.80941 5.25427 6.94671L5.66859 7.36102L6.74583 6.2838C6.8831 6.14651 7.10571 6.14651 7.24301 6.2838C7.38026 6.4211 7.38026 6.64369 7.24296 6.78098Z" fill="white"/>
<path d="M7.875 3.04688C7.68084 3.04688 7.52344 2.88947 7.52344 2.69531V0H2.71875C2.00796 0 1.42969 0.578273 1.42969 1.28906V10.7109C1.42969 11.4217 2.00796 12 2.71875 12H9.28125C9.99204 12 10.5703 11.4217 10.5703 10.7109V3.04688H7.875ZM8.69531 7.09212C8.69531 7.88088 8.44643 8.63231 7.97559 9.26515C7.50476 9.89796 6.85652 10.3523 6.10102 10.5789C6.06806 10.5888 6.03403 10.5938 6 10.5938C5.96597 10.5938 5.93194 10.5888 5.89898 10.5789C5.14348 10.3523 4.49524 9.89796 4.02441 9.26515C3.55357 8.63231 3.30469 7.88088 3.30469 7.09212V5.08594C3.30469 4.89178 3.46209 4.73438 3.65625 4.73438C4.10051 4.73438 4.49991 4.48753 4.69856 4.0902L4.74804 3.99124C4.80759 3.87211 4.92933 3.79688 5.0625 3.79688H6.9375C7.07067 3.79688 7.19241 3.87211 7.25196 3.99122L7.30144 4.0902C7.50009 4.48753 7.89949 4.73438 8.34375 4.73438C8.53791 4.73438 8.69531 4.89178 8.69531 5.08594V7.09212Z" fill="white"/>
</svg>
