<?xml version="1.0" encoding="utf-8"?>
<!-- Generator: Adobe Illustrator 22.0.1, SVG Export Plug-In . SVG Version: 6.00 Build 0)  -->
<svg version="1.1" id="Capa_1" xmlns="http://www.w3.org/2000/svg" xmlns:xlink="http://www.w3.org/1999/xlink" x="0px" y="0px"
	 viewBox="0 0 304.5 358.8" style="enable-background:new 0 0 304.5 358.8;" xml:space="preserve">
<style type="text/css">
	.st0{fill:#fff;}
</style>
<g>
	<path class="st0" d="M133.1,171.2c38.9,0,70.5-38.3,70.5-85.6S193.2,0,133.1,0S62.6,38.3,62.6,85.6S94.2,171.2,133.1,171.2z"/>
	<path class="st0" d="M0,301.9C0,299,0,301,0,301.9L0,301.9z"/>
	<path class="st0" d="M266.2,304.1C266.2,303.3,266.2,298.6,266.2,304.1L266.2,304.1z"/>
</g>
<path class="st0" d="M149.7,293.9c0-49.6,40.2-89.9,89.9-89.9c0.6,0,1.2,0,1.8,0c-14-12.6-35.7-20.2-69.6-26.3
	c0,0-11.6,14.8-38.6,14.8s-38.6-14.8-38.6-14.8c-81.4,14.7-92.8,37.8-94.3,118c-0.1,6.5-0.2,6.9-0.2,6.1c0,1.4,0,4.1,0,8.7
	c0,0,19.6,39.5,133.1,39.5c12.9,0,24.6-0.5,35.2-1.4C156.6,333.4,149.7,314.5,149.7,293.9z"/>
<path class="st0" d="M239.6,229c-35.9,0-64.9,29.1-64.9,64.9s29.1,64.9,64.9,64.9s64.9-29.1,64.9-64.9
	C304.5,258,275.4,229,239.6,229z M268,305h-17.3v17.3c0,6.2-5,11.1-11.1,11.1c-6.2,0-11.1-5-11.1-11.1V305h-17.3
	c-6.2,0-11.1-5-11.1-11.1c0-6.2,5-11.1,11.1-11.1h17.3v-17.3c0-6.2,5-11.1,11.1-11.1s11.1,5,11.1,11.1v17.3H268
	c6.2,0,11.1,5,11.1,11.1S274.1,305,268,305z"/>
</svg>
