<svg width="12" height="12" viewBox="0 0 12 12" fill="none" xmlns="http://www.w3.org/2000/svg">
<path d="M2.11768 7.41187H2.94121V8.11775H2.11768V7.41187Z" fill="white"/>
<path d="M11.9697 1.05891C11.8642 0.653333 11.4949 0.353027 11.0568 0.353027H3.06091C2.62277 0.353027 2.25348 0.653333 2.14795 1.05891H11.9697Z" fill="white"/>
<path d="M2.11768 3.17651V3.8824H8.9637C9.85834 3.8824 10.5862 4.61026 10.5862 5.50489V7.41181H11.0568C11.5769 7.41181 12 6.98868 12 6.46856V3.17651H2.11768Z" fill="white"/>
<path d="M9.88028 5.50499C9.88028 4.99958 9.46908 4.58838 8.96367 4.58838H0.943247C0.42313 4.58838 0 5.01151 0 5.53163V10.704C0 11.2241 0.42313 11.6472 0.943247 11.6472H8.93911C9.45922 11.6472 9.88235 11.2241 9.88235 10.704V9.99807L9.88028 5.50499ZM2.82353 10.2354H1.41176V9.52956H2.82353V10.2354ZM2.99638 8.82367H2.06245C1.70365 8.82367 1.41176 8.53179 1.41176 8.17299V7.35671C1.41176 6.99791 1.70365 6.70603 2.06245 6.70603H2.99638C3.35518 6.70603 3.64706 6.99791 3.64706 7.35671V8.17299C3.64706 8.53179 3.35518 8.82367 2.99638 8.82367ZM4.94118 10.2354H3.52941V9.52956H4.94118V10.2354ZM7.05882 10.2354H5.64706V9.52956H7.05882V10.2354ZM8.47059 10.2354H7.76471V9.52956H8.47059V10.2354Z" fill="white"/>
<path d="M2.11768 1.76465H12V2.47053H2.11768V1.76465Z" fill="white"/>
</svg>
