<svg width="20" height="20" viewBox="0 0 20 20" fill="none" xmlns="http://www.w3.org/2000/svg">
<path d="M16.2537 18H1.17864C0.520917 18 0 17.4376 0 16.7735V7.35214C0 7.34679 0 7.34143 0 7.33608C0.00526179 6.68264 0.536703 6.15774 1.17864 6.1631H1.78901V13.8598C1.78901 15.1184 2.79927 16.1254 4.0358 16.1254H17.4218V16.7735C17.4218 17.4376 16.9114 18 16.2537 18Z" fill="#6A7187"/>
<path d="M17.58 6.6959C17.2222 7.00119 16.6907 6.95299 16.3908 6.58878C16.3645 6.55664 16.3382 6.52986 16.3119 6.50844C16.0856 6.32097 15.7541 6.35847 15.57 6.58878C15.4121 6.78695 15.1701 6.90479 14.9175 6.90479C14.444 6.90479 14.0651 6.51915 14.0704 6.0371C14.0704 5.56041 14.4545 5.17478 14.9228 5.17478C15.1753 5.16942 15.4174 5.28725 15.5752 5.48543C15.6752 5.60862 15.8225 5.67825 15.9804 5.67825C16.133 5.6836 16.2856 5.61397 16.3856 5.49078C16.4224 5.44794 16.454 5.41044 16.4961 5.37831C16.8539 5.07301 17.3853 5.12122 17.6852 5.48543C17.9851 5.84964 17.9378 6.3906 17.58 6.6959Z" fill="#6A7187"/>
<path d="M18.8001 14.8369H3.72508H3.71982C3.06209 14.8422 2.53065 14.3066 2.52539 13.6425V12.8551H19.9945H19.9998V13.6425C19.9998 14.312 19.4578 14.8369 18.8001 14.8369Z" fill="#6A7187"/>
<path d="M19.9945 11.7839H2.52539V10.3914H19.9945V11.7839Z" fill="#6A7187"/>
<path d="M2.52539 9.32031V4.2267C2.52539 3.55183 3.05683 3.00552 3.71982 3.00016H18.7949C19.4578 3.00552 19.9893 3.55183 19.9945 4.2267V9.32031H2.52539ZM18.6212 4.96048C18.0319 4.07673 16.848 3.84106 15.9798 4.44094C15.6641 4.22134 15.2958 4.10886 14.9169 4.10886C13.8646 4.10886 13.0174 4.9819 13.0174 6.04776C13.0174 7.11362 13.8646 7.9813 14.9169 7.9813C15.2958 7.9813 15.6641 7.86882 15.9798 7.64922C16.627 8.09377 17.4689 8.09377 18.1108 7.64922C18.979 7.04934 19.2105 5.84423 18.6212 4.96048Z" fill="#6A7187"/>
</svg>
