<svg width="12" height="12" viewBox="0 0 12 12" fill="none" xmlns="http://www.w3.org/2000/svg">
<path d="M1.12119 3.6487C1.12119 4.55356 1.22139 5.2322 1.4218 5.68463C1.62221 6.13706 1.94719 6.36327 2.39675 6.36327C3.28504 6.36327 3.72918 5.45842 3.72918 3.6487C3.72918 1.84963 3.28504 0.9501 2.39675 0.9501C1.94719 0.9501 1.62221 1.17365 1.4218 1.62076C1.22139 2.06786 1.12119 2.74385 1.12119 3.6487ZM4.84225 3.6487C4.84225 4.86228 4.63372 5.78044 4.21666 6.40319C3.80501 7.02063 3.19838 7.32934 2.39675 7.32934C1.63846 7.32934 1.04807 7.01264 0.625592 6.37924C0.208531 5.74584 0 4.83566 0 3.6487C0 2.44045 0.200406 1.53027 0.601219 0.918164C1.00745 0.306055 1.60596 0 2.39675 0C3.18213 0 3.78605 0.3167 4.20853 0.9501C4.63101 1.5835 4.84225 2.48303 4.84225 3.6487ZM8.27082 8.32735C8.27082 9.23752 8.37102 9.91883 8.57143 10.3713C8.77184 10.8184 9.09953 11.0419 9.5545 11.0419C10.0095 11.0419 10.3453 10.821 10.562 10.3792C10.7786 9.93214 10.8869 9.24817 10.8869 8.32735C10.8869 7.41717 10.7786 6.74385 10.562 6.30739C10.3453 5.8656 10.0095 5.64471 9.5545 5.64471C9.09953 5.64471 8.77184 5.8656 8.57143 6.30739C8.37102 6.74385 8.27082 7.41717 8.27082 8.32735ZM12 8.32735C12 9.5356 11.7915 10.4511 11.3744 11.0739C10.9628 11.6913 10.3561 12 9.5545 12C8.78538 12 8.19228 11.6833 7.77522 11.0499C7.36358 10.4165 7.15775 9.50898 7.15775 8.32735C7.15775 7.1191 7.35816 6.20892 7.75897 5.59681C8.1652 4.9847 8.76371 4.67864 9.5545 4.67864C10.3236 4.67864 10.9221 4.99268 11.35 5.62076C11.7833 6.24351 12 7.14571 12 8.32735ZM9.01316 0.167665C9.41123 0.167665 9.6617 0.596662 9.46601 0.943321L3.46407 11.5759C3.37186 11.7393 3.19881 11.8403 3.01122 11.8403C2.61314 11.8403 2.36268 11.4113 2.55836 11.0647L8.5603 0.432059C8.65251 0.268698 8.82557 0.167665 9.01316 0.167665Z" fill="white"/>
</svg>
