<svg width="6" height="10" viewBox="0 0 6 10" fill="none" xmlns="http://www.w3.org/2000/svg">
<path d="M3 7.84191C2.88841 7.84191 2.79399 7.80427 2.71674 7.72898C2.64807 7.6537 2.61373 7.56169 2.61373 7.45295C2.61373 7.11 2.69528 6.74613 2.85837 6.36135C3.02146 5.97658 3.23176 5.65454 3.48927 5.39523C3.77253 5.1192 4.04721 4.86407 4.3133 4.62986C4.5794 4.38729 4.79828 4.11962 4.96996 3.82685C5.14163 3.52572 5.22747 3.15349 5.22747 2.71016C5.22747 2.33375 5.13305 1.99916 4.94421 1.7064C4.75537 1.41363 4.49356 1.18361 4.1588 1.01631C3.82403 0.840653 3.43777 0.752823 3 0.752823C2.57082 0.752823 2.18884 0.844835 1.85408 1.02886C1.51931 1.21288 1.25751 1.46801 1.06867 1.79423C0.879828 2.11209 0.785408 2.48432 0.785408 2.91092C0.785408 3.01966 0.751073 3.10749 0.682404 3.1744C0.613734 3.24132 0.519313 3.27478 0.399142 3.27478C0.287554 3.27478 0.193133 3.24132 0.11588 3.1744C0.0386266 3.10749 0 3.01966 0 2.91092C0 2.34212 0.128755 1.84023 0.386266 1.40527C0.643777 0.961941 0.995708 0.618988 1.44206 0.376412C1.897 0.125471 2.41631 0 3 0C3.58369 0 4.09871 0.121288 4.54506 0.363865C5 0.606441 5.35622 0.941029 5.61373 1.36763C5.87124 1.78586 6 2.25847 6 2.78545C6 3.25387 5.90987 3.64701 5.72961 3.96487C5.55794 4.28273 5.32618 4.57549 5.03434 4.84316C4.74249 5.11083 4.42918 5.40778 4.09442 5.734C3.81116 6.01004 3.62232 6.29862 3.5279 6.59975C3.44206 6.90088 3.39914 7.18528 3.39914 7.45295C3.39914 7.56169 3.36052 7.6537 3.28326 7.72898C3.21459 7.80427 3.12017 7.84191 3 7.84191ZM3 10C2.81116 10 2.65665 9.93726 2.53648 9.81179C2.41631 9.68632 2.35622 9.53576 2.35622 9.3601C2.35622 9.18444 2.41631 9.03806 2.53648 8.92095C2.65665 8.79548 2.81116 8.73275 3 8.73275C3.18026 8.73275 3.33476 8.7913 3.46352 8.90841C3.59228 9.02551 3.65665 9.17608 3.65665 9.3601C3.65665 9.54412 3.59228 9.69887 3.46352 9.82434C3.33476 9.94145 3.18026 10 3 10Z" fill="white"/>
</svg>
