<svg width="12" height="12" viewBox="0 0 12 12" fill="none" xmlns="http://www.w3.org/2000/svg">
<circle cx="6" cy="6" r="5.5" stroke="white"/>
<path d="M3.35693 9.00007C3.35693 9.27621 3.58079 9.50007 3.85693 9.50007C4.13308 9.50007 4.35693 9.27621 4.35693 9.00007H3.35693ZM3.98813 8.57022L4.41283 8.83409H4.41283L3.98813 8.57022ZM4.41924 8.14448L4.69659 8.5605L4.41924 8.14448ZM5.12982 7.82939L5.26291 8.31135L5.12982 7.82939ZM6.86976 7.82939L6.73667 8.31135L6.86976 7.82939ZM7.58034 8.14448L7.85769 7.72845V7.72845L7.58034 8.14448ZM8.01145 8.57022L8.43615 8.30635V8.30634L8.01145 8.57022ZM7.64265 9.00007C7.64265 9.27621 7.86651 9.50007 8.14265 9.50007C8.41879 9.50007 8.64265 9.27621 8.64265 9.00007H7.64265ZM4.35693 9.00007C4.35693 8.96313 4.36676 8.90824 4.41283 8.83409L3.56343 8.30634C3.42774 8.52473 3.35693 8.76058 3.35693 9.00007H4.35693ZM4.41283 8.83409C4.46107 8.75645 4.54941 8.65863 4.69659 8.5605L4.14189 7.72845C3.89603 7.89236 3.69886 8.08837 3.56343 8.30634L4.41283 8.83409ZM4.69659 8.5605C4.8434 8.46264 5.03418 8.37451 5.26291 8.31135L4.99673 7.34742C4.67834 7.43535 4.38774 7.56456 4.14189 7.72845L4.69659 8.5605ZM5.26291 8.31135C5.49096 8.24837 5.742 8.21436 5.99979 8.21436V7.21436C5.65596 7.21436 5.31517 7.25949 4.99673 7.34742L5.26291 8.31135ZM5.99979 8.21436C6.25758 8.21436 6.50862 8.24837 6.73667 8.31135L7.00285 7.34742C6.68441 7.25949 6.34362 7.21436 5.99979 7.21436V8.21436ZM6.73667 8.31135C6.9654 8.37451 7.15619 8.46264 7.30299 8.5605L7.85769 7.72845C7.61184 7.56456 7.32124 7.43535 7.00285 7.34742L6.73667 8.31135ZM7.30299 8.5605C7.45018 8.65863 7.53851 8.75645 7.58675 8.83409L8.43615 8.30634C8.30072 8.08837 8.10355 7.89236 7.85769 7.72845L7.30299 8.5605ZM7.58675 8.83409C7.63282 8.90824 7.64265 8.96313 7.64265 9.00007H8.64265C8.64265 8.76058 8.57184 8.52473 8.43615 8.30635L7.58675 8.83409Z" fill="white"/>
<circle cx="4.28585" cy="4.28561" r="0.857143" fill="white"/>
<circle cx="7.71408" cy="4.28561" r="0.857143" fill="white"/>
</svg>
