<svg width="22" height="22" viewBox="0 0 22 22" fill="none" xmlns="http://www.w3.org/2000/svg">
<path d="M22 14.8887C22 11.682 19.8393 8.88026 16.7924 8.036C16.6009 3.57245 12.9103 0 8.40039 0C3.76833 0 0 3.76833 0 8.40039C0 9.91 0.401825 11.3798 1.16486 12.6702L0.501348 15.0689C0.294208 15.8178 0.982855 16.5065 1.73171 16.2993L4.13054 15.6359C5.31671 16.3374 6.65479 16.7325 8.03583 16.7921C8.87993 19.8391 11.6818 22 14.8887 22C16.1687 22 17.4134 21.6591 18.5071 21.0114L20.2681 21.4985C21.0169 21.7056 21.7056 21.0169 21.4985 20.2681L21.0114 18.5071C21.6591 17.4134 22 16.1687 22 14.8887ZM4.33397 14.2421L1.87971 14.9211L2.55865 12.4668L2.4039 12.2248C1.67461 11.0838 1.28906 9.76129 1.28906 8.40039C1.28906 4.47916 4.47916 1.28906 8.40039 1.28906C12.3216 1.28906 15.5117 4.47916 15.5117 8.40039C15.5117 12.3216 12.3216 15.5117 8.40039 15.5117C7.03949 15.5117 5.71719 15.1262 4.576 14.3969L4.33397 14.2421ZM20.1203 20.1203L18.2991 19.6164L18.0559 19.7747C17.1131 20.3872 16.0178 20.7109 14.8887 20.7109C12.3683 20.7109 10.1535 19.0813 9.36887 16.7446C13.2283 16.2996 16.2996 13.2283 16.7447 9.3687C19.0813 10.1535 20.7109 12.3683 20.7109 14.8887C20.7109 16.0178 20.3872 17.1131 19.7747 18.0559L19.6164 18.2991L20.1203 20.1203Z" fill="#555B6D"/>
<path d="M7.75586 12.2891C7.75586 11.9331 8.04443 11.6445 8.40039 11.6445C8.75636 11.6445 9.04492 11.9331 9.04492 12.2891C9.04492 12.645 8.75636 12.9336 8.40039 12.9336C8.04443 12.9336 7.75586 12.645 7.75586 12.2891Z" fill="#555B6D"/>
<path d="M9.68945 6.44531C9.68945 6.81139 9.54041 7.14926 9.26984 7.39684L8.08068 8.48527C7.87372 8.6747 7.75586 8.94236 7.75586 9.22292V9.71094C7.75586 10.0669 8.04443 10.3555 8.40039 10.3555C8.75636 10.3555 9.04492 10.0669 9.04492 9.71094V9.35023L10.1401 8.34785C10.6729 7.86026 10.9785 7.16689 10.9785 6.44531C10.9785 5.02365 9.82205 3.86719 8.40039 3.86719C7.19884 3.86719 6.18673 4.69327 5.90212 5.80735C5.81402 6.15224 6.11083 6.44531 6.4668 6.44531C6.82276 6.44531 7.09813 6.13945 7.26932 5.82735C7.4885 5.42774 7.91332 5.15625 8.40039 5.15625C9.11122 5.15625 9.68945 5.73448 9.68945 6.44531Z" fill="#555B6D"/>
</svg>
