<svg width="57" height="40" viewBox="0 0 57 40" fill="none" xmlns="http://www.w3.org/2000/svg">
<path d="M14.3946 40C14.0137 40 13.6901 39.8875 13.4235 39.6624C13.195 39.3999 13.0808 39.0811 13.0808 38.7061V7.20113L3.59864 14.4023C3.33207 14.6273 3.04647 14.7398 2.74182 14.7398C2.39909 14.7398 2.07541 14.5523 1.77076 14.1772L0.285606 12.3207C0.0952021 12.0581 0 11.7956 0 11.5331C0 11.083 0.190404 10.7267 0.571213 10.4641L13.0236 1.01266C13.4425 0.750117 13.9376 0.618845 14.5088 0.618845H17.422C17.8028 0.618845 18.1074 0.750117 18.3359 1.01266C18.6025 1.23769 18.7358 1.53774 18.7358 1.9128V38.7061C18.7358 39.0811 18.6025 39.3999 18.3359 39.6624C18.1074 39.8875 17.8028 40 17.422 40H14.3946Z" fill="#495057"/>
<path d="M30.4386 40C30.0578 40 29.7341 39.8875 29.4676 39.6624C29.2391 39.3999 29.1248 39.0811 29.1248 38.7061V36.9058C29.1248 36.0431 29.6008 35.218 30.5529 34.4304L42.6626 22.5035C45.5948 20.1031 47.6131 18.1528 48.7174 16.6526C49.8218 15.1149 50.3739 13.5021 50.3739 11.8143C50.3739 9.63901 49.7456 7.93249 48.4889 6.6948C47.2703 5.4571 45.4805 4.83826 43.1195 4.83826C40.9108 4.83826 39.1401 5.49461 37.8073 6.80731C36.4744 8.08251 35.6557 9.78903 35.351 11.9269C35.2749 12.3769 35.0845 12.7145 34.7798 12.9395C34.5133 13.1271 34.2086 13.2208 33.8659 13.2208H30.8956C30.5529 13.2208 30.2672 13.1271 30.0388 12.9395C29.8103 12.7145 29.696 12.4519 29.696 12.1519C29.7722 10.1266 30.3244 8.19503 31.3526 6.35724C32.3807 4.48195 33.8849 2.96296 35.8651 1.80028C37.8834 0.600094 40.3016 0 43.1195 0C47.4227 0 50.6595 1.10642 52.8301 3.31927C55.0388 5.49461 56.1432 8.27004 56.1432 11.6456C56.1432 14.0084 55.5339 16.1463 54.3153 18.0591C53.1348 19.9344 51.2879 21.9597 48.7745 24.135L37.8073 35.1055H55.6291C56.048 35.1055 56.3717 35.2368 56.6002 35.4993C56.8667 35.7243 57 36.0244 57 36.3994V38.7061C57 39.0811 56.8667 39.3999 56.6002 39.6624C56.3336 39.8875 56.0099 40 55.6291 40H30.4386Z" fill="#495057"/>
</svg>
