<svg width="60" height="40" viewBox="0 0 60 40" fill="none" xmlns="http://www.w3.org/2000/svg">
<path d="M26.8685 40H0V35.1989L10.2214 24.9764C13.2399 21.9016 15.2372 19.7258 16.2133 18.4491C17.2074 17.1544 17.9304 15.9407 18.3823 14.8078C18.8342 13.675 19.0601 12.4612 19.0601 11.1666C19.0601 9.38638 18.5178 7.98382 17.4333 6.95887C16.3669 5.93392 14.8848 5.42144 12.9869 5.42144C11.4686 5.42144 9.99548 5.70016 8.56756 6.25759C7.1577 6.81501 5.52192 7.82198 3.66019 9.27849L0.2169 5.09777C2.42205 3.24567 4.56394 1.93302 6.64257 1.15981C8.72119 0.386604 10.9354 0 13.2851 0C16.9724 0 19.9277 0.962014 22.1509 2.88604C24.3742 4.79209 25.4858 7.36345 25.4858 10.6001C25.4858 12.3803 25.1604 14.0706 24.5097 15.6709C23.8771 17.2713 22.892 18.9256 21.5545 20.6339C20.235 22.3241 18.0298 24.6168 14.939 27.5118L8.05242 34.147V34.4167H26.8685V40Z" fill="#495057"/>
<path d="M60 31.3958H54.6588V40H48.4501V31.3958H30.3389V26.5138L48.4501 0.45853H54.6588V26.1362H60V31.3958ZM48.4501 26.1362V16.2374C48.4501 12.713 48.5404 9.82693 48.7212 7.57923H48.5043C47.9982 8.76602 47.2029 10.2045 46.1184 11.8948L36.2765 26.1362H48.4501Z" fill="#495057"/>
</svg>
