<svg width="25" height="40" viewBox="0 0 25 40" fill="none" xmlns="http://www.w3.org/2000/svg">
<path d="M23.8245 9.71391C23.8245 12.1978 23.1365 14.2293 21.7607 15.8084C20.4023 17.3874 18.4692 18.4431 15.9613 18.9754V19.1883C19.0265 19.5786 21.2992 20.5722 22.7795 22.169C24.2598 23.7658 25 25.8594 25 28.4498C25 32.1579 23.7374 35.0144 21.2121 37.0193C18.6869 39.0064 15.0993 40 10.4493 40C8.42912 40 6.57436 39.8403 4.88506 39.521C3.21317 39.2193 1.58481 38.6782 0 37.8975V33.6926C1.65448 34.5265 3.41344 35.1652 5.27691 35.6088C7.15778 36.0346 8.93417 36.2475 10.6061 36.2475C17.2065 36.2475 20.5068 33.6128 20.5068 28.3433C20.5068 23.6239 16.8669 21.2641 9.58725 21.2641H5.8255V17.4584H9.6395C12.6176 17.4584 14.9774 16.7931 16.7189 15.4624C18.4605 14.114 19.3312 12.2511 19.3312 9.87359C19.3312 7.97516 18.6869 6.48481 17.3981 5.40253C16.1268 4.32025 14.3939 3.77911 12.1996 3.77911C10.5277 3.77911 8.95158 4.00976 7.47126 4.47106C5.99094 4.93236 4.30164 5.78399 2.40334 7.02595L0.208986 4.04524C1.77638 2.78554 3.57889 1.80084 5.61651 1.09115C7.67154 0.363717 9.83107 0 12.0951 0C15.8046 0 18.6869 0.869372 20.7419 2.60812C22.7969 4.32912 23.8245 6.69772 23.8245 9.71391Z" fill="#495057"/>
</svg>
