<svg width="26" height="40" viewBox="0 0 26 40" fill="none" xmlns="http://www.w3.org/2000/svg">
<path d="M0 22.8343C0 15.1874 1.51712 9.47439 4.55136 5.69528C7.60377 1.89843 12.1097 0 18.0692 0C20.1223 0 21.7393 0.168552 22.9203 0.505655V4.31138C21.5213 3.86782 19.9224 3.64604 18.1237 3.64604C13.8539 3.64604 10.5926 4.9501 8.33962 7.55822C6.08665 10.1486 4.85115 14.2293 4.63312 19.8004H4.96017C6.95877 16.7487 10.1202 15.2229 14.4444 15.2229C18.0238 15.2229 20.84 16.2786 22.8931 18.3899C24.9644 20.5012 26 23.3666 26 26.986C26 31.0313 24.8644 34.216 22.5933 36.5403C20.3403 38.8468 17.2879 40 13.4361 40C9.31167 40 6.04123 38.4919 3.62474 35.4757C1.20825 32.4418 0 28.228 0 22.8343ZM13.3816 36.2475C15.9616 36.2475 17.9602 35.458 19.3774 33.8789C20.8127 32.2821 21.5304 29.9845 21.5304 26.986C21.5304 24.4134 20.8672 22.3908 19.5409 20.9182C18.2145 19.4456 16.2341 18.7092 13.5996 18.7092C11.9644 18.7092 10.4654 19.0375 9.10273 19.6939C7.74004 20.3504 6.6499 21.2553 5.83228 22.4085C5.03284 23.5618 4.63312 24.7594 4.63312 26.0013C4.63312 27.8288 4.99651 29.532 5.72327 31.1111C6.45004 32.6902 7.47659 33.941 8.80293 34.8636C10.1474 35.7862 11.6737 36.2475 13.3816 36.2475Z" fill="#495057"/>
</svg>
