<svg width="16" height="16" viewBox="0 0 16 16" fill="none" xmlns="http://www.w3.org/2000/svg">
<path fill-rule="evenodd" clip-rule="evenodd" d="M6.66683 11.9999C7.8975 11.9999 9.02883 11.5766 9.9315 10.8746L12.8622 13.8053L13.8048 12.8626L10.8742 9.93192C11.5768 9.02859 12.0002 7.89725 12.0002 6.66659C12.0002 3.72592 9.6075 1.33325 6.66683 1.33325C3.72616 1.33325 1.3335 3.72592 1.3335 6.66659C1.3335 9.60725 3.72616 11.9999 6.66683 11.9999ZM6.66684 2.66659C8.87284 2.66659 10.6668 4.46059 10.6668 6.66659C10.6668 8.87259 8.87284 10.6666 6.66684 10.6666C4.46084 10.6666 2.66684 8.87259 2.66684 6.66659C2.66684 4.46059 4.46084 2.66659 6.66684 2.66659Z" fill="white"/>
<path fill-rule="evenodd" clip-rule="evenodd" d="M7.60805 5.72406C7.86072 5.97739 8.00005 6.31206 8.00005 6.66672H9.33338C9.33338 5.95672 9.05605 5.28739 8.55071 4.78139C7.54138 3.77339 5.79138 3.77339 4.78271 4.78139L5.72405 5.72539C6.23071 5.22006 7.10405 5.22139 7.60805 5.72406Z" fill="white"/>
</svg>
