<svg width="22" height="22" viewBox="0 0 22 22" fill="none" xmlns="http://www.w3.org/2000/svg">
<path fill-rule="evenodd" clip-rule="evenodd" d="M11.0002 14.6666C13.0223 14.6666 14.6668 13.0221 14.6668 10.9999C14.6668 8.97775 13.0223 7.33325 11.0002 7.33325C8.978 7.33325 7.3335 8.97775 7.3335 10.9999C7.3335 13.0221 8.978 14.6666 11.0002 14.6666ZM11.0002 9.16658C11.9939 9.16658 12.8335 10.0063 12.8335 10.9999C12.8335 11.9936 11.9939 12.8333 11.0002 12.8333C10.0065 12.8333 9.16687 11.9936 9.16687 10.9999C9.16687 10.0063 10.0065 9.16658 11.0002 9.16658Z" fill="white"/>
<path fill-rule="evenodd" clip-rule="evenodd" d="M2.60804 14.7913L3.52471 16.3771C4.01146 17.2177 5.18296 17.533 6.02721 17.0463L6.51213 16.7658C7.04563 17.1847 7.63138 17.5284 8.25013 17.7851V18.3333C8.25013 19.3443 9.07238 20.1666 10.0835 20.1666H11.9168C12.9279 20.1666 13.7501 19.3443 13.7501 18.3333V17.7851C14.3689 17.5284 14.9546 17.1847 15.4881 16.7667L15.973 17.0472C16.8191 17.533 17.9879 17.2195 18.4765 16.3771L19.3922 14.7922C19.8982 13.9168 19.5975 12.7929 18.7221 12.2878L18.2592 12.0202C18.3087 11.6801 18.3335 11.34 18.3335 10.9999C18.3335 10.6598 18.3087 10.3188 18.2592 9.9815L18.7221 9.71384C19.5975 9.20784 19.8982 8.08492 19.3922 7.2095L18.4765 5.62459C17.9897 4.78125 16.8191 4.465 15.973 4.95359L15.4881 5.23409C14.9546 4.81517 14.3689 4.47142 13.7501 4.21475V3.66659C13.7501 2.6555 12.9279 1.83325 11.9168 1.83325H10.0835C9.07238 1.83325 8.25013 2.6555 8.25013 3.66659V4.21475C7.63138 4.47142 7.04563 4.81517 6.51213 5.23317L6.02721 4.95267C5.18021 4.46592 4.01054 4.78125 3.52379 5.62367L2.60804 7.20859C2.10204 8.084 2.40271 9.20784 3.27813 9.71292L3.74104 9.98059C3.69154 10.3188 3.66679 10.6598 3.66679 10.9999C3.66679 11.34 3.69154 11.6801 3.74104 12.0183L3.27813 12.286C2.40271 12.792 2.10204 13.9158 2.60804 14.7913ZM5.65691 12.2631C5.55332 11.8478 5.50016 11.4225 5.50016 10.9999C5.50016 10.5764 5.55332 10.1511 5.65599 9.73675C5.75499 9.33984 5.57991 8.9255 5.22516 8.72109L4.19574 8.12525L5.11057 6.54034L6.16016 7.14717C6.51216 7.34975 6.95491 7.29842 7.24916 7.017C7.87524 6.42392 8.63057 5.98025 9.43449 5.73459C9.82041 5.61725 10.0835 5.26067 10.0835 4.85825V3.66659H11.9168V4.85825C11.9168 5.26067 12.1799 5.61725 12.5658 5.73459C13.3697 5.98117 14.1251 6.42392 14.7512 7.017C15.0454 7.29842 15.49 7.34884 15.8402 7.14717L16.8888 6.54125L17.8055 8.12617L16.7752 8.72109C16.4204 8.92642 16.2453 9.34075 16.3443 9.73675C16.447 10.1511 16.5002 10.5764 16.5002 10.9999C16.5002 11.4225 16.447 11.8478 16.3434 12.2631C16.2453 12.66 16.4204 13.0743 16.7752 13.2788L17.8046 13.8737L16.8897 15.4586L15.8402 14.8527C15.4891 14.6501 15.0454 14.7005 14.7512 14.9828C14.1251 15.5759 13.3697 16.0196 12.5658 16.2653C12.1799 16.3826 11.9168 16.7392 11.9168 17.1416L11.9187 18.3333H10.0835V17.1416C10.0835 16.7392 9.82041 16.3826 9.43449 16.2653C8.63057 16.0187 7.87524 15.5759 7.24916 14.9828C7.07499 14.816 6.84766 14.7308 6.61849 14.7308C6.46082 14.7308 6.30316 14.7711 6.16016 14.8536L5.11149 15.4604L4.19482 13.8755L5.22516 13.2788C5.57991 13.0743 5.75499 12.66 5.65691 12.2631Z" fill="white"/>
</svg>
