<svg width="14" height="14" viewBox="0 0 14 14" fill="none" xmlns="http://www.w3.org/2000/svg">
<path d="M0.5 3.125C0.354167 3.125 0.229167 3.08333 0.125 3C0.0416667 2.89583 0 2.77083 0 2.625V1.375C0 1.22917 0.0416667 1.11458 0.125 1.03125C0.229167 0.927083 0.354167 0.875 0.5 0.875H13.5C13.6458 0.875 13.7604 0.927083 13.8438 1.03125C13.9479 1.11458 14 1.22917 14 1.375V2.625C14 2.77083 13.9479 2.89583 13.8438 3C13.7604 3.08333 13.6458 3.125 13.5 3.125H0.5ZM0.5 8.125C0.354167 8.125 0.229167 8.08333 0.125 8C0.0416667 7.89583 0 7.77083 0 7.625V6.375C0 6.22917 0.0416667 6.11458 0.125 6.03125C0.229167 5.92708 0.354167 5.875 0.5 5.875H13.5C13.6458 5.875 13.7604 5.92708 13.8438 6.03125C13.9479 6.11458 14 6.22917 14 6.375V7.625C14 7.77083 13.9479 7.89583 13.8438 8C13.7604 8.08333 13.6458 8.125 13.5 8.125H0.5ZM0.5 13.125C0.354167 13.125 0.229167 13.0833 0.125 13C0.0416667 12.8958 0 12.7708 0 12.625V11.375C0 11.2292 0.0416667 11.1146 0.125 11.0312C0.229167 10.9271 0.354167 10.875 0.5 10.875H13.5C13.6458 10.875 13.7604 10.9271 13.8438 11.0312C13.9479 11.1146 14 11.2292 14 11.375V12.625C14 12.7708 13.9479 12.8958 13.8438 13C13.7604 13.0833 13.6458 13.125 13.5 13.125H0.5Z" fill="white"/>
</svg>
